G04 Layer_Color=16711935*
%FSLAX25Y25*%
%MOIN*%
G70*
G01*
G75*
%ADD43C,0.01000*%
D43*
X685039Y482283D02*
X684954Y483282D01*
X684702Y484251D01*
X684290Y485164D01*
X683729Y485993D01*
X683036Y486717D01*
X682230Y487312D01*
X681336Y487763D01*
X680378Y488056D01*
X679385Y488184D01*
X678384Y488141D01*
X677405Y487930D01*
X676475Y487557D01*
X675622Y487032D01*
X674870Y486370D01*
X674241Y485590D01*
X673753Y484716D01*
X673419Y483772D01*
X673250Y482784D01*
Y481783D01*
X673419Y480795D01*
X673753Y479851D01*
X674241Y478976D01*
X674870Y478197D01*
X675622Y477535D01*
X676475Y477010D01*
X677405Y476637D01*
X678384Y476426D01*
X679385Y476383D01*
X680378Y476510D01*
X681336Y476804D01*
X682230Y477255D01*
X683036Y477850D01*
X683729Y478574D01*
X684290Y479403D01*
X684702Y480316D01*
X684954Y481285D01*
X685039Y482283D01*
X409449D02*
X409364Y483282D01*
X409111Y484251D01*
X408699Y485164D01*
X408138Y485993D01*
X407445Y486717D01*
X406640Y487312D01*
X405745Y487763D01*
X404787Y488056D01*
X403794Y488184D01*
X402793Y488141D01*
X401814Y487930D01*
X400885Y487557D01*
X400032Y487032D01*
X399280Y486370D01*
X398651Y485590D01*
X398162Y484716D01*
X397828Y483772D01*
X397659Y482784D01*
Y481783D01*
X397828Y480795D01*
X398162Y479851D01*
X398651Y478976D01*
X399280Y478197D01*
X400032Y477535D01*
X400885Y477010D01*
X401814Y476637D01*
X402793Y476426D01*
X403794Y476383D01*
X404787Y476510D01*
X405745Y476804D01*
X406640Y477255D01*
X407445Y477850D01*
X408138Y478574D01*
X408699Y479403D01*
X409111Y480316D01*
X409364Y481285D01*
X409449Y482283D01*
M02*
