M48
;Layer_Color=9474304
;FILE_FORMAT=2:5
INCH,LZ
;TYPE=PLATED
T1F00S00C0.02800
T2F00S00C0.03543
T3F00S00C0.04724
T4F00S00C0.05906
T5F00S00C0.11811
%
T01
X0633Y0236
X0665
X0671Y031
X0634
X0606Y0309
X0566Y031
X0571Y0272
X0569Y0236
X0602
X0519Y0241
X0517Y0224
X0506
X0509Y0209
X0493Y0217
X0469Y0213
X0476Y0231
X0474Y0271
X0484Y0292
X0476Y0301
X0472Y0308
X0497Y0301
X0512Y0309
X0518Y0284
X0527Y0281
X0503Y0277
X0509Y0259
X04995Y0251
X0465Y0266
X0456Y0264
X0441Y0277
X0441028Y0298
X0445Y0308
X0458Y0301
X0425Y0302
X042Y0309
X0407
X0415Y0262
X0424Y0246
X0437Y0243
X0425Y0231
Y0224
X0428Y0208
X0401Y0216
X0402Y0247
X0398Y0334
X0410006Y0331
X0424Y0332
X0433Y0327
X0443Y0337
X0465Y0334
X0466Y0358
X041Y0365
X0403Y0368
Y0354
X0409Y0414
X0427Y0416
X0423Y0423
X0447
X0464Y0431
X0403Y0437
X0405Y0451
X047412Y042612
X0481496Y0414
X04805Y04035
X0497496Y0419
X0505Y0414
X0521Y0418
X0522Y0449
X0554Y0453
X0571Y0418
X0608
X0527Y0382
X0521Y0362
X0509Y0357
X0491Y0358
X0495Y0369
X0506Y034
X0484Y0335
X0637Y0419
T02
X052Y0318
Y0328
Y0338
Y0348
X0548
Y0338
Y0328
Y0318
T03
X0421905Y0378787
Y0398787
X0504905
Y0378787
X0638213Y0471905
X0658213
T04
X0531677Y0471441
X0553677
X0589677
X0611677
T05
X0679134Y0482283
X0403543
M30
