G04 Layer_Color=8421504*
%FSLAX25Y25*%
%MOIN*%
G70*
G01*
G75*
%ADD10R,0.05000X0.03600*%
%ADD11R,0.03600X0.03600*%
%ADD12R,0.03600X0.03000*%
%ADD13R,0.05000X0.06000*%
%ADD14R,0.06000X0.05000*%
%ADD15O,0.02400X0.08000*%
%ADD16R,0.02400X0.08000*%
%ADD17R,0.15748X0.05512*%
%ADD18R,0.07874X0.11811*%
G04:AMPARAMS|DCode=19|XSize=118.11mil|YSize=78.74mil|CornerRadius=19.69mil|HoleSize=0mil|Usage=FLASHONLY|Rotation=90.000|XOffset=0mil|YOffset=0mil|HoleType=Round|Shape=RoundedRectangle|*
%AMROUNDEDRECTD19*
21,1,0.11811,0.03937,0,0,90.0*
21,1,0.07874,0.07874,0,0,90.0*
1,1,0.03937,0.01969,0.03937*
1,1,0.03937,0.01969,-0.03937*
1,1,0.03937,-0.01969,-0.03937*
1,1,0.03937,-0.01969,0.03937*
%
%ADD19ROUNDEDRECTD19*%
%ADD20R,0.04200X0.14000*%
%ADD21R,0.42000X0.35000*%
%ADD22R,0.19685X0.19685*%
%ADD23R,0.11811X0.07874*%
G04:AMPARAMS|DCode=24|XSize=118.11mil|YSize=78.74mil|CornerRadius=19.69mil|HoleSize=0mil|Usage=FLASHONLY|Rotation=180.000|XOffset=0mil|YOffset=0mil|HoleType=Round|Shape=RoundedRectangle|*
%AMROUNDEDRECTD24*
21,1,0.11811,0.03937,0,0,180.0*
21,1,0.07874,0.07874,0,0,180.0*
1,1,0.03937,-0.03937,0.01969*
1,1,0.03937,0.03937,0.01969*
1,1,0.03937,0.03937,-0.01969*
1,1,0.03937,-0.03937,-0.01969*
%
%ADD24ROUNDEDRECTD24*%
%ADD25R,0.13780X0.11811*%
%ADD26R,0.03600X0.05000*%
%ADD27R,0.03600X0.03600*%
%ADD28R,0.03000X0.03600*%
D10*
X490028Y291576D02*
D03*
X433028Y288576D02*
D03*
X430028Y420576D02*
D03*
X483524Y418575D02*
D03*
X409028Y420576D02*
D03*
X507028Y418575D02*
D03*
D11*
X498028Y287775D02*
D03*
X441028Y284775D02*
D03*
X438028Y416776D02*
D03*
X491524Y414776D02*
D03*
X417028Y416776D02*
D03*
X515028Y414776D02*
D03*
D12*
X498028Y295275D02*
D03*
X441028Y292276D02*
D03*
X438028Y424275D02*
D03*
X491524Y422275D02*
D03*
X417028Y424275D02*
D03*
X515028Y422275D02*
D03*
D13*
X482994Y267000D02*
D03*
Y276000D02*
D03*
X432994Y266000D02*
D03*
Y275000D02*
D03*
X524000Y232000D02*
D03*
Y223000D02*
D03*
X441000Y237000D02*
D03*
Y228000D02*
D03*
X488006Y226000D02*
D03*
Y217000D02*
D03*
X476000Y225000D02*
D03*
Y216000D02*
D03*
X401000Y233000D02*
D03*
Y224000D02*
D03*
X450000Y226000D02*
D03*
Y217000D02*
D03*
X547994Y229000D02*
D03*
Y220000D02*
D03*
X680994Y225000D02*
D03*
Y216000D02*
D03*
X424006Y350000D02*
D03*
Y341000D02*
D03*
X484006Y351000D02*
D03*
Y342000D02*
D03*
X411006Y350000D02*
D03*
Y341000D02*
D03*
X496006Y351000D02*
D03*
Y342000D02*
D03*
X401006Y297000D02*
D03*
Y288000D02*
D03*
X420994Y266000D02*
D03*
Y275000D02*
D03*
X495994Y267000D02*
D03*
Y276000D02*
D03*
X510006D02*
D03*
Y267000D02*
D03*
Y301000D02*
D03*
Y292000D02*
D03*
D14*
X420000Y205994D02*
D03*
X411000D02*
D03*
X497000Y204994D02*
D03*
X488000D02*
D03*
X476000Y238006D02*
D03*
X485000D02*
D03*
X452000D02*
D03*
X461000D02*
D03*
X563000Y440006D02*
D03*
X554000D02*
D03*
X413000Y287006D02*
D03*
X422000D02*
D03*
D15*
X418000Y239000D02*
D03*
X423000D02*
D03*
X428000D02*
D03*
X433000D02*
D03*
Y217000D02*
D03*
X428000D02*
D03*
X423000D02*
D03*
X499000Y239000D02*
D03*
X504000D02*
D03*
X509000D02*
D03*
X514000D02*
D03*
Y217000D02*
D03*
X509000D02*
D03*
X504000D02*
D03*
D16*
X418000D02*
D03*
X499000D02*
D03*
D17*
X572835Y407480D02*
D03*
X607715D02*
D03*
X637000Y409000D02*
D03*
X671880D02*
D03*
X566000Y220000D02*
D03*
X600880D02*
D03*
X630000D02*
D03*
X664880D02*
D03*
X450880Y450000D02*
D03*
X416000D02*
D03*
X474120D02*
D03*
X509000D02*
D03*
D18*
X592008Y439850D02*
D03*
D19*
X608150D02*
D03*
D20*
X604400Y327000D02*
D03*
X597700D02*
D03*
X591000D02*
D03*
X584300D02*
D03*
X577600D02*
D03*
X668400D02*
D03*
X661700D02*
D03*
X655000D02*
D03*
X648300D02*
D03*
X641600D02*
D03*
D21*
X591000Y364000D02*
D03*
X655000D02*
D03*
D22*
X584000Y254394D02*
D03*
Y303606D02*
D03*
X648000Y254394D02*
D03*
Y303606D02*
D03*
D23*
X548150Y250008D02*
D03*
X681150Y248008D02*
D03*
D24*
X548150Y266150D02*
D03*
X681150Y264150D02*
D03*
D25*
X443000Y346779D02*
D03*
Y319220D02*
D03*
X465000Y346779D02*
D03*
Y319220D02*
D03*
D26*
X498575Y323972D02*
D03*
X483575D02*
D03*
X409576D02*
D03*
X423575D02*
D03*
X464425Y218028D02*
D03*
D27*
X494775Y315972D02*
D03*
X479775D02*
D03*
X405775D02*
D03*
X419775D02*
D03*
X468224Y226028D02*
D03*
D28*
X502276Y315972D02*
D03*
X487276D02*
D03*
X413275D02*
D03*
X427276D02*
D03*
X460724Y226028D02*
D03*
M02*
