G04 Layer_Physical_Order=1*
G04 Layer_Color=255*
%FSLAX25Y25*%
%MOIN*%
G70*
G01*
G75*
%ADD10R,0.05000X0.03600*%
%ADD11R,0.03600X0.03600*%
%ADD12R,0.03600X0.03000*%
%ADD13R,0.05000X0.06000*%
%ADD14R,0.06000X0.05000*%
%ADD15O,0.02400X0.08000*%
%ADD16R,0.02400X0.08000*%
%ADD17R,0.15748X0.05512*%
%ADD18R,0.07874X0.11811*%
G04:AMPARAMS|DCode=19|XSize=118.11mil|YSize=78.74mil|CornerRadius=19.69mil|HoleSize=0mil|Usage=FLASHONLY|Rotation=90.000|XOffset=0mil|YOffset=0mil|HoleType=Round|Shape=RoundedRectangle|*
%AMROUNDEDRECTD19*
21,1,0.11811,0.03937,0,0,90.0*
21,1,0.07874,0.07874,0,0,90.0*
1,1,0.03937,0.01969,0.03937*
1,1,0.03937,0.01969,-0.03937*
1,1,0.03937,-0.01969,-0.03937*
1,1,0.03937,-0.01969,0.03937*
%
%ADD19ROUNDEDRECTD19*%
%ADD20R,0.04200X0.14000*%
%ADD21R,0.42000X0.35000*%
%ADD22R,0.19685X0.19685*%
%ADD23R,0.11811X0.07874*%
G04:AMPARAMS|DCode=24|XSize=118.11mil|YSize=78.74mil|CornerRadius=19.69mil|HoleSize=0mil|Usage=FLASHONLY|Rotation=180.000|XOffset=0mil|YOffset=0mil|HoleType=Round|Shape=RoundedRectangle|*
%AMROUNDEDRECTD24*
21,1,0.11811,0.03937,0,0,180.0*
21,1,0.07874,0.07874,0,0,180.0*
1,1,0.03937,-0.03937,0.01969*
1,1,0.03937,0.03937,0.01969*
1,1,0.03937,0.03937,-0.01969*
1,1,0.03937,-0.03937,-0.01969*
%
%ADD24ROUNDEDRECTD24*%
%ADD25R,0.13780X0.11811*%
%ADD26R,0.03600X0.05000*%
%ADD27R,0.03600X0.03600*%
%ADD28R,0.03000X0.03600*%
%ADD29C,0.04000*%
%ADD30C,0.03000*%
%ADD31C,0.06000*%
%ADD32C,0.05000*%
%ADD33C,0.15748*%
%ADD34C,0.11811*%
%ADD35R,0.11811X0.11811*%
%ADD36C,0.14000*%
%ADD37R,0.11811X0.11811*%
%ADD38R,0.07874X0.07874*%
%ADD39C,0.07874*%
%ADD40C,0.05000*%
G36*
X674954Y490112D02*
X674180Y489698D01*
X672829Y488589D01*
X671720Y487237D01*
X670896Y485696D01*
X670388Y484023D01*
X670266Y482784D01*
X679134D01*
Y482283D01*
X679634D01*
Y473416D01*
X680873Y473538D01*
X682546Y474045D01*
X684088Y474869D01*
X685439Y475978D01*
X686548Y477329D01*
X686962Y478104D01*
X687447Y477982D01*
Y268614D01*
X686999Y268393D01*
X686584Y268711D01*
X685862Y269010D01*
X685087Y269112D01*
X681650D01*
Y264150D01*
Y259187D01*
X685087D01*
X685862Y259289D01*
X686584Y259588D01*
X686999Y259907D01*
X687447Y259685D01*
Y252945D01*
X674244D01*
Y243071D01*
X677463D01*
Y225000D01*
X677494Y224771D01*
Y221000D01*
X684494D01*
Y224771D01*
X684524Y225000D01*
Y243071D01*
X687447D01*
Y198380D01*
X541884D01*
Y245071D01*
X544463D01*
Y229000D01*
X544494Y228771D01*
Y225000D01*
X551494D01*
Y228771D01*
X551524Y229000D01*
Y245071D01*
X555055D01*
Y254945D01*
X541884D01*
Y261661D01*
X542332Y261882D01*
X542716Y261588D01*
X543438Y261289D01*
X544213Y261187D01*
X547650D01*
Y266150D01*
X548150D01*
Y266650D01*
X555081D01*
Y267966D01*
X571000D01*
X572044Y268103D01*
X573017Y268506D01*
X573853Y269147D01*
X574494Y269983D01*
X574897Y270956D01*
X574969Y271500D01*
X571000D01*
Y272500D01*
X574969D01*
Y272500D01*
Y271500D01*
X575035Y272000D01*
X574897Y273044D01*
X574494Y274017D01*
X573853Y274853D01*
X573017Y275494D01*
X572044Y275897D01*
X571000Y276034D01*
X552000D01*
X550956Y275897D01*
X549983Y275494D01*
X549620Y275216D01*
X549147Y274853D01*
X549147Y274853D01*
X545407Y271112D01*
X544213D01*
X543438Y271010D01*
X542716Y270711D01*
X542332Y270417D01*
X541884Y270638D01*
Y429134D01*
X541767Y429719D01*
X541436Y430215D01*
X541000Y430507D01*
Y452000D01*
X542000Y453000D01*
X523661D01*
X523017Y453494D01*
X522044Y453897D01*
X521000Y454035D01*
X519000D01*
Y490597D01*
X674833D01*
X674954Y490112D01*
D02*
G37*
G36*
X503359Y354386D02*
X503291Y354222D01*
X503077Y353706D01*
X502974Y352923D01*
Y341806D01*
X502943Y341765D01*
X502590Y340914D01*
X502470Y340000D01*
X502590Y339086D01*
X502943Y338235D01*
X503319Y337745D01*
X503097Y337297D01*
X499032D01*
Y338000D01*
X499506D01*
Y346000D01*
X492506D01*
Y338000D01*
X492980D01*
Y334271D01*
X492980Y334271D01*
X492980D01*
Y326541D01*
X493084Y325758D01*
X493297Y325242D01*
X493386Y325028D01*
X493867Y324402D01*
X495695Y322574D01*
X495597Y322083D01*
X495314Y321966D01*
X491167Y326112D01*
X490541Y326593D01*
X490327Y326681D01*
X489811Y326895D01*
X489028Y326998D01*
X487032D01*
Y333202D01*
X487057Y333235D01*
X487410Y334086D01*
X487530Y335000D01*
X487410Y335914D01*
X487057Y336765D01*
X487032Y336798D01*
Y338000D01*
X487506D01*
Y346000D01*
X480506D01*
Y338000D01*
X480980D01*
Y336814D01*
X480943Y336765D01*
X480590Y335914D01*
X480470Y335000D01*
X480590Y334086D01*
X480943Y333235D01*
X480980Y333186D01*
Y327472D01*
X480775D01*
Y325052D01*
X480653Y324755D01*
X480550Y323972D01*
X480653Y323189D01*
X480775Y322893D01*
Y320472D01*
X486376D01*
Y320946D01*
X487774D01*
X489487Y319234D01*
X489295Y318772D01*
X488355D01*
X488059Y318895D01*
X487776Y318932D01*
Y315972D01*
X486775D01*
Y318932D01*
X486492Y318895D01*
X486196Y318772D01*
X484775D01*
Y317642D01*
X484655Y317485D01*
X484353Y316755D01*
X484250Y315972D01*
Y312724D01*
X484353Y311941D01*
X484566Y311425D01*
X484655Y311211D01*
X485136Y310585D01*
X488860Y306860D01*
X489487Y306380D01*
X489701Y306291D01*
X490217Y306077D01*
X491000Y305974D01*
X495002D01*
Y303878D01*
X494504Y303496D01*
X493943Y302765D01*
X493590Y301914D01*
X493536Y301500D01*
X497000D01*
Y300500D01*
X493536D01*
X493590Y300086D01*
X493943Y299235D01*
X494504Y298504D01*
X495002Y298122D01*
Y295776D01*
X501054D01*
Y307774D01*
X504415Y311136D01*
X504896Y311763D01*
X505198Y312492D01*
X505301Y313276D01*
X505301Y313276D01*
X505301Y313276D01*
Y313276D01*
Y315972D01*
X505198Y316755D01*
X504896Y317485D01*
X504775Y317642D01*
Y318772D01*
X503355D01*
X503059Y318895D01*
X502775Y318932D01*
Y315972D01*
X501776D01*
Y318932D01*
X501492Y318895D01*
X501196Y318772D01*
X499776D01*
Y317642D01*
X499655Y317485D01*
X499353Y316755D01*
X499250Y315972D01*
Y314529D01*
X498037Y313317D01*
X497576Y313508D01*
Y314893D01*
X497698Y315189D01*
X497801Y315972D01*
Y318224D01*
X497801Y318225D01*
X497698Y319008D01*
X497396Y319737D01*
X497339Y319812D01*
X497404Y320307D01*
X497397Y320301D01*
X497619Y320472D01*
X501375D01*
Y322893D01*
X501498Y323189D01*
X501601Y323972D01*
X501498Y324755D01*
X501375Y325052D01*
Y327472D01*
X499355D01*
X499032Y327795D01*
Y331245D01*
X508271D01*
X509054Y331348D01*
X509784Y331650D01*
X510410Y332131D01*
X514813Y336534D01*
X515304Y336437D01*
X515688Y335510D01*
X516479Y334479D01*
X517510Y333687D01*
X518567Y333250D01*
Y332750D01*
X517510Y332312D01*
X516479Y331521D01*
X515688Y330490D01*
X515190Y329289D01*
X515020Y328000D01*
X515190Y326711D01*
X515688Y325510D01*
X516479Y324479D01*
X517510Y323688D01*
X518138Y323427D01*
X518041Y322937D01*
X515063D01*
Y313063D01*
X516974D01*
Y287363D01*
X516235Y287057D01*
X515504Y286496D01*
X514943Y285765D01*
X514590Y284914D01*
X514470Y284000D01*
X514590Y283086D01*
X514943Y282235D01*
X515504Y281504D01*
X516235Y280943D01*
X517086Y280590D01*
X518000Y280470D01*
X518914Y280590D01*
X519765Y280943D01*
X519834Y280996D01*
X520000Y280974D01*
X520783Y281077D01*
X521513Y281380D01*
X522140Y281860D01*
X522620Y282487D01*
X522923Y283217D01*
X523026Y284000D01*
Y313063D01*
X524617D01*
X524617Y313063D01*
Y313063D01*
X524937Y313063D01*
X524970Y313030D01*
Y283854D01*
X524504Y283496D01*
X523943Y282765D01*
X523590Y281914D01*
X523470Y281000D01*
X523590Y280086D01*
X523943Y279235D01*
X524504Y278504D01*
X525235Y277943D01*
X526086Y277590D01*
X527000Y277470D01*
X527914Y277590D01*
X528765Y277943D01*
X529496Y278504D01*
X529967Y278344D01*
Y258000D01*
X512778D01*
X512448Y258376D01*
X512530Y259000D01*
X512410Y259914D01*
X512057Y260765D01*
X511496Y261496D01*
X510765Y262057D01*
X509914Y262410D01*
X509355Y262483D01*
X509260Y262502D01*
X509309Y263000D01*
X513506D01*
Y271000D01*
X506506D01*
Y269781D01*
X506044Y269589D01*
X502587Y273047D01*
X502809Y273495D01*
X503000Y273470D01*
X503914Y273590D01*
X504765Y273943D01*
X505496Y274504D01*
X506033Y275203D01*
X506506Y275043D01*
Y272000D01*
X513506D01*
Y280000D01*
X512555D01*
Y288000D01*
X513506D01*
Y296000D01*
X506506D01*
Y288000D01*
X507457D01*
Y280000D01*
X506506D01*
Y278958D01*
X506033Y278797D01*
X505496Y279496D01*
X505250Y279685D01*
Y287775D01*
X505147Y288559D01*
X504845Y289288D01*
X504364Y289915D01*
X503737Y290396D01*
X503008Y290698D01*
X502224Y290801D01*
X498028D01*
X497245Y290698D01*
X496948Y290576D01*
X495228D01*
Y288855D01*
X495105Y288559D01*
X495002Y287775D01*
X495105Y286992D01*
X495228Y286696D01*
Y284976D01*
X496948D01*
X497245Y284853D01*
X498028Y284750D01*
X499199D01*
Y280000D01*
X492494D01*
Y272000D01*
X496424D01*
X496962Y271462D01*
X496771Y271000D01*
X492494D01*
Y269549D01*
X486494D01*
Y271000D01*
X479494D01*
Y263000D01*
X486494D01*
Y264451D01*
X492494D01*
Y263000D01*
X493445D01*
Y262006D01*
X493445Y262006D01*
X493445D01*
X493639Y261031D01*
X494191Y260204D01*
X495933Y258462D01*
X495742Y258000D01*
X415254D01*
X415250Y258061D01*
X415250D01*
X415221Y258499D01*
X415914Y258590D01*
X416765Y258943D01*
X417496Y259504D01*
X418057Y260235D01*
X418410Y261086D01*
X418519Y261914D01*
X418605Y262000D01*
X424494D01*
Y263451D01*
X429494D01*
Y262000D01*
X436494D01*
Y270000D01*
X429494D01*
Y268549D01*
X424494D01*
Y270000D01*
X417494D01*
Y268000D01*
X417198Y267802D01*
X414914Y265519D01*
X414086Y265410D01*
X413235Y265057D01*
X412504Y264496D01*
X411943Y263765D01*
X411590Y262914D01*
X411470Y262000D01*
X411590Y261086D01*
X411943Y260235D01*
X412504Y259504D01*
X413235Y258943D01*
X414086Y258590D01*
X414779Y258499D01*
X414750Y258061D01*
X414750D01*
X414746Y258000D01*
X395230D01*
Y331149D01*
X395679Y331370D01*
X396235Y330943D01*
X397086Y330590D01*
X398000Y330470D01*
X398914Y330590D01*
X399765Y330943D01*
X400496Y331504D01*
X400978Y332131D01*
X401451Y331970D01*
Y324056D01*
X399204Y321809D01*
X398652Y320982D01*
X398457Y320006D01*
Y301000D01*
X397506D01*
Y293000D01*
X404506D01*
Y301000D01*
X403555D01*
Y306962D01*
X404029Y307123D01*
X404504Y306504D01*
X405235Y305943D01*
X406086Y305590D01*
X407000Y305470D01*
X407914Y305590D01*
X408765Y305943D01*
X409496Y306504D01*
X409562Y306590D01*
X410045Y306460D01*
X410077Y306217D01*
X410291Y305701D01*
X410380Y305487D01*
X410860Y304860D01*
X415860Y299860D01*
X416487Y299379D01*
X416852Y299228D01*
X417217Y299077D01*
X417308Y299065D01*
X418000Y298974D01*
X418000Y298974D01*
X423194D01*
X423235Y298943D01*
X424086Y298590D01*
X424500Y298536D01*
Y302000D01*
X425500D01*
Y298536D01*
X425914Y298590D01*
X426765Y298943D01*
X427496Y299504D01*
X428057Y300235D01*
X428410Y301086D01*
X428523Y301949D01*
X428957Y302199D01*
X429080Y302148D01*
Y290993D01*
X429200Y290079D01*
X429463Y289444D01*
Y275000D01*
X429494Y274771D01*
Y271000D01*
X436494D01*
Y274771D01*
X436524Y275000D01*
Y285775D01*
X436528D01*
Y291375D01*
X436414D01*
X436404Y291455D01*
X436140Y292090D01*
Y312315D01*
X437324D01*
X437560Y311874D01*
X437145Y311254D01*
X436951Y310278D01*
Y305500D01*
X437145Y304524D01*
X437698Y303698D01*
X439705Y301690D01*
X439607Y301200D01*
X439263Y301057D01*
X438532Y300496D01*
X437971Y299765D01*
X437618Y298914D01*
X437563Y298500D01*
X444492D01*
X444438Y298914D01*
X444085Y299765D01*
X443903Y300003D01*
X444124Y300451D01*
X445944D01*
X447451Y298944D01*
Y283000D01*
X447451Y283000D01*
X447451D01*
X447645Y282025D01*
X448198Y281198D01*
X453451Y275944D01*
Y266427D01*
X452943Y265765D01*
X452590Y264914D01*
X452470Y264000D01*
X452590Y263086D01*
X452943Y262235D01*
X453504Y261504D01*
X454235Y260943D01*
X455086Y260590D01*
X456000Y260470D01*
X456914Y260590D01*
X457765Y260943D01*
X458496Y261504D01*
X459057Y262235D01*
X459410Y263086D01*
X459530Y264000D01*
X459410Y264914D01*
X459057Y265765D01*
X458549Y266427D01*
Y277000D01*
X458355Y277976D01*
X457802Y278802D01*
X452549Y284056D01*
Y300000D01*
X452355Y300975D01*
X451802Y301802D01*
X449093Y304512D01*
X449284Y304974D01*
X455784D01*
X455983Y304494D01*
X455147Y303853D01*
X454506Y303017D01*
X454103Y302044D01*
X453966Y301000D01*
Y289000D01*
X453966Y289000D01*
X454103Y287956D01*
X454506Y286983D01*
X455147Y286147D01*
X460965Y280329D01*
Y266000D01*
X461103Y264956D01*
X461506Y263983D01*
X462147Y263147D01*
X462983Y262506D01*
X463956Y262103D01*
X465000Y261965D01*
X466044Y262103D01*
X467017Y262506D01*
X467853Y263147D01*
X468494Y263983D01*
X468897Y264956D01*
X469034Y266000D01*
Y270543D01*
X469532Y270592D01*
X469645Y270024D01*
X470198Y269198D01*
X471025Y268645D01*
X471462Y268558D01*
X471504Y268504D01*
X472235Y267943D01*
X473086Y267590D01*
X474000Y267470D01*
X474914Y267590D01*
X475765Y267943D01*
X476496Y268504D01*
X477057Y269235D01*
X477410Y270086D01*
X477530Y271000D01*
X477410Y271914D01*
X477057Y272765D01*
X476496Y273496D01*
X475765Y274057D01*
X474914Y274410D01*
X474549Y274458D01*
Y287944D01*
X479622Y293017D01*
X480070Y292796D01*
X479965Y292000D01*
Y280000D01*
X479494D01*
Y272000D01*
X483738D01*
X484000Y271966D01*
X484262Y272000D01*
X486494D01*
Y272871D01*
X486853Y273147D01*
X487494Y273983D01*
X487897Y274956D01*
X488034Y276000D01*
Y287541D01*
X490028D01*
X491072Y287679D01*
X492045Y288082D01*
X492881Y288723D01*
X492921Y288775D01*
X493528D01*
Y289573D01*
X493925Y290531D01*
X494062Y291576D01*
X493925Y292620D01*
X493528Y293578D01*
Y294375D01*
X492921D01*
X492881Y294428D01*
X492045Y295070D01*
X491072Y295473D01*
X490028Y295610D01*
X485737D01*
X485044Y295897D01*
X484000Y296035D01*
X483204Y295930D01*
X482983Y296378D01*
X483802Y297198D01*
X484355Y298025D01*
X484549Y299000D01*
Y305071D01*
X484355Y306047D01*
X483802Y306873D01*
X477966Y312710D01*
X478157Y313172D01*
X478696D01*
X478992Y313049D01*
X479775Y312946D01*
X480559Y313049D01*
X480855Y313172D01*
X482576D01*
Y314893D01*
X482698Y315189D01*
X482801Y315972D01*
X482698Y316755D01*
X482576Y317052D01*
Y318772D01*
X481255D01*
X479026Y321001D01*
Y352747D01*
X480045Y353765D01*
X480506Y353574D01*
Y347000D01*
X487506D01*
Y347974D01*
X492506D01*
Y347000D01*
X499506D01*
Y351227D01*
X502943Y354664D01*
X503359Y354386D01*
D02*
G37*
G36*
X465500Y262031D02*
X465500D01*
X464500D01*
X464500D01*
Y266000D01*
X465500D01*
Y262031D01*
D02*
G37*
G36*
X529967Y198380D02*
X515673D01*
X515482Y198842D01*
X519802Y203162D01*
X520355Y203989D01*
X520549Y204964D01*
X520549Y204964D01*
X520549Y204964D01*
Y204964D01*
Y211944D01*
X524802Y216198D01*
X525355Y217024D01*
X525549Y218000D01*
X525549Y218000D01*
X525549Y218000D01*
Y218000D01*
Y219000D01*
X527500D01*
Y222500D01*
X524000D01*
Y223000D01*
X523500D01*
Y227000D01*
X520500D01*
Y225966D01*
X520026Y225805D01*
X519496Y226496D01*
X518765Y227057D01*
X517914Y227410D01*
X517000Y227530D01*
X516182Y227422D01*
X511549Y232056D01*
Y235000D01*
X511549Y235000D01*
Y235000D01*
X511789Y235120D01*
X511786Y235119D01*
X512028Y235192D01*
X512414Y234614D01*
X513142Y234128D01*
X514000Y233957D01*
X514858Y234128D01*
X515586Y234614D01*
X516072Y235342D01*
X516243Y236200D01*
Y236451D01*
X518944D01*
X520451Y234944D01*
Y232000D01*
X520500Y231754D01*
Y228000D01*
X527500D01*
Y236000D01*
X525549D01*
X525355Y236976D01*
X524802Y237802D01*
X522423Y240182D01*
X522530Y241000D01*
X522410Y241914D01*
X522057Y242765D01*
X521496Y243496D01*
X520765Y244057D01*
X519914Y244410D01*
X519000Y244530D01*
X518086Y244410D01*
X517235Y244057D01*
X516504Y243496D01*
X516235Y243146D01*
X515735Y243163D01*
X515586Y243386D01*
X514858Y243872D01*
X514000Y244043D01*
X513142Y243872D01*
X512414Y243386D01*
X511928Y242658D01*
X511757Y241800D01*
Y240499D01*
X511500Y240308D01*
X511243Y240499D01*
Y241800D01*
X511072Y242658D01*
X510586Y243386D01*
X509858Y243872D01*
X509000Y244043D01*
X508142Y243872D01*
X507414Y243386D01*
X507027Y242808D01*
X506549Y242953D01*
Y247000D01*
X506355Y247975D01*
X505802Y248802D01*
X502943Y251662D01*
X502910Y251914D01*
X502557Y252765D01*
X501996Y253496D01*
X501265Y254057D01*
X500414Y254410D01*
X499500Y254530D01*
X498586Y254410D01*
X497735Y254057D01*
X497004Y253496D01*
X496443Y252765D01*
X496090Y251914D01*
X495970Y251000D01*
X496090Y250086D01*
X496443Y249235D01*
X497004Y248504D01*
X497735Y247943D01*
X498586Y247590D01*
X499500Y247470D01*
X499876Y247519D01*
X501451Y245944D01*
Y243693D01*
X500973Y243548D01*
X500802Y243802D01*
X494802Y249802D01*
X493975Y250355D01*
X493000Y250549D01*
X453056D01*
X448802Y254802D01*
X447975Y255355D01*
X447234Y255502D01*
X447283Y256000D01*
X507160D01*
X507235Y255943D01*
X508086Y255590D01*
X509000Y255470D01*
X509914Y255590D01*
X510765Y255943D01*
X510840Y256000D01*
X529967D01*
Y198380D01*
D02*
G37*
G36*
X515000Y454035D02*
X509000D01*
X507956Y453897D01*
X507615Y453756D01*
X500126D01*
Y446244D01*
X504965D01*
Y436034D01*
X497000D01*
X495956Y435897D01*
X494983Y435494D01*
X494147Y434853D01*
X488671Y429377D01*
X488030Y428541D01*
X487627Y427568D01*
X487489Y426524D01*
X487489Y426524D01*
Y422275D01*
X487627Y421231D01*
X488030Y420258D01*
X488671Y419423D01*
X489507Y418782D01*
X490480Y418378D01*
X491294Y418271D01*
Y417771D01*
X490741Y417698D01*
X490444Y417576D01*
X488724D01*
Y415855D01*
X488601Y415559D01*
X488498Y414776D01*
Y372476D01*
X488601Y371693D01*
X488815Y371177D01*
X488903Y370963D01*
X489384Y370337D01*
X491583Y368137D01*
X491590Y368086D01*
X491943Y367235D01*
X492504Y366504D01*
X493235Y365943D01*
X494086Y365590D01*
X495000Y365470D01*
X495914Y365590D01*
X496765Y365943D01*
X497496Y366504D01*
X498057Y367235D01*
X498410Y368086D01*
X498530Y369000D01*
X498410Y369914D01*
X498057Y370765D01*
X497496Y371496D01*
X496765Y372057D01*
X495914Y372410D01*
X495863Y372417D01*
X494550Y373729D01*
Y411786D01*
X495055Y411853D01*
X495571Y412067D01*
X495785Y412155D01*
X496411Y412636D01*
X498636Y414860D01*
X499117Y415487D01*
X499326Y415992D01*
X499992Y416504D01*
X500553Y417235D01*
X500906Y418086D01*
X501026Y419000D01*
X500906Y419914D01*
X500553Y420765D01*
X499992Y421496D01*
X499261Y422057D01*
X498410Y422410D01*
X497496Y422530D01*
X496582Y422410D01*
X496089Y422206D01*
X495857Y422236D01*
X495558Y422436D01*
Y424853D01*
X498671Y427965D01*
X507329D01*
X510993Y424301D01*
Y422275D01*
X511131Y421231D01*
X511534Y420258D01*
X512175Y419423D01*
X513011Y418782D01*
X513984Y418378D01*
X514798Y418271D01*
Y417771D01*
X514245Y417698D01*
X513948Y417576D01*
X512228D01*
Y415855D01*
X512105Y415559D01*
X512002Y414776D01*
X512105Y413992D01*
X512228Y413696D01*
Y411975D01*
X513948D01*
X514245Y411853D01*
X515028Y411750D01*
X518776D01*
X519559Y411853D01*
X520075Y412067D01*
X520289Y412155D01*
X520915Y412636D01*
X523140Y414860D01*
X523621Y415487D01*
X523781Y415875D01*
X524057Y416235D01*
X524410Y417086D01*
X524471Y417552D01*
X524970Y417520D01*
Y385249D01*
X512272Y372551D01*
X511810Y372743D01*
Y385693D01*
X497999D01*
Y371882D01*
X510949D01*
X511141Y371420D01*
X494721Y355000D01*
X493617D01*
X493457Y355473D01*
X493496Y355504D01*
X494057Y356235D01*
X494410Y357086D01*
X494530Y358000D01*
X494410Y358914D01*
X494057Y359765D01*
X493496Y360496D01*
X492765Y361057D01*
X491914Y361410D01*
X491761Y361430D01*
X491513Y361620D01*
X490783Y361923D01*
X490000Y362026D01*
X481000D01*
X481000Y362026D01*
X480308Y361935D01*
X480217Y361923D01*
X479852Y361772D01*
X479487Y361620D01*
X478860Y361140D01*
X473860Y356140D01*
X473380Y355513D01*
X473291Y355299D01*
X473077Y354783D01*
X472974Y354000D01*
Y353685D01*
X472974D01*
X472890D01*
X472621Y353685D01*
X472620Y353685D01*
Y353685D01*
X470035D01*
Y358000D01*
X469897Y359044D01*
X469494Y360017D01*
X468853Y360853D01*
X468017Y361494D01*
X467044Y361897D01*
X466000Y362035D01*
X464956Y361897D01*
X463983Y361494D01*
X463147Y360853D01*
X462506Y360017D01*
X462103Y359044D01*
X461966Y358000D01*
Y353685D01*
X457379D01*
X457379Y353685D01*
Y353685D01*
X457110Y353685D01*
X457026Y353769D01*
Y358747D01*
X478140Y379860D01*
X478620Y380487D01*
X478709Y380701D01*
X478923Y381217D01*
X479026Y382000D01*
Y397747D01*
X481363Y400083D01*
X481414Y400090D01*
X482265Y400443D01*
X482996Y401004D01*
X483557Y401735D01*
X483910Y402586D01*
X484030Y403500D01*
X483910Y404414D01*
X483557Y405265D01*
X482996Y405996D01*
X482265Y406557D01*
X481414Y406910D01*
X480500Y407030D01*
X479586Y406910D01*
X478735Y406557D01*
X478004Y405996D01*
X477443Y405265D01*
X477090Y404414D01*
X477083Y404363D01*
X473860Y401140D01*
X473380Y400513D01*
X473291Y400299D01*
X473077Y399783D01*
X472974Y399000D01*
Y383253D01*
X451860Y362140D01*
X451379Y361513D01*
X451077Y360783D01*
X450974Y360000D01*
Y353685D01*
X450974D01*
X450890D01*
X450621Y353685D01*
X450621Y353685D01*
Y353685D01*
X446530D01*
Y357538D01*
X457496Y368504D01*
X458057Y369235D01*
X458410Y370086D01*
X458530Y371000D01*
X458530Y371000D01*
X458530Y371000D01*
Y371000D01*
Y445880D01*
X458849Y446244D01*
X459754D01*
Y453756D01*
X442006D01*
Y446244D01*
X449644D01*
X451470Y444418D01*
Y372462D01*
X440504Y361496D01*
X439943Y360765D01*
X439590Y359914D01*
X439470Y359000D01*
Y353685D01*
X435380D01*
X435379Y353685D01*
Y353685D01*
X435110Y353685D01*
X435026Y353769D01*
Y356000D01*
X434923Y356783D01*
X434709Y357299D01*
X434621Y357513D01*
X434140Y358140D01*
X425140Y367140D01*
X424513Y367620D01*
X424299Y367709D01*
X423783Y367923D01*
X423000Y368026D01*
X411806D01*
X411765Y368057D01*
X410914Y368410D01*
X410000Y368530D01*
X409086Y368410D01*
X408235Y368057D01*
X407504Y367496D01*
X406943Y366765D01*
X406590Y365914D01*
X406470Y365000D01*
X406590Y364086D01*
X405989Y363837D01*
X405783Y363923D01*
X405000Y364026D01*
X403840D01*
X403549Y364432D01*
X403588Y364547D01*
X403914Y364590D01*
X404765Y364943D01*
X405496Y365504D01*
X406057Y366235D01*
X406410Y367086D01*
X406530Y368000D01*
X406410Y368914D01*
X406057Y369765D01*
X406026Y369806D01*
Y403170D01*
X406499Y403331D01*
X406860Y402860D01*
X413073Y396648D01*
X413700Y396167D01*
X414002Y396042D01*
X414429Y395865D01*
X415213Y395761D01*
X415692D01*
X416135Y394932D01*
X416998Y393881D01*
X418050Y393018D01*
X419249Y392377D01*
X420551Y391982D01*
X421905Y391848D01*
X423258Y391982D01*
X424560Y392377D01*
X425760Y393018D01*
X426811Y393881D01*
X427674Y394932D01*
X428315Y396132D01*
X428479Y396673D01*
X428974Y396600D01*
Y385693D01*
X428810D01*
Y385693D01*
X414999D01*
Y371882D01*
X428810D01*
Y375764D01*
X429571Y375865D01*
X430087Y376078D01*
X430300Y376167D01*
X430927Y376648D01*
X434140Y379860D01*
X434621Y380487D01*
X434709Y380701D01*
X434923Y381217D01*
X435026Y382000D01*
Y406000D01*
X434923Y406783D01*
X434621Y407513D01*
X434140Y408140D01*
X433054Y409226D01*
Y417775D01*
X433528D01*
Y423376D01*
X431107D01*
X430811Y423498D01*
X430028Y423601D01*
X429245Y423498D01*
X428948Y423376D01*
X426528D01*
X426528Y423376D01*
Y423376D01*
X426481Y423373D01*
X426410Y423914D01*
X426057Y424765D01*
X425496Y425496D01*
X425656Y425965D01*
X433329D01*
X433993Y425301D01*
Y424275D01*
X434131Y423231D01*
X434534Y422258D01*
X435175Y421423D01*
X436011Y420782D01*
X436984Y420378D01*
X437798Y420271D01*
Y419771D01*
X437245Y419698D01*
X436948Y419576D01*
X435228D01*
Y417855D01*
X435105Y417559D01*
X435002Y416776D01*
X435105Y415992D01*
X435228Y415696D01*
Y413975D01*
X436948D01*
X437245Y413853D01*
X438028Y413750D01*
X443000D01*
X443783Y413853D01*
X444299Y414067D01*
X444513Y414155D01*
X445140Y414636D01*
X449140Y418636D01*
X449140Y418636D01*
X449412Y418991D01*
X449620Y419263D01*
X449923Y419992D01*
X450026Y420776D01*
X450026Y420776D01*
X450026Y420776D01*
Y420776D01*
Y421194D01*
X450057Y421235D01*
X450410Y422086D01*
X450530Y423000D01*
X450410Y423914D01*
X450057Y424765D01*
X449496Y425496D01*
X448765Y426057D01*
X447914Y426410D01*
X447000Y426530D01*
X446086Y426410D01*
X445235Y426057D01*
X444504Y425496D01*
X443943Y424765D01*
X443590Y423914D01*
X443470Y423000D01*
X443590Y422086D01*
X443719Y421774D01*
X441747Y419801D01*
X438511D01*
X438479Y420300D01*
X439072Y420378D01*
X440045Y420782D01*
X440881Y421423D01*
X441522Y422258D01*
X441925Y423231D01*
X442062Y424275D01*
Y426972D01*
X442062Y426972D01*
X441925Y428016D01*
X441522Y428990D01*
X440881Y429825D01*
X440881Y429825D01*
X437853Y432853D01*
X437017Y433494D01*
X436044Y433897D01*
X435000Y434034D01*
X435000Y434034D01*
X420671D01*
X420035Y434671D01*
Y446244D01*
X424874D01*
Y453756D01*
X417385D01*
X417044Y453897D01*
X416000Y454035D01*
X406795D01*
X406765Y454057D01*
X405914Y454410D01*
X405000Y454530D01*
X404086Y454410D01*
X403235Y454057D01*
X402504Y453496D01*
X401943Y452765D01*
X401590Y451914D01*
X401470Y451000D01*
X401590Y450086D01*
X401654Y449933D01*
X395692Y443971D01*
X395230Y444163D01*
Y477982D01*
X395715Y478104D01*
X396129Y477329D01*
X397238Y475978D01*
X398589Y474869D01*
X400131Y474045D01*
X401804Y473538D01*
X403043Y473416D01*
Y482283D01*
X403543D01*
Y482784D01*
X412411D01*
X412289Y484023D01*
X411782Y485696D01*
X410957Y487237D01*
X409848Y488589D01*
X408497Y489698D01*
X407723Y490112D01*
X407844Y490597D01*
X515000D01*
Y454035D01*
D02*
G37*
G36*
X514500Y212056D02*
X514858Y212128D01*
X515104Y212292D01*
X515451Y211944D01*
Y206020D01*
X511830Y202399D01*
X501000D01*
Y205487D01*
X501355Y206018D01*
X501549Y206994D01*
Y213047D01*
X502028Y213192D01*
X502414Y212614D01*
X503142Y212128D01*
X504000Y211957D01*
X504858Y212128D01*
X505586Y212614D01*
X505972Y213192D01*
X506451Y213047D01*
Y211427D01*
X505943Y210765D01*
X505590Y209914D01*
X505470Y209000D01*
X505590Y208086D01*
X505943Y207235D01*
X506504Y206504D01*
X507235Y205943D01*
X508086Y205590D01*
X509000Y205470D01*
X509914Y205590D01*
X510765Y205943D01*
X511496Y206504D01*
X512057Y207235D01*
X512410Y208086D01*
X512530Y209000D01*
X512410Y209914D01*
X512057Y210765D01*
X511549Y211427D01*
Y213047D01*
X512028Y213192D01*
X512414Y212614D01*
X513142Y212128D01*
X513500Y212056D01*
Y217000D01*
X514500D01*
Y212056D01*
D02*
G37*
G36*
X449451Y246944D02*
Y241506D01*
X448000D01*
Y234506D01*
X448248D01*
X448440Y234045D01*
X448198Y233802D01*
X447645Y232976D01*
X447451Y232000D01*
Y230000D01*
X446500D01*
Y222000D01*
X453500D01*
Y230000D01*
X452549D01*
Y230944D01*
X453802Y232198D01*
X454355Y233025D01*
X454549Y234000D01*
X454549Y234000D01*
X454549Y234000D01*
Y234000D01*
Y234506D01*
X456000D01*
Y241506D01*
X454549D01*
Y245451D01*
X491944D01*
X496451Y240944D01*
Y239000D01*
X496645Y238024D01*
X496757Y237857D01*
Y236200D01*
X496928Y235342D01*
X497414Y234614D01*
X498142Y234128D01*
X499000Y233957D01*
X499858Y234128D01*
X500586Y234614D01*
X501072Y235342D01*
X501243Y236200D01*
Y237501D01*
X501500Y237692D01*
X501757Y237501D01*
Y236200D01*
X501928Y235342D01*
X502414Y234614D01*
X503142Y234128D01*
X503773Y234002D01*
X503919Y233524D01*
X497198Y226802D01*
X496645Y225975D01*
X496451Y225000D01*
Y219030D01*
X495977Y218869D01*
X495496Y219496D01*
X494765Y220057D01*
X493914Y220410D01*
X493500Y220464D01*
Y217000D01*
Y213536D01*
X493914Y213590D01*
X494765Y213943D01*
X495496Y214504D01*
X495977Y215131D01*
X496451Y214970D01*
Y208494D01*
X493000D01*
Y202399D01*
X492000D01*
Y204494D01*
X484000D01*
Y201494D01*
X485451D01*
Y199850D01*
X485645Y198875D01*
X485681Y198821D01*
X485446Y198380D01*
X449035D01*
X448843Y198842D01*
X464529Y214528D01*
X465066D01*
X465399Y214462D01*
X465634Y214021D01*
X465590Y213914D01*
X465536Y213500D01*
X469000D01*
Y213000D01*
X469500D01*
Y209536D01*
X469914Y209590D01*
X470765Y209943D01*
X471496Y210504D01*
X472057Y211235D01*
X472374Y212000D01*
X472500D01*
Y212000D01*
X475500D01*
Y216000D01*
Y220000D01*
X472500D01*
Y219549D01*
X467225D01*
Y221528D01*
X464924D01*
Y218028D01*
X463925D01*
Y221528D01*
X461624D01*
Y219549D01*
X453500D01*
Y221000D01*
X450500D01*
Y217000D01*
Y213000D01*
X453500D01*
Y214451D01*
X456590D01*
X456781Y213989D01*
X445191Y202399D01*
X424000D01*
Y202494D01*
X424000D01*
Y207746D01*
X424499Y207779D01*
X424590Y207086D01*
X424943Y206235D01*
X425504Y205504D01*
X426235Y204943D01*
X427086Y204590D01*
X428000Y204470D01*
X428914Y204590D01*
X429765Y204943D01*
X430496Y205504D01*
X431057Y206235D01*
X431410Y207086D01*
X431530Y208000D01*
X431410Y208914D01*
X431057Y209765D01*
X430549Y210427D01*
Y213047D01*
X431028Y213192D01*
X431414Y212614D01*
X432142Y212128D01*
X432500Y212056D01*
Y217000D01*
Y221944D01*
X432142Y221872D01*
X431414Y221386D01*
X430928Y220658D01*
X430757Y219800D01*
Y218499D01*
X430500Y218308D01*
X430243Y218499D01*
Y219800D01*
X430072Y220658D01*
X429586Y221386D01*
X428858Y221872D01*
X428415Y221961D01*
X428341Y222017D01*
X428130Y222411D01*
X428410Y223086D01*
X428530Y224000D01*
X428410Y224914D01*
X428057Y225765D01*
X427496Y226496D01*
X426765Y227057D01*
X426300Y227250D01*
Y227750D01*
X426765Y227943D01*
X427496Y228504D01*
X428057Y229235D01*
X428410Y230086D01*
X428530Y231000D01*
X428422Y231818D01*
X429802Y233198D01*
X430355Y234025D01*
X430549Y235000D01*
Y235000D01*
X430549Y235000D01*
X430789Y235120D01*
X430786Y235119D01*
X431028Y235192D01*
X431414Y234614D01*
X432142Y234128D01*
X433000Y233957D01*
X433858Y234128D01*
X434493Y234552D01*
X435000Y234451D01*
X437000D01*
X437114Y234474D01*
X437500Y234156D01*
Y233000D01*
X444500D01*
Y241000D01*
X440410D01*
X440132Y241416D01*
X440410Y242086D01*
X440530Y243000D01*
X440410Y243914D01*
X440057Y244765D01*
X439496Y245496D01*
X438765Y246057D01*
X437914Y246410D01*
X437000Y246530D01*
X436086Y246410D01*
X435235Y246057D01*
X434504Y245496D01*
X433943Y244765D01*
X433595Y243925D01*
X433000Y244043D01*
X432142Y243872D01*
X431414Y243386D01*
X430928Y242658D01*
X430757Y241800D01*
Y240499D01*
X430500Y240308D01*
X430243Y240499D01*
Y241800D01*
X430072Y242658D01*
X429586Y243386D01*
X428858Y243872D01*
X428000Y244043D01*
X427450Y243934D01*
X427313Y244039D01*
X427089Y244311D01*
X427410Y245086D01*
X427530Y246000D01*
X427410Y246914D01*
X427057Y247765D01*
X426496Y248496D01*
X425765Y249057D01*
X424914Y249410D01*
X424000Y249530D01*
X423775Y249501D01*
X423554Y249949D01*
X424056Y250451D01*
X445944D01*
X449451Y246944D01*
D02*
G37*
G36*
X422766Y255502D02*
X422024Y255355D01*
X421198Y254802D01*
X416944Y250549D01*
X405000D01*
X404025Y250355D01*
X403650Y250105D01*
X402914Y250410D01*
X402000Y250530D01*
X401086Y250410D01*
X400235Y250057D01*
X399504Y249496D01*
X398943Y248765D01*
X398590Y247914D01*
X398470Y247000D01*
X398590Y246086D01*
X398895Y245350D01*
X398645Y244975D01*
X398451Y244000D01*
Y237000D01*
X397500D01*
Y229000D01*
X404500D01*
Y237000D01*
X403549D01*
Y242944D01*
X406056Y245451D01*
X415451D01*
Y239000D01*
X415645Y238024D01*
X415757Y237857D01*
Y236200D01*
X415928Y235342D01*
X416414Y234614D01*
X417142Y234128D01*
X418000Y233957D01*
X418858Y234128D01*
X419586Y234614D01*
X420072Y235342D01*
X420243Y236200D01*
Y237501D01*
X420500Y237692D01*
X420757Y237501D01*
Y236200D01*
X420928Y235342D01*
X421414Y234614D01*
X422142Y234128D01*
X422489Y234059D01*
X422602Y233572D01*
X422504Y233496D01*
X421943Y232765D01*
X421789Y232394D01*
X416198Y226802D01*
X415645Y225975D01*
X415451Y225000D01*
Y217000D01*
Y209494D01*
X415000D01*
Y209494D01*
X411500D01*
Y205994D01*
X410500D01*
Y209494D01*
X407000D01*
Y209258D01*
X406538Y209067D01*
X403549Y212056D01*
Y213573D01*
X404057Y214235D01*
X404410Y215086D01*
X404464Y215500D01*
X397536D01*
X397590Y215086D01*
X397943Y214235D01*
X398451Y213573D01*
Y211000D01*
X398451Y211000D01*
X398451D01*
X398645Y210024D01*
X399198Y209198D01*
X404204Y204191D01*
X405031Y203639D01*
X406006Y203445D01*
X407000D01*
Y202494D01*
X408451D01*
Y201850D01*
X408451Y201850D01*
X408451D01*
X408645Y200875D01*
X409198Y200048D01*
X410404Y198842D01*
X410213Y198380D01*
X395230D01*
Y256000D01*
X422717D01*
X422766Y255502D01*
D02*
G37*
G36*
X428974Y354747D02*
Y337000D01*
X429077Y336217D01*
X429291Y335701D01*
X429380Y335487D01*
X429860Y334860D01*
X433821Y330900D01*
X433600Y330451D01*
X433000Y330530D01*
X432086Y330410D01*
X431235Y330057D01*
X430504Y329496D01*
X430114Y329106D01*
X429553Y328375D01*
X429200Y327524D01*
X429080Y326610D01*
Y318772D01*
X428190D01*
X427893Y318895D01*
X427775Y318911D01*
Y315972D01*
X426776D01*
Y318954D01*
X426327Y318895D01*
X426031Y318772D01*
X424776D01*
Y317858D01*
X424490Y317485D01*
X424187Y316755D01*
X424084Y315972D01*
Y306364D01*
X422747Y305026D01*
X420451D01*
X420418Y305525D01*
X420914Y305590D01*
X421765Y305943D01*
X422496Y306504D01*
X423057Y307235D01*
X423410Y308086D01*
X423530Y309000D01*
X423410Y309914D01*
X423057Y310765D01*
X422801Y311099D01*
Y315972D01*
X422698Y316755D01*
X422576Y317052D01*
Y318772D01*
X420855D01*
X420559Y318895D01*
X419775Y318998D01*
X418992Y318895D01*
X418696Y318772D01*
X416975D01*
Y317052D01*
X416853Y316755D01*
X416750Y315972D01*
Y310299D01*
X416590Y309914D01*
X416525Y309418D01*
X416026Y309451D01*
Y314697D01*
X415924Y315472D01*
X413275D01*
Y315972D01*
X412776D01*
Y318772D01*
X410776D01*
Y316726D01*
X410380Y316210D01*
X410287Y315986D01*
X409791Y316051D01*
X409698Y316755D01*
X409396Y317485D01*
X408915Y318112D01*
X408575Y318372D01*
Y318772D01*
X407855D01*
X407559Y318895D01*
X406776Y318998D01*
X405992Y318895D01*
X405696Y318772D01*
X404030D01*
X403839Y319234D01*
X405802Y321198D01*
X406297Y321938D01*
X406776Y321793D01*
Y320472D01*
X412375D01*
Y322563D01*
X412627Y322890D01*
X412929Y323620D01*
X413032Y324403D01*
Y329194D01*
X413064Y329235D01*
X413416Y330086D01*
X413537Y331000D01*
X413416Y331914D01*
X413064Y332765D01*
X413032Y332806D01*
Y337000D01*
X414506D01*
Y345000D01*
X409522D01*
X409331Y345462D01*
X409869Y346000D01*
X414506D01*
Y346974D01*
X420506D01*
Y346000D01*
X427506D01*
Y354000D01*
X420506D01*
Y353026D01*
X414506D01*
Y354000D01*
X414032D01*
Y354994D01*
X413929Y355777D01*
X413627Y356507D01*
X413146Y357133D01*
X409179Y361100D01*
X409400Y361549D01*
X410000Y361470D01*
X410914Y361590D01*
X411765Y361943D01*
X411806Y361974D01*
X421747D01*
X428974Y354747D01*
D02*
G37*
%LPC*%
G36*
X637000Y422530D02*
X636086Y422410D01*
X635235Y422057D01*
X634504Y421496D01*
X633943Y420765D01*
X633590Y419914D01*
X633470Y419000D01*
Y412756D01*
X628126D01*
Y405244D01*
X633470D01*
Y395462D01*
X624504Y386496D01*
X623943Y385765D01*
X623590Y384914D01*
X623470Y384000D01*
Y341600D01*
X623470Y341600D01*
X623470D01*
X623590Y340686D01*
X623943Y339835D01*
X624504Y339104D01*
X638500Y325108D01*
Y319000D01*
X644700D01*
D01*
X644700D01*
X644770Y318930D01*
Y314449D01*
X637157D01*
Y313530D01*
X634000D01*
X633086Y313410D01*
X632235Y313057D01*
X631504Y312496D01*
X630943Y311765D01*
X630590Y310914D01*
X630470Y310000D01*
X630590Y309086D01*
X630943Y308235D01*
X631504Y307504D01*
X632235Y306943D01*
X633086Y306590D01*
X634000Y306470D01*
X637157D01*
Y292764D01*
X658170D01*
Y269556D01*
X653850Y265236D01*
X637157D01*
Y248544D01*
X627504Y238890D01*
X626943Y238159D01*
X626590Y237307D01*
X626470Y236394D01*
Y223756D01*
X621126D01*
Y216244D01*
X626470D01*
Y213000D01*
X626590Y212086D01*
X626943Y211235D01*
X627504Y210504D01*
X633504Y204504D01*
X633504Y204504D01*
X633504D01*
X633504Y204504D01*
X633504D01*
X633504Y204504D01*
Y204504D01*
Y204504D01*
D01*
D01*
X633504D01*
Y204504D01*
X634235Y203943D01*
X635086Y203590D01*
X636000Y203470D01*
X671994D01*
X672907Y203590D01*
X673759Y203943D01*
X674490Y204504D01*
X681986Y212000D01*
X684494D01*
Y215771D01*
X684524Y216000D01*
X684494Y216229D01*
Y220000D01*
X677494D01*
Y217493D01*
X670531Y210530D01*
X637462D01*
X633530Y214462D01*
Y216244D01*
X638874D01*
Y223756D01*
X633530D01*
Y232540D01*
X633914Y232590D01*
X634765Y232943D01*
X635496Y233504D01*
X636057Y234235D01*
X636410Y235086D01*
X636530Y236000D01*
X636410Y236914D01*
X636147Y237548D01*
X642150Y243551D01*
X658843D01*
Y260244D01*
X663904Y265305D01*
X664365Y265113D01*
Y239447D01*
X664086Y239410D01*
X663235Y239057D01*
X662504Y238496D01*
X661943Y237765D01*
X661590Y236914D01*
X661536Y236500D01*
X665000D01*
Y235500D01*
X661536D01*
X661590Y235086D01*
X661943Y234235D01*
X662504Y233504D01*
X663235Y232943D01*
X664086Y232590D01*
X664365Y232553D01*
Y225191D01*
X662930Y223756D01*
X656006D01*
Y220500D01*
X673754D01*
Y223756D01*
X672435D01*
Y260115D01*
X675056D01*
X675095Y260064D01*
X675715Y259588D01*
X676438Y259289D01*
X677213Y259187D01*
X680650D01*
Y264150D01*
Y269112D01*
X677213D01*
X676438Y269010D01*
X675715Y268711D01*
X675095Y268235D01*
X675056Y268184D01*
X672435D01*
Y306806D01*
X672765Y306943D01*
X673496Y307504D01*
X674057Y308235D01*
X674410Y309086D01*
X674464Y309500D01*
X671000D01*
Y310500D01*
X674464D01*
X674410Y310914D01*
X674057Y311765D01*
X673496Y312496D01*
X672765Y313057D01*
X672435Y313194D01*
Y327000D01*
Y345500D01*
X677000D01*
Y363500D01*
X633000D01*
Y345500D01*
X650965D01*
Y335000D01*
X645200D01*
Y329031D01*
X644950Y328826D01*
X644700Y329031D01*
Y335000D01*
X638592D01*
X630530Y343062D01*
Y382538D01*
X639496Y391504D01*
X640057Y392235D01*
X640410Y393086D01*
X640530Y394000D01*
X640530Y394000D01*
Y405244D01*
X645874D01*
Y412756D01*
X640530D01*
Y419000D01*
X640410Y419914D01*
X640057Y420765D01*
X639496Y421496D01*
X638765Y422057D01*
X637914Y422410D01*
X637000Y422530D01*
D02*
G37*
G36*
X404506Y292000D02*
X397506D01*
Y284000D01*
X401852D01*
X402000Y283980D01*
X409000D01*
Y283506D01*
X417000D01*
Y290506D01*
X409000D01*
Y290032D01*
X404506D01*
Y292000D01*
D02*
G37*
G36*
X441224Y289276D02*
X440831D01*
X441028Y289250D01*
X441224Y289276D01*
D02*
G37*
G36*
X440528Y291775D02*
X438068D01*
X438105Y291492D01*
X438228Y291196D01*
Y289775D01*
X439358D01*
X439515Y289655D01*
X440245Y289353D01*
X440528Y289315D01*
Y291775D01*
D02*
G37*
G36*
X555081Y265650D02*
X548650D01*
Y261187D01*
X552087D01*
X552862Y261289D01*
X553584Y261588D01*
X554204Y262064D01*
X554680Y262684D01*
X554979Y263406D01*
X555081Y264181D01*
Y265650D01*
D02*
G37*
G36*
X426000Y290506D02*
X418000D01*
Y286245D01*
X417968Y286000D01*
Y279000D01*
X417494D01*
Y271000D01*
X424494D01*
Y279000D01*
X424019D01*
Y283506D01*
X426000D01*
Y290506D01*
D02*
G37*
G36*
X443828Y287576D02*
X438228D01*
Y281976D01*
X438451D01*
Y279428D01*
X437943Y278765D01*
X437590Y277914D01*
X437470Y277000D01*
X437590Y276086D01*
X437943Y275235D01*
X438504Y274504D01*
X439235Y273943D01*
X440086Y273590D01*
X441000Y273470D01*
X441914Y273590D01*
X442765Y273943D01*
X443496Y274504D01*
X444057Y275235D01*
X444410Y276086D01*
X444530Y277000D01*
X444410Y277914D01*
X444057Y278765D01*
X443549Y279428D01*
Y281976D01*
X443828D01*
Y287576D01*
D02*
G37*
G36*
X673754Y219500D02*
X665380D01*
Y216031D01*
X665925Y216103D01*
X666265Y216244D01*
X673754D01*
Y219500D01*
D02*
G37*
G36*
X404500Y223500D02*
X397500D01*
Y220000D01*
X398451D01*
Y218427D01*
X397943Y217765D01*
X397590Y216914D01*
X397536Y216500D01*
X404464D01*
X404410Y216914D01*
X404057Y217765D01*
X403549Y218427D01*
Y220000D01*
X404500D01*
Y223500D01*
D02*
G37*
G36*
X491506Y221000D02*
X488506D01*
Y217000D01*
X487506D01*
Y221000D01*
X484506D01*
Y219549D01*
X479500D01*
Y220000D01*
X476500D01*
Y216000D01*
Y212000D01*
X479500D01*
Y214451D01*
X484506D01*
Y213000D01*
X485464D01*
Y208494D01*
X484000D01*
Y205494D01*
X492000D01*
Y208494D01*
X490562D01*
Y213000D01*
X491506D01*
Y213380D01*
X491922Y213658D01*
X492086Y213590D01*
X492500Y213536D01*
Y217000D01*
Y220464D01*
X492086Y220410D01*
X491922Y220342D01*
X491506Y220620D01*
Y221000D01*
D02*
G37*
G36*
X664380Y219500D02*
X656006D01*
Y216244D01*
X663495D01*
X663836Y216103D01*
X664380Y216031D01*
Y219500D01*
D02*
G37*
G36*
X468500Y212500D02*
X465536D01*
X465590Y212086D01*
X465943Y211235D01*
X466504Y210504D01*
X467235Y209943D01*
X468086Y209590D01*
X468500Y209536D01*
Y212500D01*
D02*
G37*
G36*
X600380Y219500D02*
X592006D01*
Y216244D01*
X599495D01*
X599836Y216103D01*
X600380Y216031D01*
Y219500D01*
D02*
G37*
G36*
X609754D02*
X601380D01*
Y216031D01*
X601925Y216103D01*
X602265Y216244D01*
X609754D01*
Y219500D01*
D02*
G37*
G36*
X440500Y232000D02*
X437500D01*
Y228500D01*
X440500D01*
Y232000D01*
D02*
G37*
G36*
X444500D02*
X441500D01*
Y228500D01*
X444500D01*
Y232000D01*
D02*
G37*
G36*
X489000Y241506D02*
X481000D01*
Y234506D01*
X482451D01*
Y229006D01*
X482451Y229006D01*
X482451D01*
X482465Y228936D01*
X482148Y228549D01*
X479500D01*
Y229000D01*
X479410D01*
X479132Y229416D01*
X479410Y230086D01*
X479530Y231000D01*
X479410Y231914D01*
X479057Y232765D01*
X478496Y233496D01*
X477797Y234033D01*
X477957Y234506D01*
X480000D01*
Y241506D01*
X472000D01*
Y240555D01*
X465000D01*
Y241506D01*
X457000D01*
Y234506D01*
X458176D01*
Y226028D01*
X458224Y225782D01*
Y223228D01*
X463225D01*
Y223479D01*
X465424D01*
Y223228D01*
X471025D01*
Y228828D01*
X465424D01*
Y228577D01*
X463273D01*
Y234506D01*
X465000D01*
Y235457D01*
X472000D01*
Y234506D01*
X474043D01*
X474203Y234033D01*
X473504Y233496D01*
X472943Y232765D01*
X472590Y231914D01*
X472470Y231000D01*
X472590Y230086D01*
X472868Y229416D01*
X472590Y229000D01*
X472500D01*
Y221000D01*
X479500D01*
Y223451D01*
X484506D01*
Y222000D01*
X491506D01*
Y230000D01*
X487611D01*
X487549Y230062D01*
Y234506D01*
X489000D01*
Y241506D01*
D02*
G37*
G36*
X404500Y228000D02*
X401500D01*
Y224500D01*
X404500D01*
Y228000D01*
D02*
G37*
G36*
X444500Y227500D02*
X437500D01*
Y224000D01*
X438451D01*
Y219549D01*
X435243D01*
Y219800D01*
X435072Y220658D01*
X434586Y221386D01*
X433858Y221872D01*
X433500Y221944D01*
Y217000D01*
Y212056D01*
X433858Y212128D01*
X434586Y212614D01*
X435072Y213342D01*
X435243Y214200D01*
Y214451D01*
X446500D01*
Y213000D01*
X449500D01*
Y217000D01*
Y221000D01*
X446500D01*
Y219549D01*
X443549D01*
Y224000D01*
X444500D01*
Y227500D01*
D02*
G37*
G36*
X527500Y227000D02*
X524500D01*
Y223500D01*
X527500D01*
Y227000D01*
D02*
G37*
G36*
X400500Y228000D02*
X397500D01*
Y224500D01*
X400500D01*
Y228000D01*
D02*
G37*
G36*
X665118Y471405D02*
X651307D01*
Y464999D01*
X654178D01*
Y463884D01*
X650329Y460035D01*
X614000D01*
X612956Y459897D01*
X611983Y459494D01*
X611147Y458853D01*
X605297Y453003D01*
X604656Y452167D01*
X604253Y451194D01*
X604115Y450150D01*
X604115Y450149D01*
Y445944D01*
X604064Y445905D01*
X603588Y445285D01*
X603289Y444562D01*
X603187Y443787D01*
Y440350D01*
X613112D01*
Y443787D01*
X613010Y444562D01*
X612711Y445285D01*
X612235Y445905D01*
X612184Y445944D01*
Y448478D01*
X615671Y451966D01*
X652000D01*
X652000Y451966D01*
X653044Y452103D01*
X653762Y452400D01*
X654178Y452123D01*
Y431787D01*
X654178Y431787D01*
X654316Y430743D01*
X654719Y429770D01*
X655360Y428935D01*
X667846Y416448D01*
Y412756D01*
X663006D01*
Y409500D01*
X680754D01*
Y412756D01*
X675915D01*
Y418120D01*
X675915Y418120D01*
X675915Y418120D01*
Y418120D01*
X675915D01*
X675915Y418120D01*
X675777Y419164D01*
X675610Y419567D01*
X675374Y420137D01*
X674733Y420972D01*
X674733Y420972D01*
X662247Y433459D01*
Y462213D01*
Y464999D01*
X665118D01*
Y471405D01*
D02*
G37*
G36*
X483524Y421601D02*
X482741Y421498D01*
X482444Y421376D01*
X480024D01*
Y417179D01*
X479731Y417057D01*
X479000Y416496D01*
X478439Y415765D01*
X478086Y414914D01*
X477966Y414000D01*
X478086Y413086D01*
X478439Y412235D01*
X479000Y411504D01*
X479731Y410943D01*
X480582Y410590D01*
X481496Y410470D01*
X482410Y410590D01*
X483261Y410943D01*
X483334Y410999D01*
X483524Y410974D01*
X484307Y411077D01*
X485037Y411379D01*
X485664Y411860D01*
X486144Y412487D01*
X486447Y413217D01*
X486550Y414000D01*
Y415775D01*
X487024D01*
Y421376D01*
X484604D01*
X484307Y421498D01*
X483524Y421601D01*
D02*
G37*
G36*
X474120Y454035D02*
X473075Y453897D01*
X472735Y453756D01*
X465246D01*
Y446244D01*
X470085D01*
Y426120D01*
X470223Y425075D01*
X470626Y424102D01*
X471267Y423267D01*
X472102Y422626D01*
X473075Y422223D01*
X474120Y422085D01*
X475164Y422223D01*
X476137Y422626D01*
X476972Y423267D01*
X477614Y424102D01*
X478017Y425075D01*
X478154Y426120D01*
Y446244D01*
X482994D01*
Y453756D01*
X475505D01*
X475164Y453897D01*
X474120Y454035D01*
D02*
G37*
G36*
X680754Y408500D02*
X663006D01*
Y405244D01*
X667846D01*
Y382552D01*
X667794Y382500D01*
X655500D01*
Y364500D01*
X677000D01*
Y382500D01*
X675915D01*
Y405244D01*
X680754D01*
Y408500D01*
D02*
G37*
G36*
X507028Y422106D02*
X506114Y421985D01*
X505263Y421633D01*
X504927Y421376D01*
X503528D01*
Y418805D01*
X503498Y418575D01*
Y417166D01*
X503235Y417057D01*
X502504Y416496D01*
X501943Y415765D01*
X501590Y414914D01*
X501470Y414000D01*
X501590Y413086D01*
X501943Y412235D01*
X502504Y411504D01*
X503235Y410943D01*
X503498Y410834D01*
Y405577D01*
X502249Y405198D01*
X501050Y404557D01*
X499998Y403694D01*
X499135Y402642D01*
X498494Y401443D01*
X498099Y400141D01*
X497966Y398787D01*
X498099Y397434D01*
X498494Y396132D01*
X499135Y394932D01*
X499998Y393881D01*
X501050Y393018D01*
X502249Y392377D01*
X503551Y391982D01*
X504905Y391848D01*
X506258Y391982D01*
X507560Y392377D01*
X508760Y393018D01*
X509811Y393881D01*
X510674Y394932D01*
X511315Y396132D01*
X511710Y397434D01*
X511844Y398787D01*
X511710Y400141D01*
X511315Y401443D01*
X510674Y402642D01*
X510558Y402784D01*
Y418575D01*
X510528Y418805D01*
Y421376D01*
X509128D01*
X508793Y421633D01*
X507941Y421985D01*
X507028Y422106D01*
D02*
G37*
G36*
X613112Y439350D02*
X603187D01*
Y435913D01*
X603289Y435138D01*
X603588Y434416D01*
X604064Y433796D01*
X604115Y433757D01*
Y418500D01*
X608000D01*
Y417500D01*
X604115D01*
Y411236D01*
X598841D01*
Y407980D01*
X616589D01*
Y411236D01*
X612184D01*
Y433757D01*
X612235Y433796D01*
X612711Y434416D01*
X613010Y435138D01*
X613112Y435913D01*
Y439350D01*
D02*
G37*
G36*
X596945Y446756D02*
X587071D01*
Y443032D01*
X567000D01*
Y443506D01*
X559000D01*
Y436506D01*
X567000D01*
Y436980D01*
X587071D01*
Y432945D01*
X596945D01*
Y446756D01*
D02*
G37*
G36*
X678634Y481783D02*
X670266D01*
X670388Y480544D01*
X670896Y478871D01*
X671720Y477329D01*
X672829Y475978D01*
X674180Y474869D01*
X675722Y474045D01*
X677394Y473538D01*
X678634Y473416D01*
Y481783D01*
D02*
G37*
G36*
X553677Y479480D02*
X552109Y479325D01*
X550601Y478868D01*
X549211Y478125D01*
X547993Y477125D01*
X546993Y475907D01*
X546590Y475153D01*
X538764D01*
X538361Y475907D01*
X537361Y477125D01*
X536143Y478125D01*
X534753Y478868D01*
X533245Y479325D01*
X531677Y479480D01*
X530109Y479325D01*
X528601Y478868D01*
X527211Y478125D01*
X525993Y477125D01*
X524993Y475907D01*
X524250Y474517D01*
X523793Y473009D01*
X523638Y471441D01*
X523793Y469873D01*
X524250Y468365D01*
X524993Y466975D01*
X525993Y465757D01*
X527211Y464757D01*
X528601Y464014D01*
X530109Y463557D01*
X531677Y463402D01*
X533245Y463557D01*
X534753Y464014D01*
X536143Y464757D01*
X537361Y465757D01*
X538361Y466975D01*
X538419Y467084D01*
X546935D01*
X546993Y466975D01*
X547993Y465757D01*
X549211Y464757D01*
X549965Y464354D01*
Y453000D01*
Y440006D01*
Y429000D01*
X549965Y429000D01*
X550103Y427956D01*
X550506Y426983D01*
X551147Y426147D01*
X551966Y425329D01*
Y351745D01*
X551517Y351524D01*
X550490Y352312D01*
X549289Y352810D01*
X548500Y352914D01*
Y348000D01*
X548000D01*
Y347500D01*
X543086D01*
X543190Y346711D01*
X543687Y345510D01*
X544479Y344479D01*
X545510Y343688D01*
X546566Y343250D01*
Y342750D01*
X545510Y342313D01*
X544479Y341521D01*
X543687Y340490D01*
X543190Y339289D01*
X543020Y338000D01*
X543190Y336711D01*
X543687Y335510D01*
X544479Y334479D01*
X545510Y333687D01*
X546566Y333250D01*
Y332750D01*
X545510Y332312D01*
X544479Y331521D01*
X543687Y330490D01*
X543190Y329289D01*
X543020Y328000D01*
X543190Y326711D01*
X543687Y325510D01*
X544479Y324479D01*
X545510Y323688D01*
X546138Y323427D01*
X546041Y322937D01*
X543063D01*
Y313063D01*
X552937D01*
Y313966D01*
X554000D01*
X554000Y313966D01*
X555044Y314103D01*
X556017Y314506D01*
X556853Y315147D01*
X558853Y317147D01*
X558853Y317147D01*
X559494Y317983D01*
X559897Y318956D01*
X560035Y320000D01*
X560035Y320000D01*
Y340084D01*
X560533Y340117D01*
X560590Y339686D01*
X560943Y338835D01*
X561504Y338104D01*
X574500Y325108D01*
Y319000D01*
X580700D01*
D01*
X580700D01*
X580770Y318930D01*
Y314449D01*
X573158D01*
Y313530D01*
X566000D01*
X565086Y313410D01*
X564235Y313057D01*
X563504Y312496D01*
X562943Y311765D01*
X562590Y310914D01*
X562470Y310000D01*
X562590Y309086D01*
X562943Y308235D01*
X563504Y307504D01*
X564235Y306943D01*
X565086Y306590D01*
X566000Y306470D01*
X573158D01*
Y292764D01*
X594170D01*
Y269556D01*
X589850Y265236D01*
X573158D01*
Y248544D01*
X563504Y238890D01*
X562943Y238159D01*
X562590Y237307D01*
X562470Y236394D01*
Y223756D01*
X557126D01*
Y223530D01*
X551494D01*
Y224000D01*
X544494D01*
Y220229D01*
X544463Y220000D01*
X544494Y219771D01*
Y216000D01*
X551494D01*
Y216470D01*
X557126D01*
Y216244D01*
X574874D01*
Y223756D01*
X569530D01*
Y232540D01*
X569914Y232590D01*
X570765Y232943D01*
X571496Y233504D01*
X572057Y234235D01*
X572410Y235086D01*
X572530Y236000D01*
X572410Y236914D01*
X572147Y237548D01*
X578150Y243551D01*
X594842D01*
Y260244D01*
X599903Y265305D01*
X600365Y265113D01*
Y239111D01*
X600235Y239057D01*
X599504Y238496D01*
X598943Y237765D01*
X598590Y236914D01*
X598536Y236500D01*
X602000D01*
Y235500D01*
X598536D01*
X598590Y235086D01*
X598943Y234235D01*
X599504Y233504D01*
X600235Y232943D01*
X600365Y232889D01*
Y225191D01*
X598931Y223756D01*
X592006D01*
Y220500D01*
X609754D01*
Y223756D01*
X608434D01*
Y306456D01*
X608496Y306504D01*
X609057Y307235D01*
X609410Y308086D01*
X609464Y308500D01*
X606000D01*
Y309500D01*
X609464D01*
X609410Y309914D01*
X609057Y310765D01*
X608496Y311496D01*
X608434Y311544D01*
Y327000D01*
Y345500D01*
X613000D01*
Y363500D01*
X569000D01*
Y345500D01*
X586966D01*
Y335000D01*
X581200D01*
Y329031D01*
X580950Y328826D01*
X580700Y329031D01*
Y335000D01*
X574592D01*
X567530Y342062D01*
Y385538D01*
X575331Y393338D01*
X575892Y394070D01*
X576245Y394921D01*
X576365Y395835D01*
Y403724D01*
X581709D01*
Y411236D01*
X574530D01*
Y418000D01*
X574410Y418914D01*
X574057Y419765D01*
X573496Y420496D01*
X572765Y421057D01*
X571914Y421410D01*
X571000Y421530D01*
X570086Y421410D01*
X569235Y421057D01*
X568504Y420496D01*
X567943Y419765D01*
X567590Y418914D01*
X567470Y418000D01*
Y411236D01*
X563961D01*
Y403724D01*
X569304D01*
Y397297D01*
X561504Y389496D01*
X560943Y388765D01*
X560590Y387914D01*
X560533Y387484D01*
X560035Y387516D01*
Y427000D01*
X560035Y427000D01*
X559897Y428044D01*
X559494Y429017D01*
X558853Y429853D01*
X558853Y429853D01*
X558035Y430671D01*
Y440006D01*
Y453000D01*
Y464699D01*
X558143Y464757D01*
X559361Y465757D01*
X560361Y466975D01*
X561104Y468365D01*
X561561Y469873D01*
X561716Y471441D01*
X561561Y473009D01*
X561104Y474517D01*
X560361Y475907D01*
X559361Y477125D01*
X558143Y478125D01*
X556753Y478868D01*
X555245Y479325D01*
X553677Y479480D01*
D02*
G37*
G36*
X611677D02*
X610109Y479325D01*
X608601Y478868D01*
X607211Y478125D01*
X605993Y477125D01*
X605020Y475939D01*
X596335D01*
X595361Y477125D01*
X594143Y478125D01*
X592753Y478868D01*
X591245Y479325D01*
X589677Y479480D01*
X588109Y479325D01*
X586601Y478868D01*
X585211Y478125D01*
X583993Y477125D01*
X582993Y475907D01*
X582250Y474517D01*
X581793Y473009D01*
X581638Y471441D01*
X581793Y469873D01*
X582250Y468365D01*
X582993Y466975D01*
X583993Y465757D01*
X585211Y464757D01*
X586601Y464014D01*
X588109Y463557D01*
X589677Y463402D01*
X591245Y463557D01*
X592753Y464014D01*
X594143Y464757D01*
X595361Y465757D01*
X596361Y466975D01*
X596840Y467870D01*
X604515D01*
X604993Y466975D01*
X605993Y465757D01*
X607211Y464757D01*
X608601Y464014D01*
X610109Y463557D01*
X611677Y463402D01*
X613245Y463557D01*
X614753Y464014D01*
X616143Y464757D01*
X617361Y465757D01*
X618361Y466975D01*
X618840Y467870D01*
X632590D01*
X633306Y466998D01*
X634358Y466135D01*
X635557Y465494D01*
X636859Y465099D01*
X638213Y464966D01*
X639566Y465099D01*
X640868Y465494D01*
X642068Y466135D01*
X643119Y466998D01*
X643982Y468050D01*
X644623Y469249D01*
X645018Y470551D01*
X645152Y471905D01*
X645018Y473258D01*
X644623Y474560D01*
X643982Y475760D01*
X643119Y476811D01*
X642068Y477674D01*
X640868Y478315D01*
X639566Y478710D01*
X638213Y478844D01*
X636859Y478710D01*
X635557Y478315D01*
X634358Y477674D01*
X633306Y476811D01*
X632590Y475939D01*
X618335D01*
X617361Y477125D01*
X616143Y478125D01*
X614753Y478868D01*
X613245Y479325D01*
X611677Y479480D01*
D02*
G37*
G36*
X657713Y478810D02*
X651307D01*
Y472405D01*
X657713D01*
Y478810D01*
D02*
G37*
G36*
X665118D02*
X658713D01*
Y472405D01*
X665118D01*
Y478810D01*
D02*
G37*
G36*
X412411Y481783D02*
X404043D01*
Y473416D01*
X405283Y473538D01*
X406956Y474045D01*
X408497Y474869D01*
X409848Y475978D01*
X410957Y477329D01*
X411782Y478871D01*
X412289Y480544D01*
X412411Y481783D01*
D02*
G37*
G36*
X654500Y382500D02*
X633000D01*
Y364500D01*
X654500D01*
Y382500D01*
D02*
G37*
G36*
X512000Y312530D02*
X511086Y312410D01*
X510235Y312057D01*
X509504Y311496D01*
X508943Y310765D01*
X508590Y309914D01*
X508583Y309863D01*
X507867Y309146D01*
X507386Y308519D01*
X507297Y308306D01*
X507084Y307790D01*
X506981Y307006D01*
Y305000D01*
X506506D01*
Y297000D01*
X513506D01*
Y305000D01*
X513032D01*
Y305639D01*
X513765Y305943D01*
X514496Y306504D01*
X515057Y307235D01*
X515410Y308086D01*
X515530Y309000D01*
X515410Y309914D01*
X515057Y310765D01*
X514496Y311496D01*
X513765Y312057D01*
X512914Y312410D01*
X512000Y312530D01*
D02*
G37*
G36*
X498224Y292276D02*
X497831D01*
X498028Y292250D01*
X498224Y292276D01*
D02*
G37*
G36*
X444492Y297500D02*
X437563D01*
X437618Y297086D01*
X437971Y296235D01*
X438002Y296194D01*
Y292776D01*
X444054D01*
Y296194D01*
X444085Y296235D01*
X444438Y297086D01*
X444492Y297500D01*
D02*
G37*
G36*
X497528Y294776D02*
X495068D01*
X495105Y294492D01*
X495228Y294196D01*
Y292776D01*
X496358D01*
X496515Y292655D01*
X497245Y292353D01*
X497528Y292315D01*
Y294776D01*
D02*
G37*
G36*
X500988D02*
X498528D01*
Y292315D01*
X498811Y292353D01*
X499541Y292655D01*
X499698Y292776D01*
X500828D01*
Y294196D01*
X500951Y294492D01*
X500988Y294776D01*
D02*
G37*
G36*
X443988Y291775D02*
X441528D01*
Y289315D01*
X441811Y289353D01*
X442541Y289655D01*
X442698Y289775D01*
X443828D01*
Y291196D01*
X443951Y291492D01*
X443988Y291775D01*
D02*
G37*
G36*
X590500Y382500D02*
X569000D01*
Y364500D01*
X590500D01*
Y382500D01*
D02*
G37*
G36*
X616589Y406980D02*
X598841D01*
Y403724D01*
X603681D01*
Y382500D01*
X591500D01*
Y364500D01*
X613000D01*
Y382500D01*
X611750D01*
Y403724D01*
X616589D01*
Y406980D01*
D02*
G37*
G36*
X547500Y352914D02*
X546711Y352810D01*
X545510Y352312D01*
X544479Y351521D01*
X543687Y350490D01*
X543190Y349289D01*
X543086Y348500D01*
X547500D01*
Y352914D01*
D02*
G37*
G36*
X415775Y318772D02*
X413775D01*
Y316472D01*
X415775D01*
Y318772D01*
D02*
G37*
G36*
X427506Y345000D02*
X420506D01*
Y337000D01*
X420981D01*
Y333814D01*
X420943Y333765D01*
X420590Y332914D01*
X420470Y332000D01*
X420590Y331086D01*
X420943Y330235D01*
X420981Y330186D01*
Y327472D01*
X420776D01*
Y320472D01*
X426375D01*
Y322701D01*
X426627Y323028D01*
X426929Y323758D01*
X427032Y324541D01*
Y330202D01*
X427057Y330235D01*
X427410Y331086D01*
X427530Y332000D01*
X427410Y332914D01*
X427057Y333765D01*
X427032Y333798D01*
Y337000D01*
X427506D01*
Y345000D01*
D02*
G37*
%LPD*%
G36*
X655500Y319000D02*
X658100D01*
D01*
X658100D01*
X658170Y318930D01*
Y314449D01*
X651830D01*
Y319000D01*
X651900D01*
Y319000D01*
X654500D01*
Y327000D01*
X655500D01*
Y319000D01*
D02*
G37*
G36*
X591500D02*
X594100D01*
D01*
X594100D01*
X594170Y318930D01*
Y314449D01*
X587830D01*
Y319000D01*
X587900D01*
Y319000D01*
X590500D01*
Y327000D01*
X591500D01*
Y319000D01*
D02*
G37*
D10*
X490028Y291576D02*
D03*
X433028Y288576D02*
D03*
X430028Y420576D02*
D03*
X483524Y418575D02*
D03*
X409028Y420576D02*
D03*
X507028Y418575D02*
D03*
D11*
X498028Y287775D02*
D03*
X441028Y284775D02*
D03*
X438028Y416776D02*
D03*
X491524Y414776D02*
D03*
X417028Y416776D02*
D03*
X515028Y414776D02*
D03*
D12*
X498028Y295275D02*
D03*
X441028Y292276D02*
D03*
X438028Y424275D02*
D03*
X491524Y422275D02*
D03*
X417028Y424275D02*
D03*
X515028Y422275D02*
D03*
D13*
X482994Y267000D02*
D03*
Y276000D02*
D03*
X432994Y266000D02*
D03*
Y275000D02*
D03*
X524000Y232000D02*
D03*
Y223000D02*
D03*
X441000Y237000D02*
D03*
Y228000D02*
D03*
X488006Y226000D02*
D03*
Y217000D02*
D03*
X476000Y225000D02*
D03*
Y216000D02*
D03*
X401000Y233000D02*
D03*
Y224000D02*
D03*
X450000Y226000D02*
D03*
Y217000D02*
D03*
X547994Y229000D02*
D03*
Y220000D02*
D03*
X680994Y225000D02*
D03*
Y216000D02*
D03*
X424006Y350000D02*
D03*
Y341000D02*
D03*
X484006Y351000D02*
D03*
Y342000D02*
D03*
X411006Y350000D02*
D03*
Y341000D02*
D03*
X496006Y351000D02*
D03*
Y342000D02*
D03*
X401006Y297000D02*
D03*
Y288000D02*
D03*
X420994Y266000D02*
D03*
Y275000D02*
D03*
X495994Y267000D02*
D03*
Y276000D02*
D03*
X510006D02*
D03*
Y267000D02*
D03*
Y301000D02*
D03*
Y292000D02*
D03*
D14*
X420000Y205994D02*
D03*
X411000D02*
D03*
X497000Y204994D02*
D03*
X488000D02*
D03*
X476000Y238006D02*
D03*
X485000D02*
D03*
X452000D02*
D03*
X461000D02*
D03*
X563000Y440006D02*
D03*
X554000D02*
D03*
X413000Y287006D02*
D03*
X422000D02*
D03*
D15*
X418000Y239000D02*
D03*
X423000D02*
D03*
X428000D02*
D03*
X433000D02*
D03*
Y217000D02*
D03*
X428000D02*
D03*
X423000D02*
D03*
X499000Y239000D02*
D03*
X504000D02*
D03*
X509000D02*
D03*
X514000D02*
D03*
Y217000D02*
D03*
X509000D02*
D03*
X504000D02*
D03*
D16*
X418000D02*
D03*
X499000D02*
D03*
D17*
X572835Y407480D02*
D03*
X607715D02*
D03*
X637000Y409000D02*
D03*
X671880D02*
D03*
X566000Y220000D02*
D03*
X600880D02*
D03*
X630000D02*
D03*
X664880D02*
D03*
X450880Y450000D02*
D03*
X416000D02*
D03*
X474120D02*
D03*
X509000D02*
D03*
D18*
X592008Y439850D02*
D03*
D19*
X608150D02*
D03*
D20*
X604400Y327000D02*
D03*
X597700D02*
D03*
X591000D02*
D03*
X584300D02*
D03*
X577600D02*
D03*
X668400D02*
D03*
X661700D02*
D03*
X655000D02*
D03*
X648300D02*
D03*
X641600D02*
D03*
D21*
X591000Y364000D02*
D03*
X655000D02*
D03*
D22*
X584000Y254394D02*
D03*
Y303606D02*
D03*
X648000Y254394D02*
D03*
Y303606D02*
D03*
D23*
X548150Y250008D02*
D03*
X681150Y248008D02*
D03*
D24*
X548150Y266150D02*
D03*
X681150Y264150D02*
D03*
D25*
X443000Y346779D02*
D03*
Y319220D02*
D03*
X465000Y346779D02*
D03*
Y319220D02*
D03*
D26*
X498575Y323972D02*
D03*
X483575D02*
D03*
X409576D02*
D03*
X423575D02*
D03*
X464425Y218028D02*
D03*
D27*
X494775Y315972D02*
D03*
X479775D02*
D03*
X405775D02*
D03*
X419775D02*
D03*
X468224Y226028D02*
D03*
D28*
X502276Y315972D02*
D03*
X487276D02*
D03*
X413275D02*
D03*
X427276D02*
D03*
X460724Y226028D02*
D03*
D29*
X491524Y372476D02*
X495000Y369000D01*
X491524Y372476D02*
Y414776D01*
X502224Y278776D02*
Y287775D01*
X563000Y440006D02*
X591852D01*
X409000Y405000D02*
X415213Y398787D01*
X421905D01*
X430028Y407972D02*
Y420576D01*
Y407972D02*
X432000Y406000D01*
Y382000D02*
Y406000D01*
X428787Y378787D02*
X432000Y382000D01*
X421905Y378787D02*
X428787D01*
X438028Y416776D02*
X443000D01*
X447000Y420776D01*
Y423000D01*
X515028Y414776D02*
X518776D01*
X521000Y417000D01*
X491524Y414776D02*
X494272D01*
X496496Y417000D01*
X411006Y350000D02*
X424006D01*
X521000Y450000D02*
X522000Y449000D01*
X528000Y443000D01*
X527996Y442996D02*
X528000Y443000D01*
X496006Y326541D02*
X498575Y323972D01*
X476000Y319748D02*
X479775Y315972D01*
X476000Y319748D02*
Y354000D01*
X481000Y359000D01*
X490000D01*
X487276Y312724D02*
Y315972D01*
X419775Y310225D02*
Y315972D01*
X418000Y302000D02*
X424000D01*
X487276Y312724D02*
X491000Y309000D01*
X502276Y313276D02*
Y315972D01*
X406776Y310225D02*
Y315972D01*
X494775D02*
Y318225D01*
X489028Y323972D02*
X494775Y318225D01*
X483575Y323972D02*
X489028D01*
X410006Y324403D02*
Y341000D01*
X424006Y324541D02*
Y341000D01*
X445000Y308000D02*
X471000D01*
X491000Y309000D02*
X498000D01*
X443000Y319220D02*
Y326000D01*
X432000Y337000D02*
X443000Y326000D01*
X432000Y337000D02*
Y356000D01*
X423000Y365000D02*
X432000Y356000D01*
X410000Y365000D02*
X423000D01*
X496006Y334271D02*
X508271D01*
X513063Y339063D01*
X496006Y326541D02*
Y334271D01*
Y342000D01*
X484006Y324403D02*
Y342000D01*
X483524Y414000D02*
Y418575D01*
X506000Y340000D02*
Y352923D01*
X508063Y354985D01*
X513063Y339063D02*
Y353063D01*
X520000Y360000D01*
X484006Y351000D02*
X495000D01*
X527996Y383996D02*
Y442996D01*
X454000Y330221D02*
X465000Y319220D01*
X454000Y330221D02*
Y360000D01*
X476000Y382000D01*
Y399000D01*
X480500Y403500D01*
X413000Y307000D02*
X418000Y302000D01*
X413000Y307000D02*
Y314697D01*
X443000Y313778D02*
Y319220D01*
X427110Y305110D02*
Y315972D01*
X424000Y302000D02*
X427110Y305110D01*
X420994Y275000D02*
Y286000D01*
X402000Y287006D02*
X413000D01*
X498028Y295275D02*
Y308972D01*
X498000Y309000D02*
X502276Y313276D01*
X441028Y292276D02*
Y298000D01*
X495000Y351000D02*
X527996Y383996D01*
X520000Y338000D02*
X527996Y330004D01*
Y282000D02*
Y330004D01*
X520000Y284000D02*
Y318000D01*
X498028Y287775D02*
X502224D01*
X510006Y307006D02*
X512000Y309000D01*
X510006Y301000D02*
Y307006D01*
X397201Y441201D02*
X406000Y450000D01*
X409000Y405000D02*
Y413746D01*
X409028Y413774D01*
X417028Y416776D02*
X419997D01*
X423000Y419778D01*
Y423000D01*
X409028Y413774D02*
Y420576D01*
X403000Y369000D02*
Y437000D01*
X397201Y366021D02*
Y441201D01*
X410264Y350000D02*
X411006D01*
Y354994D01*
X397201Y366021D02*
X402222Y361000D01*
X405000D01*
X411006Y354994D01*
D30*
X476000Y226000D02*
X488006D01*
X476000Y231000D02*
Y232000D01*
Y226000D02*
Y231000D01*
X469000Y213000D02*
X470000D01*
X514000Y239000D02*
X520000D01*
X495994Y262006D02*
Y267000D01*
Y262006D02*
X497994Y260006D01*
X508994D01*
X499500Y251000D02*
X500000D01*
X504000Y247000D01*
X493000Y248000D02*
X499000Y242000D01*
X452000Y248000D02*
X493000D01*
X504000Y239000D02*
Y247000D01*
X482994Y267000D02*
X495994D01*
X505029D02*
X510006D01*
X496029Y276000D02*
X505029Y267000D01*
X495994Y276000D02*
X496029D01*
X456000Y264000D02*
Y277000D01*
X450000Y283000D02*
X456000Y277000D01*
X450000Y283000D02*
Y300000D01*
X447000Y303000D02*
X450000Y300000D01*
X397201Y334000D02*
Y348201D01*
X401006Y297000D02*
Y320006D01*
X404000Y323000D01*
Y343736D01*
X410264Y350000D01*
X441000Y277000D02*
Y284748D01*
X415000Y262000D02*
X419000Y266000D01*
X420994D01*
X423000Y239000D02*
Y246000D01*
X509000Y235000D02*
Y239000D01*
Y231000D02*
Y235000D01*
Y231000D02*
X515000Y225000D01*
X504000Y217000D02*
Y222000D01*
X499000Y225000D02*
X509000Y235000D01*
X499000Y217000D02*
Y225000D01*
X509000Y210000D02*
Y217000D01*
X488013D02*
X493000D01*
X465452D02*
X470000D01*
Y213000D02*
Y217000D01*
X437000Y237000D02*
Y242000D01*
X418000Y225000D02*
X428000Y235000D01*
X452000Y238006D02*
Y248000D01*
X447000Y253000D02*
X452000Y248000D01*
X423000Y253000D02*
X447000D01*
X418000Y239000D02*
Y248000D01*
X423000Y253000D01*
X435000Y237000D02*
X437000D01*
X428000Y235000D02*
Y239000D01*
X418000Y217000D02*
Y225000D01*
X423000Y222000D02*
X425000Y224000D01*
X423000Y217000D02*
Y222000D01*
X428000Y209000D02*
Y217000D01*
X472000Y289000D02*
X482000Y299000D01*
X472000Y271000D02*
Y289000D01*
X520000Y239000D02*
X523000Y236000D01*
Y232000D02*
Y236000D01*
X518000Y213000D02*
X523000Y218000D01*
Y223000D01*
X433000Y239000D02*
X435000Y237000D01*
X441000Y217000D02*
X450000D01*
X433000D02*
X441000D01*
Y228000D01*
X418000Y207994D02*
X420000Y205994D01*
X418000Y207994D02*
Y217000D01*
X405000Y248000D02*
X418000D01*
X463397Y217000D02*
X464425Y218028D01*
X446247Y199850D02*
X463397Y217000D01*
X406006Y205994D02*
X411000D01*
X413000Y199850D02*
X446247D01*
X411000Y201850D02*
X413000Y199850D01*
X411000Y201850D02*
Y205994D01*
X401000Y211000D02*
X406006Y205994D01*
X488000Y199850D02*
X512886D01*
X488000D02*
Y204994D01*
X488013Y205006D01*
Y217000D01*
X497000Y204994D02*
X499000Y206994D01*
Y217000D01*
X518000Y204964D02*
Y213000D01*
X512886Y199850D02*
X518000Y204964D01*
X514000Y217000D02*
X518000Y213000D01*
X464425Y218028D02*
X465452Y217000D01*
X450000D02*
X463397D01*
X485000Y229006D02*
Y238006D01*
Y229006D02*
X488006Y226000D01*
X461000Y238006D02*
X476000D01*
X460724Y237731D02*
X461000Y238006D01*
X460724Y226028D02*
Y237731D01*
Y226028D02*
X468224D01*
X470000Y217000D02*
X488006D01*
X401000Y211000D02*
Y224000D01*
X450000Y226000D02*
Y232000D01*
X452000Y234000D01*
Y238006D01*
X499000Y239000D02*
Y242000D01*
X401000Y244000D02*
X405000Y248000D01*
X401000Y233000D02*
Y244000D01*
X439500Y310278D02*
X443000Y313778D01*
X439500Y305500D02*
Y310278D01*
Y305500D02*
X442000Y303000D01*
X447000D01*
X420994Y266000D02*
X432994D01*
X468280Y318721D02*
X474000Y313000D01*
X474071D01*
X510006Y278000D02*
Y292000D01*
X482000Y299000D02*
Y305071D01*
X474071Y313000D02*
X482000Y305071D01*
X397201Y348201D02*
X403000Y354000D01*
D31*
X465000Y266000D02*
Y282000D01*
X458000Y289000D02*
X465000Y282000D01*
X458000Y289000D02*
Y301000D01*
X671880Y409000D02*
Y418120D01*
X658213Y431787D02*
X671880Y418120D01*
X658213Y431787D02*
Y462213D01*
Y471905D01*
X652000Y456000D02*
X658213Y462213D01*
X614000Y456000D02*
X652000D01*
X608150Y450150D02*
X614000Y456000D01*
X608150Y439850D02*
Y450150D01*
X590141Y471905D02*
X590605Y471441D01*
X590141Y471905D02*
X638213D01*
X607715Y380715D02*
Y407480D01*
X604400Y377400D02*
X607715Y380715D01*
X591000Y327000D02*
Y364000D01*
X671880Y380880D02*
Y409000D01*
X668400Y377400D02*
X671880Y380880D01*
X655000Y327000D02*
Y364000D01*
X664880Y220000D02*
X668400Y223520D01*
Y327000D02*
Y377400D01*
X600880Y220000D02*
X604400Y223520D01*
Y327000D01*
X668550Y264150D02*
X681150D01*
X668400Y223520D02*
Y327000D01*
X604400D02*
Y377400D01*
X608150Y407915D02*
Y439850D01*
X532000Y471118D02*
X554000D01*
X548000Y318000D02*
X554000D01*
Y440006D02*
Y453000D01*
Y471118D01*
X552000Y272000D02*
X571000D01*
X548150Y268150D02*
X552000Y272000D01*
X406000Y450000D02*
X416000D01*
X509000D02*
X521000D01*
X554000Y429000D02*
Y440006D01*
Y429000D02*
X556000Y427000D01*
Y320000D02*
Y427000D01*
X554000Y318000D02*
X556000Y320000D01*
X438028Y424275D02*
Y426972D01*
X435000Y430000D02*
X438028Y426972D01*
X419000Y430000D02*
X435000D01*
X416000Y433000D02*
Y450000D01*
Y433000D02*
X419000Y430000D01*
X509000Y432000D02*
Y450000D01*
Y432000D02*
X515028Y425972D01*
Y422275D02*
Y425972D01*
X497000Y432000D02*
X509000D01*
X491524Y426524D02*
X497000Y432000D01*
X491524Y422275D02*
Y426524D01*
X474120Y426120D02*
Y450000D01*
X466000Y347779D02*
Y358000D01*
X465000Y334000D02*
Y346779D01*
X484424Y291576D02*
X490028D01*
X484000Y276000D02*
Y292000D01*
X458000Y301000D02*
X474500D01*
X419000Y428192D02*
Y430000D01*
X416500Y425692D02*
X419000Y428192D01*
D32*
X571000Y409315D02*
X572835Y407480D01*
X571000Y409315D02*
Y418000D01*
X637000Y409000D02*
Y419000D01*
Y394000D02*
Y409000D01*
X572835Y395835D02*
Y407480D01*
X564000Y387000D02*
X572835Y395835D01*
X564000Y340600D02*
Y387000D01*
Y340600D02*
X577600Y327000D01*
X627000Y341600D02*
X641600Y327000D01*
X627000Y341600D02*
Y384000D01*
X637000Y394000D01*
X566000Y310000D02*
X584300D01*
Y327000D01*
X634000Y310000D02*
X648300D01*
Y327000D01*
X597700Y268094D02*
Y327000D01*
X584000Y254394D02*
X597700Y268094D01*
X661700D02*
Y327000D01*
X648000Y254394D02*
X661700Y268094D01*
X547994Y220000D02*
X566000D01*
X547994Y229000D02*
Y249852D01*
X680994Y225000D02*
Y247852D01*
X630000Y213000D02*
Y220000D01*
Y213000D02*
X636000Y207000D01*
X671994D01*
X680994Y216000D01*
X630000Y220000D02*
Y236394D01*
X648000Y254394D01*
X548000Y328000D02*
X548855D01*
X566000Y236394D02*
X584000Y254394D01*
X566000Y220000D02*
Y236394D01*
X450880Y450000D02*
X455000Y445880D01*
Y371000D02*
Y445880D01*
X443000Y359000D02*
X455000Y371000D01*
X443000Y346779D02*
Y359000D01*
X507028Y398910D02*
Y418575D01*
X443000Y337000D02*
Y346779D01*
X432610Y326610D02*
X433000Y327000D01*
X432610Y290993D02*
Y326610D01*
X432994Y275000D02*
Y290541D01*
D33*
X403543Y482283D02*
D03*
X679134D02*
D03*
D34*
X638213Y471905D02*
D03*
X421905Y398787D02*
D03*
X504905D02*
D03*
D35*
X658213Y471905D02*
D03*
D36*
X531677Y471441D02*
D03*
X553677D02*
D03*
X589677D02*
D03*
X611677D02*
D03*
D37*
X421905Y378787D02*
D03*
X504905D02*
D03*
D38*
X520000Y318000D02*
D03*
X548000D02*
D03*
D39*
X520000Y328000D02*
D03*
Y338000D02*
D03*
Y348000D02*
D03*
X548000Y328000D02*
D03*
Y338000D02*
D03*
Y348000D02*
D03*
D40*
X464000Y431000D02*
D03*
X469000Y213000D02*
D03*
X476000Y231000D02*
D03*
X509000Y259000D02*
D03*
X499500Y251000D02*
D03*
X503000Y277000D02*
D03*
X518000Y284000D02*
D03*
X456000Y264000D02*
D03*
X465000Y266000D02*
D03*
X474000Y271000D02*
D03*
X527000Y281000D02*
D03*
X402000Y247000D02*
D03*
X398000Y334000D02*
D03*
X415000Y262000D02*
D03*
X441000Y277000D02*
D03*
X519000Y241000D02*
D03*
X517000Y224000D02*
D03*
X509000Y209000D02*
D03*
X506000Y224000D02*
D03*
X493000Y217000D02*
D03*
X401000Y216000D02*
D03*
X424000Y246000D02*
D03*
X437000Y243000D02*
D03*
X428000Y208000D02*
D03*
X425000Y231000D02*
D03*
Y224000D02*
D03*
X571000Y418000D02*
D03*
X608000D02*
D03*
X637000Y419000D02*
D03*
X554000Y453000D02*
D03*
X606000Y309000D02*
D03*
X671000Y310000D02*
D03*
X566000D02*
D03*
X634000D02*
D03*
X569000Y236000D02*
D03*
X633000D02*
D03*
X602000D02*
D03*
X665000D02*
D03*
X571000Y272000D02*
D03*
X522000Y449000D02*
D03*
X405000Y451000D02*
D03*
X423000Y423000D02*
D03*
X447000D02*
D03*
X427000Y416000D02*
D03*
X409000Y414000D02*
D03*
X481496D02*
D03*
X505000D02*
D03*
X521000Y418000D02*
D03*
X497496Y419000D02*
D03*
X491000Y358000D02*
D03*
X407000Y309000D02*
D03*
X424000Y332000D02*
D03*
X484000Y335000D02*
D03*
X445000Y308000D02*
D03*
X472000D02*
D03*
X410000Y365000D02*
D03*
X521000Y362000D02*
D03*
X495000Y369000D02*
D03*
X506000Y340000D02*
D03*
X509000Y357000D02*
D03*
X474120Y426120D02*
D03*
X466000Y358000D02*
D03*
X480500Y403500D02*
D03*
X443000Y337000D02*
D03*
X433000Y327000D02*
D03*
X410006Y331000D02*
D03*
X420000Y309000D02*
D03*
X425000Y302000D02*
D03*
X441028Y298000D02*
D03*
X465000Y334000D02*
D03*
X484000Y292000D02*
D03*
X458000Y301000D02*
D03*
X476000D02*
D03*
X497000D02*
D03*
X527000Y382000D02*
D03*
X512000Y309000D02*
D03*
X403000Y437000D02*
D03*
Y368000D02*
D03*
Y354000D02*
D03*
M02*
