G04 Layer_Color=128*
%FSLAX25Y25*%
%MOIN*%
G70*
G01*
G75*
%ADD10R,0.05000X0.03600*%
%ADD11R,0.03600X0.03600*%
%ADD12R,0.03600X0.03000*%
%ADD13R,0.05000X0.06000*%
%ADD14R,0.06000X0.05000*%
%ADD41R,0.07874X0.07874*%
%ADD42R,0.06200X0.07000*%
D10*
X430028Y420425D02*
D03*
X483524Y418425D02*
D03*
X409028Y420425D02*
D03*
X507028Y418425D02*
D03*
D11*
X438028Y424225D02*
D03*
X491524Y422225D02*
D03*
X417028Y424225D02*
D03*
X515028Y422225D02*
D03*
D12*
X438028Y416724D02*
D03*
X491524Y414724D02*
D03*
X417028Y416724D02*
D03*
X515028Y414724D02*
D03*
D13*
X483000Y237000D02*
D03*
Y228000D02*
D03*
X462000Y238000D02*
D03*
Y229000D02*
D03*
X409994Y227000D02*
D03*
Y218000D02*
D03*
X493994Y237000D02*
D03*
Y228000D02*
D03*
X452994Y238000D02*
D03*
Y229000D02*
D03*
X443000Y394000D02*
D03*
Y385000D02*
D03*
X485000Y393000D02*
D03*
Y384000D02*
D03*
D14*
X439000Y206994D02*
D03*
X448000D02*
D03*
X524000Y207006D02*
D03*
X515000D02*
D03*
X506000Y229994D02*
D03*
X515000D02*
D03*
X502000Y207006D02*
D03*
X493000D02*
D03*
X524000Y217000D02*
D03*
X515000D02*
D03*
X410000Y240000D02*
D03*
X401000D02*
D03*
X441000Y228006D02*
D03*
X432000D02*
D03*
X433000Y250994D02*
D03*
X442000D02*
D03*
X516000Y249994D02*
D03*
X525000D02*
D03*
X649000Y419000D02*
D03*
X658000D02*
D03*
X644000Y229000D02*
D03*
X653000D02*
D03*
X587000Y418000D02*
D03*
X596000D02*
D03*
X584000Y228000D02*
D03*
X593000D02*
D03*
X507000Y348006D02*
D03*
X498000D02*
D03*
X486000Y328006D02*
D03*
X477000D02*
D03*
X485000Y348006D02*
D03*
X476000D02*
D03*
X508000Y328006D02*
D03*
X499000D02*
D03*
D41*
X580000Y440006D02*
D03*
X564252D02*
D03*
X598000Y310000D02*
D03*
X582252D02*
D03*
X664000D02*
D03*
X648252D02*
D03*
X603000Y440000D02*
D03*
X618748D02*
D03*
X467252Y476000D02*
D03*
X483000D02*
D03*
X498748Y458000D02*
D03*
X483000D02*
D03*
X445252D02*
D03*
X461000D02*
D03*
D42*
X582400Y210000D02*
D03*
X593600D02*
D03*
X643400D02*
D03*
X654600D02*
D03*
M02*
