G04 Layer_Color=16711935*
%FSLAX25Y25*%
%MOIN*%
G70*
G01*
G75*
%ADD45C,0.01000*%
D45*
X389764Y482283D02*
X389679Y483282D01*
X389426Y484251D01*
X389014Y485164D01*
X388453Y485993D01*
X387760Y486717D01*
X386955Y487312D01*
X386060Y487763D01*
X385102Y488056D01*
X384109Y488184D01*
X383108Y488141D01*
X382129Y487930D01*
X381200Y487557D01*
X380347Y487032D01*
X379595Y486370D01*
X378965Y485590D01*
X378477Y484716D01*
X378143Y483772D01*
X377974Y482784D01*
Y481783D01*
X378143Y480795D01*
X378477Y479851D01*
X378965Y478976D01*
X379595Y478197D01*
X380347Y477535D01*
X381200Y477010D01*
X382129Y476637D01*
X383108Y476426D01*
X384109Y476383D01*
X385102Y476510D01*
X386060Y476804D01*
X386955Y477255D01*
X387760Y477850D01*
X388453Y478574D01*
X389014Y479403D01*
X389426Y480316D01*
X389679Y481285D01*
X389764Y482283D01*
X685039D02*
X684954Y483282D01*
X684702Y484251D01*
X684290Y485164D01*
X683729Y485993D01*
X683036Y486717D01*
X682230Y487312D01*
X681336Y487763D01*
X680378Y488056D01*
X679385Y488184D01*
X678384Y488141D01*
X677405Y487930D01*
X676475Y487557D01*
X675622Y487032D01*
X674870Y486370D01*
X674241Y485590D01*
X673753Y484716D01*
X673419Y483772D01*
X673250Y482784D01*
Y481783D01*
X673419Y480795D01*
X673753Y479851D01*
X674241Y478976D01*
X674870Y478197D01*
X675622Y477535D01*
X676475Y477010D01*
X677405Y476637D01*
X678384Y476426D01*
X679385Y476383D01*
X680378Y476510D01*
X681336Y476804D01*
X682230Y477255D01*
X683036Y477850D01*
X683729Y478574D01*
X684290Y479403D01*
X684702Y480316D01*
X684954Y481285D01*
X685039Y482283D01*
M02*
