G04 Layer_Color=65535*
%FSLAX25Y25*%
%MOIN*%
G70*
G01*
G75*
%ADD17C,0.01000*%
%ADD35C,0.00787*%
%ADD36C,0.00591*%
%ADD37C,0.00500*%
%ADD38C,0.00472*%
D17*
X22125Y146936D02*
Y141937D01*
X23125Y140938D01*
X25124D01*
X26124Y141937D01*
Y146936D01*
X28123Y140938D02*
X30122D01*
X29123D01*
Y146936D01*
X28123Y145936D01*
D35*
X108370Y23336D02*
G03*
X108370Y17608I6387J-2864D01*
G01*
X120764Y17608D02*
G03*
X120764Y23336I-6387J2864D01*
G01*
X142913Y47638D02*
G03*
X142913Y47638I-19685J0D01*
G01*
X136512Y17608D02*
G03*
X136512Y23336I-6387J2864D01*
G01*
X124118D02*
G03*
X124118Y17608I6387J-2864D01*
G01*
X146354Y68002D02*
G03*
X146354Y73730I-6387J2864D01*
G01*
X133961Y73730D02*
G03*
X133961Y68002I6387J-2864D01*
G01*
X140654Y23336D02*
G03*
X140654Y17608I6387J-2864D01*
G01*
X153047Y17608D02*
G03*
X153047Y23336I-6387J2864D01*
G01*
X170390Y39764D02*
G03*
X170390Y39764I-311J0D01*
G01*
X88575Y59788D02*
X98575D01*
X88575D02*
Y99788D01*
X98575Y59788D02*
Y99788D01*
X88575D02*
X98575D01*
X89075Y12788D02*
X99075D01*
X89075D02*
Y52788D01*
X99075Y12788D02*
Y52788D01*
X89075D02*
X99075D01*
X77075Y20288D02*
Y40288D01*
Y20288D02*
X87075D01*
Y40288D01*
X77075D02*
X87075D01*
X52575Y24788D02*
X72575D01*
X52575Y14788D02*
Y24788D01*
Y14788D02*
X72575D01*
Y24788D01*
X30075Y14788D02*
X50075D01*
Y24788D01*
X30075D02*
X50075D01*
X30075Y14788D02*
Y24788D01*
X37575Y2788D02*
X67575D01*
Y12788D01*
X37575D02*
X67575D01*
X37575Y2788D02*
Y12788D01*
X3575Y59788D02*
X13575D01*
X3575D02*
Y99788D01*
X13575Y59788D02*
Y99788D01*
X3575D02*
X13575D01*
X3575Y12288D02*
X13575D01*
X3575D02*
Y52288D01*
X13575Y12288D02*
Y52288D01*
X3575D02*
X13575D01*
X25984Y137563D02*
X35827D01*
X25984Y127721D02*
Y137563D01*
X67323D02*
X77166D01*
Y127721D02*
Y137563D01*
X25984Y47012D02*
Y56854D01*
Y47012D02*
X35827D01*
X67323D02*
X77166D01*
Y56854D01*
X17075Y20288D02*
Y40288D01*
Y20288D02*
X27075D01*
Y40288D01*
X17075D02*
X27075D01*
X108370Y17472D02*
X120764D01*
X108370Y23472D02*
X120764D01*
X143728Y35638D02*
Y39638D01*
X141728Y37638D02*
X145728D01*
X124118Y23472D02*
X136512D01*
X124118Y17472D02*
X136512D01*
X133961Y73866D02*
X146354D01*
X133961Y67866D02*
X146354D01*
X140654Y17472D02*
X153047D01*
X140654Y23472D02*
X153047D01*
X196968Y71929D02*
X206968D01*
Y21929D02*
Y71929D01*
X196968Y21929D02*
Y71929D01*
Y21929D02*
X206968D01*
X172480Y77677D02*
Y87677D01*
X152480Y77677D02*
X172480D01*
X152480D02*
Y87677D01*
X172480D01*
X106024Y77677D02*
Y87677D01*
X146024D01*
X106024Y77677D02*
X146024D01*
Y87677D01*
X186614Y70000D02*
Y76000D01*
Y24000D02*
Y30000D01*
X181614D02*
X191614D01*
Y70000D01*
X181614D02*
X191614D01*
X181614Y30000D02*
Y70000D01*
X195787Y87283D02*
X215787D01*
X195787Y77284D02*
Y87283D01*
Y77284D02*
X215787D01*
Y87283D01*
X155315Y37106D02*
Y39665D01*
Y37106D02*
X157776D01*
X170472Y37205D02*
X173031D01*
Y39665D01*
X155315Y54823D02*
Y57284D01*
X158071D01*
X170374D02*
X173031D01*
Y54823D02*
Y57284D01*
D36*
X104228Y43138D02*
Y52138D01*
X105228Y40138D02*
Y55138D01*
X106228Y38138D02*
Y57138D01*
X107228Y36138D02*
Y59138D01*
X156886Y23472D02*
X162386D01*
X156886Y17472D02*
Y23472D01*
Y17472D02*
X162386D01*
X164386Y23472D02*
X169886D01*
Y17472D02*
Y23472D01*
X164386Y17472D02*
X169886D01*
D37*
X5543Y58011D02*
X5043Y58511D01*
X4043D01*
X3543Y58011D01*
Y56012D01*
X4043Y55512D01*
X5043D01*
X5543Y56012D01*
X6542Y58511D02*
X8542D01*
X7542D01*
Y55512D01*
X9541Y58511D02*
Y55512D01*
X11541D01*
X78771Y15885D02*
X78271Y16385D01*
X77271D01*
X76772Y15885D01*
Y13886D01*
X77271Y13386D01*
X78271D01*
X78771Y13886D01*
Y14885D01*
X77771D01*
X79771Y13386D02*
Y16385D01*
X81270D01*
X81770Y15885D01*
Y14885D01*
X81270Y14386D01*
X79771D01*
X82770Y16385D02*
X83769D01*
X83270D01*
Y13386D01*
X82770D01*
X83769D01*
X86768Y16385D02*
X85769D01*
X85269Y15885D01*
Y13886D01*
X85769Y13386D01*
X86768D01*
X87268Y13886D01*
Y15885D01*
X86768Y16385D01*
X15354Y15597D02*
Y12598D01*
X17354D01*
X20353Y15597D02*
X18353D01*
Y12598D01*
X20353D01*
X18353Y14098D02*
X19353D01*
X21352Y15597D02*
Y12598D01*
X22852D01*
X23352Y13098D01*
Y15098D01*
X22852Y15597D01*
X21352D01*
X27559Y3150D02*
Y6149D01*
X29059D01*
X29558Y5649D01*
Y4649D01*
X29059Y4149D01*
X27559D01*
X30558Y6149D02*
Y3150D01*
X31558Y4149D01*
X32557Y3150D01*
Y6149D01*
X33557Y3150D02*
Y6149D01*
X35057D01*
X35557Y5649D01*
Y4649D01*
X35057Y4149D01*
X33557D01*
X34557D02*
X35557Y3150D01*
X31102Y26772D02*
Y29771D01*
X32602D01*
X33102Y29271D01*
Y28271D01*
X32602Y27771D01*
X31102D01*
X32102D02*
X33102Y26772D01*
X34101Y29771D02*
X36101Y26772D01*
Y29771D02*
X34101Y26772D01*
X37100Y29771D02*
Y26772D01*
X39100D01*
X42099Y29771D02*
X40099D01*
Y26772D01*
X42099D01*
X40099Y28271D02*
X41099D01*
X43099Y29771D02*
Y26772D01*
X44598D01*
X45098Y27272D01*
Y29271D01*
X44598Y29771D01*
X43099D01*
X74016Y41732D02*
Y44731D01*
X75515D01*
X76015Y44232D01*
Y43232D01*
X75515Y42732D01*
X74016D01*
X75015D02*
X76015Y41732D01*
X77015Y44731D02*
X79014Y41732D01*
Y44731D02*
X77015Y41732D01*
X81513Y44731D02*
X80514D01*
X80014Y44232D01*
Y42232D01*
X80514Y41732D01*
X81513D01*
X82013Y42232D01*
Y44232D01*
X81513Y44731D01*
X83013D02*
Y41732D01*
X85012D01*
X86012Y44731D02*
Y41732D01*
X87511D01*
X88011Y42232D01*
Y44232D01*
X87511Y44731D01*
X86012D01*
X55149Y29271D02*
X54649Y29771D01*
X53649D01*
X53150Y29271D01*
Y28771D01*
X53649Y28271D01*
X54649D01*
X55149Y27771D01*
Y27272D01*
X54649Y26772D01*
X53649D01*
X53150Y27272D01*
X58148Y29771D02*
X56149D01*
Y28271D01*
X57148D01*
X56149D01*
Y26772D01*
X59148Y29771D02*
Y26772D01*
X60647D01*
X61147Y27272D01*
Y29271D01*
X60647Y29771D01*
X59148D01*
X62147D02*
Y26772D01*
X64146D01*
X67145Y29771D02*
X65146D01*
Y26772D01*
X67145D01*
X65146Y28271D02*
X66145D01*
X68145Y29771D02*
Y26772D01*
X69644D01*
X70144Y27272D01*
Y29271D01*
X69644Y29771D01*
X68145D01*
X93732Y57617D02*
X93232Y58117D01*
X92232D01*
X91732Y57617D01*
Y57117D01*
X92232Y56618D01*
X93232D01*
X93732Y56118D01*
Y55618D01*
X93232Y55118D01*
X92232D01*
X91732Y55618D01*
X94731Y55118D02*
Y58117D01*
X96231D01*
X96731Y57617D01*
Y56618D01*
X96231Y56118D01*
X94731D01*
X97730Y58117D02*
X98730D01*
X98230D01*
Y55118D01*
X97730D01*
X98730D01*
X14961Y45519D02*
X16960D01*
X15960D01*
Y42520D01*
X17960Y45519D02*
X19959Y42520D01*
Y45519D02*
X17960Y42520D01*
X20959Y45519D02*
Y42520D01*
X22958D01*
X25957Y45519D02*
X23958D01*
Y42520D01*
X25957D01*
X23958Y44019D02*
X24957D01*
X26957Y45519D02*
Y42520D01*
X28456D01*
X28956Y43020D01*
Y45019D01*
X28456Y45519D01*
X26957D01*
D38*
X110235Y28345D02*
X109448Y29132D01*
X107874D01*
X107087Y28345D01*
Y25197D01*
X107874Y24409D01*
X109448D01*
X110235Y25197D01*
X111810Y24409D02*
X113384D01*
X112597D01*
Y29132D01*
X111810Y28345D01*
X115745Y23622D02*
X118894D01*
X120468Y24409D02*
X122042D01*
X121255D01*
Y29132D01*
X120468Y28345D01*
X106298Y68109D02*
X105511Y68896D01*
X103937D01*
X103150Y68109D01*
Y64960D01*
X103937Y64173D01*
X105511D01*
X106298Y64960D01*
X111021Y64173D02*
X107872D01*
X111021Y67322D01*
Y68109D01*
X110234Y68896D01*
X108660D01*
X107872Y68109D01*
X112595Y63386D02*
X115744D01*
X117318Y64173D02*
X118893D01*
X118105D01*
Y68896D01*
X117318Y68109D01*
X133857Y28345D02*
X133070Y29132D01*
X131496D01*
X130709Y28345D01*
Y25197D01*
X131496Y24409D01*
X133070D01*
X133857Y25197D01*
X135432Y28345D02*
X136219Y29132D01*
X137793D01*
X138580Y28345D01*
Y27558D01*
X137793Y26771D01*
X137006D01*
X137793D01*
X138580Y25984D01*
Y25197D01*
X137793Y24409D01*
X136219D01*
X135432Y25197D01*
X141731Y66141D02*
X140944Y66928D01*
X139370D01*
X138583Y66141D01*
Y62992D01*
X139370Y62205D01*
X140944D01*
X141731Y62992D01*
X145667Y62205D02*
Y66928D01*
X143306Y64566D01*
X146454D01*
X147637Y28739D02*
X146850Y29526D01*
X145275D01*
X144488Y28739D01*
Y25590D01*
X145275Y24803D01*
X146850D01*
X147637Y25590D01*
X152360Y29526D02*
X149211D01*
Y27165D01*
X150785Y27952D01*
X151573D01*
X152360Y27165D01*
Y25590D01*
X151573Y24803D01*
X149998D01*
X149211Y25590D01*
X194356Y19028D02*
X193700Y19684D01*
X192388D01*
X191732Y19028D01*
Y16404D01*
X192388Y15748D01*
X193700D01*
X194356Y16404D01*
X197636Y19684D02*
X196324D01*
X195668Y19028D01*
Y16404D01*
X196324Y15748D01*
X197636D01*
X198292Y16404D01*
Y19028D01*
X197636Y19684D01*
X199604Y15748D02*
Y19684D01*
X202228Y15748D01*
Y19684D01*
X203539D02*
X206163D01*
X204851D01*
Y15748D01*
X207475D02*
Y19684D01*
X209443D01*
X210099Y19028D01*
Y17716D01*
X209443Y17060D01*
X207475D01*
X208787D02*
X210099Y15748D01*
X213379Y19684D02*
X212067D01*
X211411Y19028D01*
Y16404D01*
X212067Y15748D01*
X213379D01*
X214035Y16404D01*
Y19028D01*
X213379Y19684D01*
X215347D02*
Y15748D01*
X217970D01*
X152756Y71653D02*
Y76376D01*
X154330Y74802D01*
X155904Y76376D01*
Y71653D01*
X159840Y76376D02*
X158266D01*
X157479Y75589D01*
Y72441D01*
X158266Y71653D01*
X159840D01*
X160627Y72441D01*
Y75589D01*
X159840Y76376D01*
X162202D02*
X165350D01*
X163776D01*
Y71653D01*
X169286Y76376D02*
X167712D01*
X166925Y75589D01*
Y72441D01*
X167712Y71653D01*
X169286D01*
X170073Y72441D01*
Y75589D01*
X169286Y76376D01*
X171647Y71653D02*
Y76376D01*
X174009D01*
X174796Y75589D01*
Y74015D01*
X174009Y73228D01*
X171647D01*
X173222D02*
X174796Y71653D01*
X104724D02*
Y76376D01*
X107086D01*
X107873Y75589D01*
Y74015D01*
X107086Y73228D01*
X104724D01*
X111809Y76376D02*
X110234D01*
X109447Y75589D01*
Y72441D01*
X110234Y71653D01*
X111809D01*
X112596Y72441D01*
Y75589D01*
X111809Y76376D01*
X114170D02*
Y71653D01*
X115744Y73228D01*
X117319Y71653D01*
Y76376D01*
X122042D02*
X118893D01*
Y71653D01*
X122042D01*
X118893Y74015D02*
X120467D01*
X123616Y71653D02*
Y76376D01*
X125977D01*
X126765Y75589D01*
Y74015D01*
X125977Y73228D01*
X123616D01*
X125190D02*
X126765Y71653D01*
X183465Y84252D02*
Y88975D01*
X185826D01*
X186613Y88188D01*
Y86613D01*
X185826Y85826D01*
X183465D01*
X185039D02*
X186613Y84252D01*
X188187D02*
X189762D01*
X188975D01*
Y88975D01*
X188187Y88188D01*
X192123Y83465D02*
X195272D01*
X196846Y84252D02*
X198420D01*
X197633D01*
Y88975D01*
X196846Y88188D01*
X160236Y24409D02*
Y29132D01*
X162598D01*
X163385Y28345D01*
Y26771D01*
X162598Y25984D01*
X160236D01*
X161811D02*
X163385Y24409D01*
X168108D02*
X164959D01*
X168108Y27558D01*
Y28345D01*
X167321Y29132D01*
X165746D01*
X164959Y28345D01*
X169682Y23622D02*
X172831D01*
X174405Y24409D02*
X175979D01*
X175192D01*
Y29132D01*
X174405Y28345D01*
X210500Y57742D02*
X209844Y57086D01*
Y55774D01*
X210500Y55118D01*
X211156D01*
X211812Y55774D01*
Y57086D01*
X212468Y57742D01*
X213124D01*
X213779Y57086D01*
Y55774D01*
X213124Y55118D01*
X209844Y59054D02*
Y60366D01*
Y59710D01*
X213779D01*
Y59054D01*
Y60366D01*
X210500Y64957D02*
X209844Y64302D01*
Y62990D01*
X210500Y62334D01*
X213124D01*
X213779Y62990D01*
Y64302D01*
X213124Y64957D01*
X211812D01*
Y63645D01*
X213779Y66269D02*
X209844D01*
X213779Y68893D01*
X209844D01*
X213779Y70205D02*
X211156D01*
X209844Y71517D01*
X211156Y72829D01*
X213779D01*
X211812D01*
Y70205D01*
X209844Y74141D02*
X213779D01*
Y76765D01*
X162598Y36219D02*
Y32283D01*
X163386Y31496D01*
X164960D01*
X165747Y32283D01*
Y36219D01*
X167321Y31496D02*
X168896D01*
X168108D01*
Y36219D01*
X167321Y35432D01*
X171257Y30709D02*
X174406D01*
X175980Y31496D02*
X177554D01*
X176767D01*
Y36219D01*
X175980Y35432D01*
M02*
