G04 Layer_Physical_Order=1*
G04 Layer_Color=255*
%FSLAX25Y25*%
%MOIN*%
G70*
G01*
G75*
%ADD10R,0.05000X0.06000*%
%ADD11R,0.19685X0.19685*%
%ADD12R,0.05512X0.15748*%
G04:AMPARAMS|DCode=13|XSize=118.11mil|YSize=78.74mil|CornerRadius=19.69mil|HoleSize=0mil|Usage=FLASHONLY|Rotation=180.000|XOffset=0mil|YOffset=0mil|HoleType=Round|Shape=RoundedRectangle|*
%AMROUNDEDRECTD13*
21,1,0.11811,0.03937,0,0,180.0*
21,1,0.07874,0.07874,0,0,180.0*
1,1,0.03937,-0.03937,0.01969*
1,1,0.03937,0.03937,0.01969*
1,1,0.03937,0.03937,-0.01969*
1,1,0.03937,-0.03937,-0.01969*
%
%ADD13ROUNDEDRECTD13*%
%ADD14R,0.11811X0.07874*%
%ADD15R,0.15748X0.05512*%
%ADD16R,0.42000X0.35000*%
%ADD17R,0.04200X0.14000*%
%ADD18R,0.06000X0.05000*%
G04:AMPARAMS|DCode=19|XSize=118.11mil|YSize=78.74mil|CornerRadius=19.69mil|HoleSize=0mil|Usage=FLASHONLY|Rotation=90.000|XOffset=0mil|YOffset=0mil|HoleType=Round|Shape=RoundedRectangle|*
%AMROUNDEDRECTD19*
21,1,0.11811,0.03937,0,0,90.0*
21,1,0.07874,0.07874,0,0,90.0*
1,1,0.03937,0.01969,0.03937*
1,1,0.03937,0.01969,-0.03937*
1,1,0.03937,-0.01969,-0.03937*
1,1,0.03937,-0.01969,0.03937*
%
%ADD19ROUNDEDRECTD19*%
%ADD20R,0.07874X0.11811*%
%ADD21R,0.11811X0.13780*%
%ADD22C,0.03000*%
%ADD23C,0.04000*%
%ADD24C,0.06000*%
%ADD25C,0.05000*%
%ADD26R,0.07874X0.07874*%
%ADD27C,0.07874*%
%ADD28C,0.14000*%
%ADD29R,0.11811X0.11811*%
%ADD30C,0.11811*%
%ADD31C,0.15748*%
%ADD32R,0.11811X0.11811*%
%ADD33C,0.05000*%
G36*
X513000Y451485D02*
X512538Y451294D01*
X489882Y473950D01*
Y480874D01*
X482370D01*
Y476034D01*
X460189D01*
X460189Y476034D01*
X459145Y475897D01*
X458172Y475494D01*
X457336Y474853D01*
X451872Y469388D01*
X451230Y468553D01*
X450827Y467580D01*
X450690Y466535D01*
X450827Y465491D01*
X451230Y464518D01*
X451872Y463683D01*
X452707Y463041D01*
X453680Y462638D01*
X454724Y462501D01*
X455769Y462638D01*
X456742Y463041D01*
X457577Y463683D01*
X461860Y467966D01*
X482370D01*
Y463126D01*
X489294D01*
X510965Y441455D01*
Y393655D01*
X510496Y393496D01*
X509765Y394057D01*
X508914Y394410D01*
X508500Y394464D01*
Y391000D01*
X508000D01*
Y390500D01*
X504040D01*
X503974Y390000D01*
Y389000D01*
X503500D01*
Y385500D01*
X507000D01*
Y385000D01*
X507500D01*
Y381000D01*
X510500D01*
Y381000D01*
X510612D01*
X510965Y380646D01*
Y380000D01*
X510500D01*
Y380000D01*
X503500D01*
Y376752D01*
X503038Y376560D01*
X493000Y386598D01*
Y391494D01*
X485000D01*
Y384494D01*
X487895D01*
X504451Y367938D01*
Y335875D01*
X501332Y332756D01*
X490142D01*
Y316976D01*
X493517D01*
Y307094D01*
X493517Y307094D01*
X493517D01*
X493637Y306180D01*
X493990Y305329D01*
X494551Y304597D01*
X496253Y302895D01*
X496146Y302543D01*
X496013Y301189D01*
X496146Y299835D01*
X496541Y298534D01*
X497182Y297334D01*
X498045Y296282D01*
X499097Y295420D01*
X500296Y294778D01*
X501598Y294383D01*
X502952Y294250D01*
X504306Y294383D01*
X505607Y294778D01*
X506807Y295420D01*
X507859Y296282D01*
X508721Y297334D01*
X509363Y298534D01*
X509758Y299835D01*
X509891Y301189D01*
X509758Y302543D01*
X509363Y303844D01*
X508721Y305044D01*
X507859Y306096D01*
X506807Y306959D01*
X505607Y307600D01*
X504306Y307995D01*
X502952Y308128D01*
X501598Y307995D01*
X501246Y307888D01*
X500577Y308556D01*
Y316976D01*
X503953D01*
Y328167D01*
X508802Y333016D01*
X509355Y333843D01*
X509549Y334819D01*
X509549Y334819D01*
X509549Y334819D01*
Y334819D01*
Y368994D01*
Y372000D01*
X510500D01*
Y372000D01*
X510612D01*
X510965Y371646D01*
Y305000D01*
X510965Y305000D01*
X511103Y303956D01*
X511506Y302983D01*
X512147Y302147D01*
X517966Y296329D01*
Y230851D01*
X517504Y230496D01*
X516943Y229765D01*
X516590Y228914D01*
X516470Y228000D01*
X516590Y227086D01*
X516943Y226235D01*
X517504Y225504D01*
X518235Y224943D01*
X519086Y224590D01*
X520000Y224470D01*
X520053Y224477D01*
X520956Y224103D01*
X522000Y223966D01*
X523044Y224103D01*
X524017Y224506D01*
X524853Y225147D01*
X525494Y225983D01*
X525897Y226956D01*
X526034Y228000D01*
Y298000D01*
X525897Y299044D01*
X525730Y299447D01*
X525494Y300017D01*
X524853Y300853D01*
X524853Y300853D01*
X519034Y306671D01*
Y313063D01*
X519034D01*
X519063D01*
X519388Y313063D01*
X519388Y313063D01*
Y313063D01*
X528937D01*
Y322937D01*
X525959D01*
X525862Y323427D01*
X526490Y323688D01*
X527521Y324479D01*
X528312Y325510D01*
X528810Y326711D01*
X528980Y328000D01*
X528810Y329289D01*
X528312Y330490D01*
X527521Y331521D01*
X526490Y332312D01*
X525433Y332750D01*
Y333250D01*
X526490Y333687D01*
X527521Y334479D01*
X528312Y335510D01*
X528810Y336711D01*
X528980Y338000D01*
X528810Y339289D01*
X528312Y340490D01*
X527521Y341521D01*
X526490Y342313D01*
X525433Y342750D01*
Y343250D01*
X526490Y343688D01*
X527521Y344479D01*
X528312Y345510D01*
X528810Y346711D01*
X528980Y348000D01*
X528810Y349289D01*
X528312Y350490D01*
X527521Y351521D01*
X526490Y352312D01*
X525433Y352750D01*
Y353250D01*
X526490Y353688D01*
X527521Y354479D01*
X528312Y355510D01*
X528810Y356711D01*
X528980Y358000D01*
X528810Y359289D01*
X528312Y360490D01*
X527521Y361521D01*
X526490Y362313D01*
X525433Y362750D01*
Y363250D01*
X526490Y363687D01*
X527521Y364479D01*
X528312Y365510D01*
X528810Y366711D01*
X528980Y368000D01*
X528810Y369289D01*
X528312Y370490D01*
X527521Y371521D01*
X526490Y372312D01*
X525289Y372810D01*
X524000Y372980D01*
X522711Y372810D01*
X521510Y372312D01*
X520479Y371521D01*
X519688Y370490D01*
X519525Y370097D01*
X519034Y370195D01*
Y429134D01*
X529967D01*
Y198380D01*
X489968D01*
Y218119D01*
X490057Y218235D01*
X490410Y219086D01*
X490530Y220000D01*
X490410Y220914D01*
X490057Y221765D01*
X489496Y222496D01*
X488765Y223057D01*
X487914Y223410D01*
X487000Y223530D01*
X486086Y223410D01*
X485235Y223057D01*
X485194Y223026D01*
X473253D01*
X471417Y224863D01*
X471410Y224914D01*
X471057Y225765D01*
X470496Y226496D01*
X469869Y226978D01*
X470030Y227451D01*
X484000D01*
X484975Y227645D01*
X485802Y228198D01*
X485802Y228198D01*
X485802Y228198D01*
X494802Y237198D01*
X495355Y238024D01*
X495549Y239000D01*
X495549Y239000D01*
X495549Y239000D01*
Y239000D01*
Y274284D01*
X496046D01*
Y274284D01*
X499974D01*
Y256000D01*
X499996Y255834D01*
X499943Y255765D01*
X499590Y254914D01*
X499470Y254000D01*
X499590Y253086D01*
X499943Y252235D01*
X500504Y251504D01*
X501235Y250943D01*
X502086Y250590D01*
X503000Y250470D01*
X503914Y250590D01*
X504765Y250943D01*
X505496Y251504D01*
X506057Y252235D01*
X506410Y253086D01*
X506530Y254000D01*
X506410Y254914D01*
X506057Y255765D01*
X506004Y255834D01*
X506026Y256000D01*
Y274284D01*
X509858D01*
Y287884D01*
X510035Y287958D01*
X510451Y287680D01*
Y246056D01*
X500914Y236519D01*
X500086Y236410D01*
X499235Y236057D01*
X498504Y235496D01*
X497943Y234765D01*
X497590Y233914D01*
X497470Y233000D01*
X497590Y232086D01*
X497943Y231235D01*
X498504Y230504D01*
X499235Y229943D01*
X500086Y229590D01*
X501000Y229470D01*
X501914Y229590D01*
X502765Y229943D01*
X503496Y230504D01*
X504057Y231235D01*
X504410Y232086D01*
X504519Y232914D01*
X514802Y243198D01*
X515355Y244024D01*
X515549Y245000D01*
Y289000D01*
X515355Y289976D01*
X514802Y290802D01*
X512802Y292802D01*
X511975Y293355D01*
X511000Y293549D01*
X496056D01*
X489549Y300056D01*
Y346006D01*
X489355Y346982D01*
X488802Y347809D01*
X484519Y352092D01*
X484410Y352920D01*
X484057Y353771D01*
X483496Y354503D01*
X482765Y355064D01*
X481914Y355416D01*
X481000Y355537D01*
X480086Y355416D01*
X479235Y355064D01*
X478504Y354503D01*
X477943Y353771D01*
X477590Y352920D01*
X477470Y352006D01*
X477590Y351093D01*
X477943Y350241D01*
X478504Y349510D01*
X479235Y348949D01*
X480086Y348597D01*
X480914Y348487D01*
X484451Y344951D01*
Y342028D01*
X483978Y341867D01*
X483490Y342503D01*
X482759Y343064D01*
X481907Y343416D01*
X480994Y343537D01*
X480080Y343416D01*
X479228Y343064D01*
X478497Y342503D01*
X477936Y341772D01*
X477584Y340920D01*
X477463Y340006D01*
X477584Y339093D01*
X477936Y338241D01*
X478451Y337571D01*
Y288000D01*
X478451Y288000D01*
X478451D01*
X478645Y287024D01*
X479198Y286198D01*
X490451Y274944D01*
Y268449D01*
X489968D01*
Y268449D01*
X473276D01*
X473018Y268706D01*
Y316976D01*
X476394D01*
Y332756D01*
X471299D01*
X471139Y333229D01*
X471496Y333504D01*
X472057Y334235D01*
X472410Y335086D01*
X472530Y336000D01*
X472410Y336914D01*
X472057Y337765D01*
X471549Y338427D01*
Y350944D01*
X474802Y354198D01*
X475355Y355025D01*
X475549Y356000D01*
X475549Y356000D01*
X475549Y356000D01*
Y356000D01*
Y364000D01*
X475507Y364212D01*
X475948Y364447D01*
X477451Y362944D01*
Y362427D01*
X476943Y361765D01*
X476590Y360914D01*
X476470Y360000D01*
X476590Y359086D01*
X476943Y358235D01*
X477504Y357504D01*
X478235Y356943D01*
X479086Y356590D01*
X480000Y356470D01*
X480914Y356590D01*
X481765Y356943D01*
X482496Y357504D01*
X483057Y358235D01*
X483410Y359086D01*
X483530Y360000D01*
X483410Y360914D01*
X483057Y361765D01*
X482549Y362427D01*
Y364000D01*
X482355Y364976D01*
X481802Y365802D01*
X472802Y374802D01*
X471976Y375355D01*
X471000Y375549D01*
X437056D01*
X434549Y378056D01*
Y388494D01*
X436000D01*
Y395494D01*
X428000D01*
Y388494D01*
X429451D01*
Y377000D01*
X429451Y377000D01*
X429451D01*
X429645Y376025D01*
X430198Y375198D01*
X433755Y371640D01*
X433706Y371142D01*
X433198Y370802D01*
X432914Y370519D01*
X432086Y370410D01*
X431235Y370057D01*
X430504Y369496D01*
X429943Y368765D01*
X429590Y367914D01*
X429470Y367000D01*
X429590Y366086D01*
X429943Y365235D01*
X430504Y364504D01*
X430861Y364229D01*
X430701Y363756D01*
X425132D01*
Y360500D01*
X434006D01*
Y360000D01*
X434506D01*
Y356244D01*
X442880D01*
Y356974D01*
X444320D01*
X444361Y356943D01*
X445212Y356590D01*
X445626Y356536D01*
Y360000D01*
Y363464D01*
X445212Y363410D01*
X444361Y363057D01*
X444320Y363026D01*
X442880D01*
Y363756D01*
X435299D01*
X435139Y364229D01*
X435496Y364504D01*
X436057Y365235D01*
X436410Y366086D01*
X436458Y366451D01*
X466944D01*
X470451Y362944D01*
Y357056D01*
X467198Y353802D01*
X466645Y352976D01*
X466451Y352000D01*
Y338427D01*
X465943Y337765D01*
X465590Y336914D01*
X465470Y336000D01*
X465590Y335086D01*
X465943Y334235D01*
X466504Y333504D01*
X466861Y333229D01*
X466701Y332756D01*
X462583D01*
Y328530D01*
X457650D01*
Y347657D01*
X461496Y351504D01*
X462057Y352235D01*
X462410Y353086D01*
X462530Y354000D01*
X462530Y354000D01*
Y356244D01*
X467874D01*
Y363756D01*
X450126D01*
Y360254D01*
X450095Y360252D01*
Y359748D01*
X450126Y359746D01*
Y356244D01*
X455470D01*
Y355462D01*
X451623Y351616D01*
X451062Y350885D01*
X450710Y350033D01*
X450589Y349120D01*
Y336669D01*
X450127Y336477D01*
X442802Y343802D01*
X441975Y344355D01*
X441000Y344549D01*
X434056D01*
X404802Y373802D01*
X404499Y374005D01*
X404494Y374017D01*
X403853Y374853D01*
X403017Y375494D01*
X402044Y375897D01*
X401000Y376034D01*
X399956Y375897D01*
X398983Y375494D01*
X398147Y374853D01*
X397506Y374017D01*
X397103Y373044D01*
X396966Y372000D01*
X397103Y370956D01*
X397506Y369983D01*
X398147Y369147D01*
X398983Y368506D01*
X399956Y368103D01*
X401000Y367966D01*
X402044Y368103D01*
X402927Y368468D01*
X407177Y364218D01*
X406986Y363756D01*
X390252D01*
Y356244D01*
X397889D01*
X420782Y333352D01*
X420590Y332890D01*
X419000D01*
Y317110D01*
X422375D01*
Y268449D01*
X410284D01*
D01*
X410284D01*
X410057Y268676D01*
Y274882D01*
X413936D01*
Y288693D01*
X400125D01*
Y274882D01*
X404005D01*
Y261838D01*
X403971Y261793D01*
X403618Y260942D01*
X403498Y260028D01*
X403618Y259114D01*
X403971Y258263D01*
X404532Y257532D01*
X405263Y256971D01*
X405263Y256971D01*
X405263D01*
X405651Y256706D01*
X405600Y256209D01*
X405235Y256057D01*
X404572Y255549D01*
X404056D01*
X398549Y261056D01*
Y284573D01*
X399057Y285235D01*
X399410Y286086D01*
X399530Y287000D01*
X399410Y287914D01*
X399057Y288765D01*
X398496Y289496D01*
X397765Y290057D01*
X396914Y290410D01*
X396000Y290530D01*
X395086Y290410D01*
X394235Y290057D01*
X393504Y289496D01*
X392943Y288765D01*
X392590Y287914D01*
X392470Y287000D01*
X392590Y286086D01*
X392943Y285235D01*
X393451Y284573D01*
Y260000D01*
X393451Y260000D01*
X393451D01*
X393645Y259025D01*
X394198Y258198D01*
X401198Y251198D01*
X401198D01*
X401198Y251198D01*
X401198Y251198D01*
Y251198D01*
X402025Y250645D01*
X403000Y250451D01*
X404572D01*
X405235Y249943D01*
X406086Y249590D01*
X407000Y249470D01*
X407914Y249590D01*
X408765Y249943D01*
X409496Y250504D01*
X409810Y250913D01*
X410284Y250752D01*
Y246764D01*
X431968D01*
Y268449D01*
X429436D01*
Y317110D01*
X432526D01*
X432687Y316637D01*
X432504Y316496D01*
X431943Y315765D01*
X431590Y314914D01*
X431470Y314000D01*
X431590Y313086D01*
X431943Y312235D01*
X432504Y311504D01*
X433235Y310943D01*
X434086Y310590D01*
X435000Y310470D01*
X435914Y310590D01*
X436765Y310943D01*
X437496Y311504D01*
X438057Y312235D01*
X438129Y312409D01*
X438620Y312311D01*
Y312000D01*
X439577D01*
Y308428D01*
X439069Y307765D01*
X438716Y306914D01*
X438596Y306000D01*
X438716Y305086D01*
X439069Y304235D01*
X439630Y303504D01*
X440361Y302943D01*
X441212Y302590D01*
X442126Y302470D01*
X443040Y302590D01*
X443891Y302943D01*
X444622Y303504D01*
X445183Y304235D01*
X445536Y305086D01*
X445656Y306000D01*
X445536Y306914D01*
X445183Y307765D01*
X444675Y308428D01*
Y312000D01*
X445620D01*
Y320000D01*
X438620D01*
Y317549D01*
X435000D01*
X434721Y317493D01*
X434086Y317410D01*
X433235Y317057D01*
X432811Y317610D01*
Y321470D01*
X438620D01*
Y321000D01*
X445620D01*
Y324771D01*
X445650Y325000D01*
X445620Y325229D01*
Y329000D01*
X438620D01*
Y328530D01*
X432811D01*
Y332890D01*
X429436D01*
Y333221D01*
X429315Y334134D01*
X428963Y334986D01*
X428402Y335717D01*
X407963Y356155D01*
X408000Y356244D01*
X408000D01*
X408000Y356244D01*
Y362742D01*
X408462Y362933D01*
X431198Y340198D01*
X431198D01*
X431198Y340198D01*
X431198Y340198D01*
Y340198D01*
X432024Y339645D01*
X433000Y339451D01*
X439944D01*
X446451Y332944D01*
Y319000D01*
X446645Y318024D01*
X447198Y317198D01*
X450198Y314198D01*
X450620Y313916D01*
Y312000D01*
X454515D01*
X459608Y306907D01*
X459716Y306086D01*
X460069Y305235D01*
X460630Y304504D01*
X461361Y303943D01*
X462212Y303590D01*
X463126Y303470D01*
X464040Y303590D01*
X464891Y303943D01*
X465510Y304417D01*
X465958Y304196D01*
Y267244D01*
X465958Y267244D01*
X465958D01*
X466078Y266330D01*
X466431Y265479D01*
X466992Y264748D01*
X468284Y263456D01*
Y246764D01*
X489968D01*
Y246764D01*
X490098D01*
X490451Y246410D01*
Y240056D01*
X482944Y232549D01*
X472147D01*
X472057Y232765D01*
X471496Y233496D01*
X470765Y234057D01*
X469914Y234410D01*
X469000Y234530D01*
X468086Y234410D01*
X467235Y234057D01*
X466504Y233496D01*
X465943Y232765D01*
X465590Y231914D01*
X465470Y231000D01*
X465590Y230086D01*
X465943Y229235D01*
X466504Y228504D01*
X467235Y227943D01*
X467283Y227923D01*
X467218Y227427D01*
X467086Y227410D01*
X466235Y227057D01*
X465504Y226496D01*
X464943Y225765D01*
X464590Y224914D01*
X464470Y224000D01*
X464590Y223086D01*
X464943Y222235D01*
X465504Y221504D01*
X466235Y220943D01*
X467086Y220590D01*
X467137Y220583D01*
X468342Y219378D01*
X468283Y219236D01*
X468283D01*
X468284Y219236D01*
Y198380D01*
X431968D01*
Y199974D01*
X438320D01*
X438361Y199943D01*
X439212Y199590D01*
X440126Y199470D01*
X441040Y199590D01*
X441891Y199943D01*
X442622Y200504D01*
X443183Y201235D01*
X443536Y202086D01*
X443656Y203000D01*
X443536Y203914D01*
X443183Y204765D01*
X442622Y205496D01*
X441891Y206057D01*
X441040Y206410D01*
X440126Y206530D01*
X439212Y206410D01*
X438361Y206057D01*
X438320Y206026D01*
X431968D01*
Y219236D01*
X410284D01*
Y212757D01*
X409907Y212427D01*
X409126Y212530D01*
X408212Y212410D01*
X407361Y212057D01*
X406630Y211496D01*
X406069Y210765D01*
X405716Y209914D01*
X405596Y209000D01*
X405716Y208086D01*
X406069Y207235D01*
X406630Y206504D01*
X407361Y205943D01*
X408212Y205590D01*
X409126Y205470D01*
X409907Y205573D01*
X410284Y205243D01*
Y198380D01*
X375545D01*
Y241370D01*
X376044Y241403D01*
X376103Y240956D01*
X376506Y239983D01*
X377147Y239147D01*
X391147Y225147D01*
X391983Y224506D01*
X392956Y224103D01*
X394000Y223966D01*
X394000Y223966D01*
X406000D01*
X407044Y224103D01*
X408017Y224506D01*
X408853Y225147D01*
X409494Y225983D01*
X409897Y226956D01*
X410035Y228000D01*
X409897Y229044D01*
X409494Y230017D01*
X408853Y230853D01*
X408017Y231494D01*
X407044Y231897D01*
X406000Y232034D01*
X395671D01*
X384034Y243671D01*
Y334379D01*
X384496Y334571D01*
X391441Y327626D01*
Y317110D01*
X394816D01*
Y310472D01*
X394936Y309558D01*
X395289Y308707D01*
X395850Y307975D01*
X400332Y303494D01*
X400225Y303141D01*
X400092Y301787D01*
X400225Y300434D01*
X400620Y299132D01*
X401261Y297932D01*
X402124Y296881D01*
X403176Y296018D01*
X404375Y295377D01*
X405677Y294982D01*
X407031Y294848D01*
X408384Y294982D01*
X409686Y295377D01*
X410886Y296018D01*
X411937Y296881D01*
X412800Y297932D01*
X413441Y299132D01*
X413836Y300434D01*
X413970Y301787D01*
X413836Y303141D01*
X413441Y304443D01*
X412800Y305643D01*
X411937Y306694D01*
X410886Y307557D01*
X409686Y308198D01*
X408384Y308593D01*
X407031Y308726D01*
X405677Y308593D01*
X405325Y308486D01*
X401877Y311934D01*
Y317110D01*
X405252D01*
Y332890D01*
X394736D01*
X389026Y338600D01*
Y346349D01*
X389499Y346510D01*
X389504Y346504D01*
X390235Y345943D01*
X391086Y345590D01*
X392000Y345470D01*
X392818Y345578D01*
X401198Y337198D01*
X401198D01*
X401198Y337198D01*
X401198Y337198D01*
Y337198D01*
X402025Y336645D01*
X403000Y336451D01*
X405573D01*
X406235Y335943D01*
X407086Y335590D01*
X408000Y335470D01*
X408914Y335590D01*
X409765Y335943D01*
X410496Y336504D01*
X411057Y337235D01*
X411410Y338086D01*
X411530Y339000D01*
X411410Y339914D01*
X411057Y340765D01*
X410496Y341496D01*
X409765Y342057D01*
X408914Y342410D01*
X408000Y342530D01*
X407086Y342410D01*
X406235Y342057D01*
X405573Y341549D01*
X404056D01*
X395211Y350394D01*
X395057Y350765D01*
X394496Y351496D01*
X393765Y352057D01*
X392914Y352410D01*
X392000Y352530D01*
X391086Y352410D01*
X390235Y352057D01*
X389504Y351496D01*
X389499Y351490D01*
X389026Y351651D01*
Y387753D01*
X392779Y391506D01*
X396000D01*
Y398506D01*
X395026D01*
Y408747D01*
X397279Y411000D01*
X400500D01*
Y419000D01*
X393500D01*
Y415779D01*
X389860Y412140D01*
X389380Y411513D01*
X389291Y411299D01*
X389077Y410783D01*
X388974Y410000D01*
Y398506D01*
X388000D01*
Y395286D01*
X384496Y391782D01*
X384034Y391973D01*
Y419203D01*
X427458Y462626D01*
X434382D01*
Y470115D01*
X434523Y470456D01*
X434523Y470456D01*
X434523Y470456D01*
Y470456D01*
X434660Y471500D01*
X434660Y471500D01*
Y475215D01*
X438876Y479431D01*
X439518Y480266D01*
X439921Y481239D01*
X440058Y482283D01*
X439921Y483328D01*
X439518Y484301D01*
X438876Y485136D01*
X438041Y485778D01*
X437068Y486180D01*
X436024Y486318D01*
X434979Y486180D01*
X434006Y485778D01*
X433171Y485136D01*
X428408Y480374D01*
X426870D01*
Y478271D01*
X426729Y477930D01*
X426591Y476886D01*
X426591Y476886D01*
Y473171D01*
X377147Y423727D01*
X376506Y422891D01*
X376103Y421918D01*
X376044Y421471D01*
X375545Y421504D01*
Y477982D01*
X376030Y478104D01*
X376444Y477329D01*
X377553Y475978D01*
X378904Y474869D01*
X380446Y474045D01*
X382119Y473538D01*
X383858Y473366D01*
X385598Y473538D01*
X387271Y474045D01*
X388812Y474869D01*
X390163Y475978D01*
X391272Y477329D01*
X392096Y478871D01*
X392604Y480544D01*
X392775Y482283D01*
X392604Y484023D01*
X392096Y485696D01*
X391272Y487237D01*
X390163Y488589D01*
X388812Y489698D01*
X388038Y490112D01*
X388159Y490597D01*
X513000D01*
Y451485D01*
D02*
G37*
G36*
X674954Y490112D02*
X674180Y489698D01*
X672829Y488589D01*
X671720Y487237D01*
X670896Y485696D01*
X670388Y484023D01*
X670266Y482784D01*
X679134D01*
Y482283D01*
X679634D01*
Y473416D01*
X680873Y473538D01*
X682546Y474045D01*
X684088Y474869D01*
X685439Y475978D01*
X686548Y477329D01*
X686962Y478104D01*
X687447Y477982D01*
Y268614D01*
X686999Y268393D01*
X686584Y268711D01*
X685862Y269010D01*
X685087Y269112D01*
X681650D01*
Y264150D01*
Y259187D01*
X685087D01*
X685862Y259289D01*
X686584Y259588D01*
X686999Y259907D01*
X687447Y259685D01*
Y252945D01*
X674244D01*
Y243071D01*
X677463D01*
Y225000D01*
X677494Y224771D01*
Y221000D01*
X684494D01*
Y224771D01*
X684524Y225000D01*
Y243071D01*
X687447D01*
Y198380D01*
X541884D01*
Y245071D01*
X544463D01*
Y229000D01*
X544494Y228771D01*
Y225000D01*
X551494D01*
Y228771D01*
X551524Y229000D01*
Y245071D01*
X555055D01*
Y254945D01*
X541884D01*
Y261661D01*
X542332Y261882D01*
X542716Y261588D01*
X543438Y261289D01*
X544213Y261187D01*
X547650D01*
Y266150D01*
X548150D01*
Y266650D01*
X555081D01*
Y268118D01*
X554979Y268893D01*
X554680Y269615D01*
X554204Y270235D01*
X553584Y270711D01*
X552862Y271010D01*
X552087Y271112D01*
X552035D01*
Y276000D01*
X551897Y277044D01*
X551494Y278017D01*
X550853Y278853D01*
X550017Y279494D01*
X549044Y279897D01*
X548000Y280034D01*
X546956Y279897D01*
X545983Y279494D01*
X545147Y278853D01*
X544506Y278017D01*
X544103Y277044D01*
X543965Y276000D01*
Y271080D01*
X543438Y271010D01*
X542716Y270711D01*
X542332Y270417D01*
X541884Y270638D01*
Y429134D01*
X541767Y429719D01*
X541436Y430215D01*
X540940Y430547D01*
X540354Y430663D01*
X539370D01*
Y452756D01*
X515748D01*
Y490597D01*
X674833D01*
X674954Y490112D01*
D02*
G37*
G36*
X548500Y279969D02*
Y276000D01*
X547500D01*
Y279969D01*
X547500D01*
X548500D01*
X548500D01*
D02*
G37*
%LPC*%
G36*
X449590Y359500D02*
X446626D01*
Y356536D01*
X447040Y356590D01*
X447891Y356943D01*
X448622Y357504D01*
X449183Y358235D01*
X449536Y359086D01*
X449590Y359500D01*
D02*
G37*
G36*
X552914Y367500D02*
X543086D01*
X543190Y366711D01*
X543687Y365510D01*
X544479Y364479D01*
X545510Y363687D01*
X546566Y363250D01*
Y362750D01*
X545510Y362313D01*
X544479Y361521D01*
X543687Y360490D01*
X543190Y359289D01*
X543086Y358500D01*
X552914D01*
X552810Y359289D01*
X552313Y360490D01*
X551521Y361521D01*
X550490Y362313D01*
X549434Y362750D01*
Y363250D01*
X550490Y363687D01*
X551521Y364479D01*
X552313Y365510D01*
X552810Y366711D01*
X552914Y367500D01*
D02*
G37*
G36*
X493380Y359500D02*
X485006D01*
Y356244D01*
X493380D01*
Y359500D01*
D02*
G37*
G36*
X502754D02*
X494380D01*
Y356244D01*
X502754D01*
Y359500D01*
D02*
G37*
G36*
X616589Y406980D02*
X598841D01*
Y403724D01*
X603681D01*
Y382500D01*
X591500D01*
Y364500D01*
X613000D01*
Y382500D01*
X611750D01*
Y403724D01*
X616589D01*
Y406980D01*
D02*
G37*
G36*
X654500Y382500D02*
X633000D01*
Y364500D01*
X654500D01*
Y382500D01*
D02*
G37*
G36*
X446626Y363464D02*
Y360500D01*
X449590D01*
X449536Y360914D01*
X449183Y361765D01*
X448622Y362496D01*
X447891Y363057D01*
X447040Y363410D01*
X446626Y363464D01*
D02*
G37*
G36*
X590500Y382500D02*
X569000D01*
Y364500D01*
X590500D01*
Y382500D01*
D02*
G37*
G36*
X433506Y359500D02*
X425132D01*
Y356244D01*
X433506D01*
Y359500D01*
D02*
G37*
G36*
X664380Y219500D02*
X656006D01*
Y216244D01*
X663495D01*
X663836Y216103D01*
X664380Y216031D01*
Y219500D01*
D02*
G37*
G36*
X456000Y267530D02*
X455086Y267410D01*
X454235Y267057D01*
X453573Y266549D01*
X445000D01*
X444025Y266355D01*
X443198Y265802D01*
X437914Y260519D01*
X437086Y260410D01*
X436235Y260057D01*
X435504Y259496D01*
X434943Y258765D01*
X434590Y257914D01*
X434470Y257000D01*
X434590Y256086D01*
X434943Y255235D01*
X435504Y254504D01*
X436235Y253943D01*
X437086Y253590D01*
X438000Y253470D01*
X438914Y253590D01*
X439765Y253943D01*
X440496Y254504D01*
X441057Y255235D01*
X441410Y256086D01*
X441519Y256914D01*
X446056Y261451D01*
X453573D01*
X454235Y260943D01*
X455086Y260590D01*
X456000Y260470D01*
X456914Y260590D01*
X457765Y260943D01*
X458496Y261504D01*
X459057Y262235D01*
X459410Y263086D01*
X459530Y264000D01*
X459410Y264914D01*
X459057Y265765D01*
X458496Y266496D01*
X457765Y267057D01*
X456914Y267410D01*
X456000Y267530D01*
D02*
G37*
G36*
X673754Y219500D02*
X665380D01*
Y216031D01*
X665925Y216103D01*
X666265Y216244D01*
X673754D01*
Y219500D01*
D02*
G37*
G36*
X637000Y422530D02*
X636086Y422410D01*
X635235Y422057D01*
X634504Y421496D01*
X633943Y420765D01*
X633590Y419914D01*
X633470Y419000D01*
Y412756D01*
X628126D01*
Y405244D01*
X633470D01*
Y395462D01*
X624504Y386496D01*
X623943Y385765D01*
X623590Y384914D01*
X623470Y384000D01*
Y341600D01*
X623470Y341600D01*
X623470D01*
X623590Y340686D01*
X623943Y339835D01*
X624504Y339104D01*
X638500Y325108D01*
Y319000D01*
X644700D01*
D01*
X644700D01*
X644770Y318930D01*
Y314449D01*
X637157D01*
Y313530D01*
X634000D01*
X633086Y313410D01*
X632235Y313057D01*
X631504Y312496D01*
X630943Y311765D01*
X630590Y310914D01*
X630470Y310000D01*
X630590Y309086D01*
X630943Y308235D01*
X631504Y307504D01*
X632235Y306943D01*
X633086Y306590D01*
X634000Y306470D01*
X637157D01*
Y292764D01*
X658170D01*
Y269556D01*
X653850Y265236D01*
X637157D01*
Y248544D01*
X627504Y238890D01*
X626943Y238159D01*
X626590Y237307D01*
X626470Y236394D01*
Y223756D01*
X621126D01*
Y216244D01*
X626470D01*
Y213000D01*
X626590Y212086D01*
X626943Y211235D01*
X627504Y210504D01*
X633504Y204504D01*
X633504Y204504D01*
X633504D01*
X633504Y204504D01*
X633504D01*
X633504Y204504D01*
Y204504D01*
Y204504D01*
D01*
D01*
X633504D01*
Y204504D01*
X634235Y203943D01*
X635086Y203590D01*
X636000Y203470D01*
X671994D01*
X672907Y203590D01*
X673759Y203943D01*
X674490Y204504D01*
X681986Y212000D01*
X684494D01*
Y215771D01*
X684524Y216000D01*
X684494Y216229D01*
Y220000D01*
X677494D01*
Y217493D01*
X670531Y210530D01*
X637462D01*
X633530Y214462D01*
Y216244D01*
X638874D01*
Y223756D01*
X633530D01*
Y232540D01*
X633914Y232590D01*
X634765Y232943D01*
X635496Y233504D01*
X636057Y234235D01*
X636410Y235086D01*
X636530Y236000D01*
X636410Y236914D01*
X636147Y237548D01*
X642150Y243551D01*
X658843D01*
Y260244D01*
X663904Y265305D01*
X664365Y265113D01*
Y239447D01*
X664086Y239410D01*
X663235Y239057D01*
X662504Y238496D01*
X661943Y237765D01*
X661590Y236914D01*
X661536Y236500D01*
X665000D01*
Y235500D01*
X661536D01*
X661590Y235086D01*
X661943Y234235D01*
X662504Y233504D01*
X663235Y232943D01*
X664086Y232590D01*
X664365Y232553D01*
Y225191D01*
X662930Y223756D01*
X656006D01*
Y220500D01*
X673754D01*
Y223756D01*
X672435D01*
Y260115D01*
X675056D01*
X675095Y260064D01*
X675715Y259588D01*
X676438Y259289D01*
X677213Y259187D01*
X680650D01*
Y264150D01*
Y269112D01*
X677213D01*
X676438Y269010D01*
X675715Y268711D01*
X675095Y268235D01*
X675056Y268184D01*
X672435D01*
Y306806D01*
X672765Y306943D01*
X673496Y307504D01*
X674057Y308235D01*
X674410Y309086D01*
X674464Y309500D01*
X671000D01*
Y310500D01*
X674464D01*
X674410Y310914D01*
X674057Y311765D01*
X673496Y312496D01*
X672765Y313057D01*
X672435Y313194D01*
Y327000D01*
Y345500D01*
X677000D01*
Y363500D01*
X633000D01*
Y345500D01*
X650965D01*
Y335000D01*
X645200D01*
Y329031D01*
X644950Y328826D01*
X644700Y329031D01*
Y335000D01*
X638592D01*
X630530Y343062D01*
Y382538D01*
X639496Y391504D01*
X640057Y392235D01*
X640410Y393086D01*
X640530Y394000D01*
X640530Y394000D01*
Y405244D01*
X645874D01*
Y412756D01*
X640530D01*
Y419000D01*
X640410Y419914D01*
X640057Y420765D01*
X639496Y421496D01*
X638765Y422057D01*
X637914Y422410D01*
X637000Y422530D01*
D02*
G37*
G36*
X609754Y219500D02*
X601380D01*
Y216031D01*
X601925Y216103D01*
X602265Y216244D01*
X609754D01*
Y219500D01*
D02*
G37*
G36*
X600380D02*
X592006D01*
Y216244D01*
X599495D01*
X599836Y216103D01*
X600380Y216031D01*
Y219500D01*
D02*
G37*
G36*
X555081Y265650D02*
X548650D01*
Y261187D01*
X552087D01*
X552862Y261289D01*
X553584Y261588D01*
X554204Y262064D01*
X554680Y262684D01*
X554979Y263406D01*
X555081Y264181D01*
Y265650D01*
D02*
G37*
G36*
X571000Y421530D02*
X570086Y421410D01*
X569235Y421057D01*
X568504Y420496D01*
X567943Y419765D01*
X567590Y418914D01*
X567470Y418000D01*
Y411236D01*
X563961D01*
Y403724D01*
X569304D01*
Y397297D01*
X561504Y389496D01*
X560943Y388765D01*
X560590Y387914D01*
X560470Y387000D01*
Y340600D01*
X560470Y340600D01*
X560470D01*
X560590Y339686D01*
X560943Y338835D01*
X561504Y338104D01*
X574500Y325108D01*
Y319000D01*
X580700D01*
D01*
X580700D01*
X580770Y318930D01*
Y314449D01*
X573158D01*
Y313530D01*
X566000D01*
X565086Y313410D01*
X564235Y313057D01*
X563504Y312496D01*
X562943Y311765D01*
X562590Y310914D01*
X562470Y310000D01*
X562590Y309086D01*
X562943Y308235D01*
X563504Y307504D01*
X564235Y306943D01*
X565086Y306590D01*
X566000Y306470D01*
X573158D01*
Y292764D01*
X594170D01*
Y269556D01*
X589850Y265236D01*
X586696D01*
X586496Y265496D01*
X551530Y300462D01*
Y313063D01*
X552937D01*
Y322937D01*
X551530D01*
Y324491D01*
X552313Y325510D01*
X552810Y326711D01*
X552980Y328000D01*
X552810Y329289D01*
X552313Y330490D01*
X551521Y331521D01*
X550490Y332312D01*
X549434Y332750D01*
Y333250D01*
X550490Y333687D01*
X551521Y334479D01*
X552313Y335510D01*
X552810Y336711D01*
X552980Y338000D01*
X552810Y339289D01*
X552313Y340490D01*
X551521Y341521D01*
X550490Y342313D01*
X549434Y342750D01*
Y343250D01*
X550490Y343688D01*
X551521Y344479D01*
X552313Y345510D01*
X552810Y346711D01*
X552980Y348000D01*
X552810Y349289D01*
X552313Y350490D01*
X551521Y351521D01*
X550490Y352312D01*
X549434Y352750D01*
Y353250D01*
X550490Y353688D01*
X551521Y354479D01*
X552313Y355510D01*
X552810Y356711D01*
X552914Y357500D01*
X543086D01*
X543190Y356711D01*
X543687Y355510D01*
X544479Y354479D01*
X545510Y353688D01*
X546566Y353250D01*
Y352750D01*
X545510Y352312D01*
X544479Y351521D01*
X543687Y350490D01*
X543190Y349289D01*
X543020Y348000D01*
X543190Y346711D01*
X543687Y345510D01*
X544479Y344479D01*
X545510Y343688D01*
X546566Y343250D01*
Y342750D01*
X545510Y342313D01*
X544479Y341521D01*
X543687Y340490D01*
X543190Y339289D01*
X543020Y338000D01*
X543190Y336711D01*
X543687Y335510D01*
X544479Y334479D01*
X545510Y333687D01*
X546566Y333250D01*
Y332750D01*
X545510Y332312D01*
X544479Y331521D01*
X543687Y330490D01*
X543190Y329289D01*
X543020Y328000D01*
X543190Y326711D01*
X543687Y325510D01*
X544470Y324491D01*
Y322937D01*
X543063D01*
Y313063D01*
X544470D01*
Y299000D01*
X544470Y299000D01*
X544470D01*
X544590Y298086D01*
X544943Y297235D01*
X545504Y296504D01*
X576309Y265698D01*
X576118Y265236D01*
X573158D01*
Y248544D01*
X563504Y238890D01*
X562943Y238159D01*
X562590Y237307D01*
X562470Y236394D01*
Y223756D01*
X557126D01*
Y223530D01*
X551494D01*
Y224000D01*
X544494D01*
Y220229D01*
X544463Y220000D01*
X544494Y219771D01*
Y216000D01*
X551494D01*
Y216470D01*
X557126D01*
Y216244D01*
X574874D01*
Y223756D01*
X569530D01*
Y232540D01*
X569914Y232590D01*
X570765Y232943D01*
X571496Y233504D01*
X572057Y234235D01*
X572410Y235086D01*
X572530Y236000D01*
X572410Y236914D01*
X572147Y237548D01*
X578150Y243551D01*
X594842D01*
Y260244D01*
X599903Y265305D01*
X600365Y265113D01*
Y239111D01*
X600235Y239057D01*
X599504Y238496D01*
X598943Y237765D01*
X598590Y236914D01*
X598536Y236500D01*
X602000D01*
Y235500D01*
X598536D01*
X598590Y235086D01*
X598943Y234235D01*
X599504Y233504D01*
X600235Y232943D01*
X600365Y232889D01*
Y225191D01*
X598931Y223756D01*
X592006D01*
Y220500D01*
X609754D01*
Y223756D01*
X608434D01*
Y306456D01*
X608496Y306504D01*
X609057Y307235D01*
X609410Y308086D01*
X609464Y308500D01*
X606000D01*
Y309500D01*
X609464D01*
X609410Y309914D01*
X609057Y310765D01*
X608496Y311496D01*
X608434Y311544D01*
Y327000D01*
Y345500D01*
X613000D01*
Y363500D01*
X569000D01*
Y345500D01*
X586966D01*
Y335000D01*
X581200D01*
Y329031D01*
X580950Y328826D01*
X580700Y329031D01*
Y335000D01*
X574592D01*
X567530Y342062D01*
Y385538D01*
X575331Y393338D01*
X575892Y394070D01*
X576245Y394921D01*
X576365Y395835D01*
Y403724D01*
X581709D01*
Y411236D01*
X574530D01*
Y418000D01*
X574410Y418914D01*
X574057Y419765D01*
X573496Y420496D01*
X572765Y421057D01*
X571914Y421410D01*
X571000Y421530D01*
D02*
G37*
G36*
X680754Y408500D02*
X663006D01*
Y405244D01*
X667846D01*
Y382552D01*
X667794Y382500D01*
X655500D01*
Y364500D01*
X677000D01*
Y382500D01*
X675915D01*
Y405244D01*
X680754D01*
Y408500D01*
D02*
G37*
G36*
X396500Y428000D02*
X393500D01*
Y424500D01*
X396500D01*
Y428000D01*
D02*
G37*
G36*
X489882Y445994D02*
X486626D01*
Y437120D01*
Y428246D01*
X489882D01*
Y432966D01*
X500126D01*
X501170Y433103D01*
X502143Y433506D01*
X502979Y434147D01*
X503620Y434983D01*
X504023Y435956D01*
X504095Y436500D01*
X500126D01*
Y437500D01*
X504095D01*
Y437500D01*
Y436500D01*
X504160Y437000D01*
X504023Y438044D01*
X503620Y439017D01*
X502979Y439853D01*
X502143Y440494D01*
X501170Y440897D01*
X500126Y441035D01*
X489882D01*
Y445994D01*
D02*
G37*
G36*
X553677Y479480D02*
X552109Y479325D01*
X550601Y478868D01*
X549211Y478125D01*
X547993Y477125D01*
X546993Y475907D01*
X546590Y475153D01*
X538764D01*
X538361Y475907D01*
X537361Y477125D01*
X536143Y478125D01*
X534753Y478868D01*
X533245Y479325D01*
X531677Y479480D01*
X530109Y479325D01*
X528601Y478868D01*
X527211Y478125D01*
X525993Y477125D01*
X524993Y475907D01*
X524250Y474517D01*
X523793Y473009D01*
X523638Y471441D01*
X523793Y469873D01*
X524250Y468365D01*
X524993Y466975D01*
X525993Y465757D01*
X527211Y464757D01*
X528601Y464014D01*
X530109Y463557D01*
X531677Y463402D01*
X533245Y463557D01*
X534753Y464014D01*
X536143Y464757D01*
X537361Y465757D01*
X538361Y466975D01*
X538419Y467084D01*
X546935D01*
X546993Y466975D01*
X547993Y465757D01*
X549211Y464757D01*
X549965Y464354D01*
Y440006D01*
X550000Y439744D01*
Y436506D01*
X551997D01*
X552956Y436109D01*
X554000Y435972D01*
X555044Y436109D01*
X556003Y436506D01*
X558000D01*
Y439744D01*
X558035Y440006D01*
Y464699D01*
X558143Y464757D01*
X559361Y465757D01*
X560361Y466975D01*
X561104Y468365D01*
X561561Y469873D01*
X561716Y471441D01*
X561561Y473009D01*
X561104Y474517D01*
X560361Y475907D01*
X559361Y477125D01*
X558143Y478125D01*
X556753Y478868D01*
X555245Y479325D01*
X553677Y479480D01*
D02*
G37*
G36*
X400500Y428000D02*
X397500D01*
Y424000D01*
Y420000D01*
X400500D01*
Y420974D01*
X401194D01*
X401235Y420943D01*
X402086Y420590D01*
X402500Y420536D01*
Y424000D01*
Y427464D01*
X402086Y427410D01*
X401235Y427057D01*
X401194Y427026D01*
X400500D01*
Y428000D01*
D02*
G37*
G36*
X485626Y445994D02*
X482370D01*
Y440654D01*
X434382D01*
Y445494D01*
X431126D01*
Y436620D01*
X430126D01*
Y445494D01*
X426870D01*
Y439646D01*
X421620D01*
X420836Y439542D01*
X420409Y439365D01*
X420107Y439240D01*
X419480Y438759D01*
X407747Y427026D01*
X404806D01*
X404765Y427057D01*
X403914Y427410D01*
X403500Y427464D01*
Y424000D01*
Y420536D01*
X403914Y420590D01*
X404765Y420943D01*
X404806Y420974D01*
X409000D01*
X409783Y421077D01*
X410299Y421291D01*
X410513Y421380D01*
X411140Y421860D01*
X422873Y433594D01*
X426870D01*
Y427746D01*
X427600D01*
Y425387D01*
X427703Y424604D01*
X427917Y424088D01*
X428006Y423874D01*
X428486Y423247D01*
X435590Y416144D01*
X435597Y416093D01*
X435949Y415241D01*
X436510Y414510D01*
X436524Y414499D01*
X436364Y414026D01*
X410000D01*
X409217Y413923D01*
X408701Y413709D01*
X408487Y413621D01*
X407860Y413140D01*
X398860Y404140D01*
X398379Y403513D01*
X398291Y403299D01*
X398077Y402783D01*
X397974Y402000D01*
Y398506D01*
X397000D01*
Y391506D01*
X397974D01*
Y385000D01*
X398077Y384217D01*
X398291Y383701D01*
X398379Y383487D01*
X398860Y382860D01*
X402360Y379360D01*
X402987Y378879D01*
X403352Y378728D01*
X403375Y378719D01*
X403735Y378443D01*
X404586Y378090D01*
X405500Y377970D01*
X406414Y378090D01*
X407265Y378443D01*
X407996Y379004D01*
X408557Y379735D01*
X408910Y380586D01*
X409030Y381500D01*
X408995Y381766D01*
X409026Y382000D01*
X408923Y382783D01*
X408621Y383513D01*
X408140Y384140D01*
X407513Y384620D01*
X406783Y384923D01*
X406000Y385026D01*
X405766Y384995D01*
X405500Y385030D01*
X405278Y385001D01*
X404026Y386253D01*
Y391506D01*
X404830D01*
X404943Y391235D01*
X405504Y390504D01*
X406235Y389943D01*
X407086Y389590D01*
X407645Y389517D01*
X408006Y389445D01*
X419000D01*
Y388494D01*
X427000D01*
Y395494D01*
X419000D01*
Y394543D01*
X411149D01*
X411057Y394765D01*
X410496Y395496D01*
X409765Y396057D01*
X408914Y396410D01*
X408000Y396530D01*
X407086Y396410D01*
X406235Y396057D01*
X405504Y395496D01*
X405474Y395457D01*
X405000Y395618D01*
Y398506D01*
X404026D01*
Y400747D01*
X411253Y407974D01*
X451494D01*
Y406549D01*
X450000D01*
X449024Y406355D01*
X448198Y405802D01*
X442606Y400211D01*
X442235Y400057D01*
X441504Y399496D01*
X440943Y398765D01*
X440590Y397914D01*
X440507Y397279D01*
X440451Y397000D01*
X440507Y396721D01*
X440590Y396086D01*
X440943Y395235D01*
X441504Y394504D01*
X442235Y393943D01*
X443086Y393590D01*
X444000Y393470D01*
X444914Y393590D01*
X445765Y393943D01*
X446496Y394504D01*
X447057Y395235D01*
X447410Y396086D01*
X447530Y397000D01*
X447423Y397818D01*
X451032Y401427D01*
X451494Y401235D01*
Y400000D01*
X458494D01*
Y403754D01*
X458543Y404000D01*
X458494Y404246D01*
Y407974D01*
X473994D01*
X474777Y408077D01*
X475293Y408291D01*
X475506Y408380D01*
X476133Y408860D01*
X480779Y413506D01*
X484000D01*
Y420506D01*
X476000D01*
Y417286D01*
X472740Y414026D01*
X441649D01*
X441489Y414499D01*
X441503Y414510D01*
X442064Y415241D01*
X442416Y416093D01*
X442471Y416506D01*
X439006D01*
Y417506D01*
X442471D01*
X442416Y417920D01*
X442064Y418772D01*
X441503Y419503D01*
X440771Y420064D01*
X439920Y420416D01*
X439869Y420423D01*
X433652Y426640D01*
Y427746D01*
X434382D01*
Y432585D01*
X482370D01*
Y428246D01*
X485626D01*
Y437120D01*
Y445994D01*
D02*
G37*
G36*
X665118Y478810D02*
X658713D01*
Y472405D01*
X665118D01*
Y478810D01*
D02*
G37*
G36*
X678634Y481783D02*
X670266D01*
X670388Y480544D01*
X670896Y478871D01*
X671720Y477329D01*
X672829Y475978D01*
X674180Y474869D01*
X675722Y474045D01*
X677394Y473538D01*
X678634Y473416D01*
Y481783D01*
D02*
G37*
G36*
X596945Y446756D02*
X587071D01*
Y443032D01*
X567000D01*
Y443506D01*
X559000D01*
Y436506D01*
X567000D01*
Y436980D01*
X587071D01*
Y432945D01*
X596945D01*
Y446756D01*
D02*
G37*
G36*
X657713Y478810D02*
X651307D01*
Y472405D01*
X657713D01*
Y478810D01*
D02*
G37*
G36*
X611677Y479480D02*
X610109Y479325D01*
X608601Y478868D01*
X607211Y478125D01*
X605993Y477125D01*
X605020Y475939D01*
X596335D01*
X595361Y477125D01*
X594143Y478125D01*
X592753Y478868D01*
X591245Y479325D01*
X589677Y479480D01*
X588109Y479325D01*
X586601Y478868D01*
X585211Y478125D01*
X583993Y477125D01*
X582993Y475907D01*
X582250Y474517D01*
X581793Y473009D01*
X581638Y471441D01*
X581793Y469873D01*
X582250Y468365D01*
X582993Y466975D01*
X583993Y465757D01*
X585211Y464757D01*
X586601Y464014D01*
X588109Y463557D01*
X589677Y463402D01*
X591245Y463557D01*
X592753Y464014D01*
X594143Y464757D01*
X595361Y465757D01*
X596361Y466975D01*
X596840Y467870D01*
X604515D01*
X604993Y466975D01*
X605993Y465757D01*
X607211Y464757D01*
X608601Y464014D01*
X610109Y463557D01*
X611677Y463402D01*
X613245Y463557D01*
X614753Y464014D01*
X616143Y464757D01*
X617361Y465757D01*
X618361Y466975D01*
X618840Y467870D01*
X632590D01*
X633306Y466998D01*
X634358Y466135D01*
X635557Y465494D01*
X636859Y465099D01*
X638213Y464966D01*
X639566Y465099D01*
X640868Y465494D01*
X642068Y466135D01*
X643119Y466998D01*
X643982Y468050D01*
X644623Y469249D01*
X645018Y470551D01*
X645152Y471905D01*
X645018Y473258D01*
X644623Y474560D01*
X643982Y475760D01*
X643119Y476811D01*
X642068Y477674D01*
X640868Y478315D01*
X639566Y478710D01*
X638213Y478844D01*
X636859Y478710D01*
X635557Y478315D01*
X634358Y477674D01*
X633306Y476811D01*
X632590Y475939D01*
X618335D01*
X617361Y477125D01*
X616143Y478125D01*
X614753Y478868D01*
X613245Y479325D01*
X611677Y479480D01*
D02*
G37*
G36*
X506500Y384500D02*
X503500D01*
Y381000D01*
X506500D01*
Y384500D01*
D02*
G37*
G36*
X484000Y403506D02*
X476000D01*
Y396506D01*
X476974D01*
Y391494D01*
X476000D01*
Y390019D01*
X454812D01*
X454772Y390051D01*
X453920Y390404D01*
X453179Y390501D01*
X453212Y391000D01*
X458494D01*
Y394754D01*
X458543Y395000D01*
X458494Y395246D01*
Y399000D01*
X451494D01*
Y397000D01*
X451198Y396802D01*
X446204Y391809D01*
X445651Y390982D01*
X445457Y390006D01*
Y383929D01*
X445457Y383929D01*
X445457D01*
X445651Y382954D01*
X446204Y382126D01*
X450133Y378198D01*
X450960Y377645D01*
X451935Y377451D01*
X475784D01*
X476005Y377003D01*
X475823Y376765D01*
X475470Y375914D01*
X475416Y375500D01*
X478880D01*
Y374500D01*
X475416D01*
X475470Y374086D01*
X475823Y373235D01*
X476384Y372504D01*
X477115Y371943D01*
X477967Y371590D01*
X478018Y371583D01*
X485383Y364218D01*
X485192Y363756D01*
X485006D01*
Y360500D01*
X502754D01*
Y363756D01*
X494404D01*
X482297Y375863D01*
X482290Y375914D01*
X481938Y376765D01*
X481755Y377003D01*
X481977Y377451D01*
X483853D01*
X483943Y377235D01*
X484504Y376504D01*
X485235Y375943D01*
X486086Y375590D01*
X487000Y375470D01*
X487914Y375590D01*
X488765Y375943D01*
X489496Y376504D01*
X490057Y377235D01*
X490410Y378086D01*
X490530Y379000D01*
X490410Y379914D01*
X490057Y380765D01*
X489496Y381496D01*
X488765Y382057D01*
X487914Y382410D01*
X487279Y382493D01*
X487000Y382549D01*
X452991D01*
X452486Y383054D01*
X452707Y383503D01*
X453006Y383463D01*
X453920Y383584D01*
X454772Y383936D01*
X454812Y383968D01*
X480000D01*
X480783Y384071D01*
X481513Y384373D01*
X481670Y384494D01*
X484000D01*
Y391494D01*
X483026D01*
Y396506D01*
X484000D01*
Y403506D01*
D02*
G37*
G36*
X547500Y372914D02*
X546711Y372810D01*
X545510Y372312D01*
X544479Y371521D01*
X543687Y370490D01*
X543190Y369289D01*
X543086Y368500D01*
X547500D01*
Y372914D01*
D02*
G37*
G36*
X548500D02*
Y368500D01*
X552914D01*
X552810Y369289D01*
X552313Y370490D01*
X551521Y371521D01*
X550490Y372312D01*
X549289Y372810D01*
X548500Y372914D01*
D02*
G37*
G36*
X507500Y394464D02*
X507086Y394410D01*
X506235Y394057D01*
X505504Y393496D01*
X504943Y392765D01*
X504590Y391914D01*
X504570Y391761D01*
X504380Y391513D01*
X504374Y391500D01*
X507500D01*
Y394464D01*
D02*
G37*
G36*
X665118Y471405D02*
X651307D01*
Y464999D01*
X654178D01*
Y463884D01*
X650329Y460035D01*
X614000D01*
X612956Y459897D01*
X611983Y459494D01*
X611147Y458853D01*
X605297Y453003D01*
X604656Y452167D01*
X604253Y451194D01*
X604115Y450150D01*
X604115Y450149D01*
Y445944D01*
X604064Y445905D01*
X603588Y445285D01*
X603289Y444562D01*
X603187Y443787D01*
Y440350D01*
X613112D01*
Y443787D01*
X613010Y444562D01*
X612711Y445285D01*
X612235Y445905D01*
X612184Y445944D01*
Y448478D01*
X615671Y451966D01*
X652000D01*
X652000Y451966D01*
X653044Y452103D01*
X653762Y452400D01*
X654178Y452123D01*
Y431787D01*
X654178Y431787D01*
X654316Y430743D01*
X654719Y429770D01*
X655360Y428935D01*
X667846Y416448D01*
Y412756D01*
X663006D01*
Y409500D01*
X680754D01*
Y412756D01*
X675915D01*
Y418120D01*
X675915Y418120D01*
X675915Y418120D01*
Y418120D01*
X675915D01*
X675915Y418120D01*
X675777Y419164D01*
X675610Y419567D01*
X675374Y420137D01*
X674733Y420972D01*
X674733Y420972D01*
X662247Y433459D01*
Y462213D01*
Y464999D01*
X665118D01*
Y471405D01*
D02*
G37*
G36*
X396500Y423500D02*
X393500D01*
Y420000D01*
X396500D01*
Y423500D01*
D02*
G37*
G36*
X493000Y420506D02*
X485000D01*
Y413506D01*
X485974D01*
Y403506D01*
X485000D01*
Y396506D01*
X487330D01*
X487487Y396386D01*
X488217Y396084D01*
X489000Y395981D01*
X489783Y396084D01*
X490513Y396386D01*
X490670Y396506D01*
X493000D01*
Y403506D01*
X492026D01*
Y404473D01*
X492914Y404590D01*
X493765Y404943D01*
X494496Y405504D01*
X495057Y406235D01*
X495410Y407086D01*
X495530Y408000D01*
X495410Y408914D01*
X495057Y409765D01*
X494496Y410496D01*
X493765Y411057D01*
X492914Y411410D01*
X492026Y411527D01*
Y413506D01*
X493000D01*
Y420506D01*
D02*
G37*
G36*
X613112Y439350D02*
X603187D01*
Y435913D01*
X603289Y435138D01*
X603588Y434416D01*
X604064Y433796D01*
X604115Y433757D01*
Y418500D01*
X608000D01*
Y417500D01*
X604115D01*
Y411236D01*
X598841D01*
Y407980D01*
X616589D01*
Y411236D01*
X612184D01*
Y433757D01*
X612235Y433796D01*
X612711Y434416D01*
X613010Y435138D01*
X613112Y435913D01*
Y439350D01*
D02*
G37*
%LPD*%
G36*
X655500Y319000D02*
X658100D01*
D01*
X658100D01*
X658170Y318930D01*
Y314449D01*
X651830D01*
Y319000D01*
X651900D01*
Y319000D01*
X654500D01*
Y327000D01*
X655500D01*
Y319000D01*
D02*
G37*
G36*
X591500D02*
X594100D01*
D01*
X594100D01*
X594170Y318930D01*
Y314449D01*
X587830D01*
Y319000D01*
X587900D01*
Y319000D01*
X590500D01*
Y327000D01*
X591500D01*
Y319000D01*
D02*
G37*
D10*
X397000Y415000D02*
D03*
Y424000D02*
D03*
X507000Y376000D02*
D03*
Y385000D02*
D03*
X442120Y325000D02*
D03*
Y316000D02*
D03*
X454120Y325000D02*
D03*
Y316000D02*
D03*
X680994Y216000D02*
D03*
Y225000D02*
D03*
X547994Y220000D02*
D03*
Y229000D02*
D03*
X454994Y404000D02*
D03*
Y395000D02*
D03*
D11*
X421126Y257606D02*
D03*
Y208394D02*
D03*
X479126Y257606D02*
D03*
Y208394D02*
D03*
X648000Y303606D02*
D03*
Y254394D02*
D03*
X584000Y303606D02*
D03*
Y254394D02*
D03*
D12*
X430626Y471500D02*
D03*
Y436620D02*
D03*
X486126Y472000D02*
D03*
Y437120D02*
D03*
D13*
X681150Y264150D02*
D03*
X548150Y266150D02*
D03*
D14*
X681150Y248008D02*
D03*
X548150Y250008D02*
D03*
D15*
X664880Y220000D02*
D03*
X630000D02*
D03*
X600880D02*
D03*
X566000D02*
D03*
X671880Y409000D02*
D03*
X637000D02*
D03*
X607715Y407480D02*
D03*
X572835D02*
D03*
X459000Y360000D02*
D03*
X493880D02*
D03*
X399126D02*
D03*
X434006D02*
D03*
D16*
X655000Y364000D02*
D03*
X591000D02*
D03*
D17*
X641600Y327000D02*
D03*
X648300D02*
D03*
X655000D02*
D03*
X661700D02*
D03*
X668400D02*
D03*
X577600D02*
D03*
X584300D02*
D03*
X591000D02*
D03*
X597700D02*
D03*
X604400D02*
D03*
D18*
X554000Y440006D02*
D03*
X563000D02*
D03*
X392000Y395006D02*
D03*
X401000D02*
D03*
X480000Y417006D02*
D03*
X489000D02*
D03*
X423000Y391994D02*
D03*
X432000D02*
D03*
X489000Y387994D02*
D03*
X480000D02*
D03*
Y400006D02*
D03*
X489000D02*
D03*
D19*
X608150Y439850D02*
D03*
D20*
X592008D02*
D03*
D21*
X497047Y324866D02*
D03*
X469488D02*
D03*
X398346Y325000D02*
D03*
X425906D02*
D03*
D22*
X511000Y291000D02*
X513000Y289000D01*
Y245000D02*
Y289000D01*
X502000Y234000D02*
X513000Y245000D01*
X393000Y349000D02*
X403000Y339000D01*
X392000Y349000D02*
X393000D01*
X401000Y372000D02*
X403000D01*
X433000Y342000D01*
Y367000D02*
X435000Y369000D01*
X468000D01*
X436000Y373000D02*
X471000D01*
X432000Y377000D02*
X436000Y373000D01*
X403000Y339000D02*
X407000D01*
X435000Y315000D02*
X441120D01*
X433000Y342000D02*
X441000D01*
X441120Y315000D02*
X442120Y316000D01*
X441000Y342000D02*
X449000Y334000D01*
Y319000D02*
Y334000D01*
Y319000D02*
X452000Y316000D01*
X454120D01*
X489000Y386994D02*
X507000Y368994D01*
Y376000D01*
Y334819D02*
Y368994D01*
X497047Y324866D02*
X507000Y334819D01*
X442126Y306000D02*
Y315994D01*
X454120Y316000D02*
X463120Y307000D01*
X445000Y264000D02*
X456000D01*
X438000Y257000D02*
X445000Y264000D01*
X481000Y352006D02*
X487000Y346006D01*
Y299000D02*
Y346006D01*
Y299000D02*
X495000Y291000D01*
X511000D01*
X493000Y239000D02*
Y276000D01*
X484000Y230000D02*
X493000Y239000D01*
X469000Y230000D02*
X484000D01*
X481000Y288000D02*
X493000Y276000D01*
X481000Y288000D02*
Y340006D01*
X469000Y336000D02*
Y352000D01*
X473000Y356000D01*
Y364000D01*
X468000Y369000D02*
X473000Y364000D01*
X403000Y253000D02*
X407000D01*
X396000Y260000D02*
X403000Y253000D01*
X396000Y260000D02*
Y287000D01*
X408006Y391994D02*
X423000D01*
X432000Y377000D02*
Y391994D01*
X471000Y373000D02*
X480000Y364000D01*
Y361000D02*
Y364000D01*
X443000Y397000D02*
X444000D01*
X453000Y395000D02*
X455994D01*
X448006Y383929D02*
X451935Y380000D01*
X448006Y390006D02*
X453000Y395000D01*
X448006Y383929D02*
Y390006D01*
X451935Y380000D02*
X487000D01*
X443000Y397000D02*
X450000Y404000D01*
X454994D01*
X455994D01*
D23*
X403000Y424000D02*
X409000D01*
X397000D02*
X403000D01*
X386000Y389006D02*
X392000Y395006D01*
X386000Y337347D02*
Y389006D01*
Y337347D02*
X398346Y325000D01*
X430626Y425387D02*
Y436620D01*
Y425387D02*
X439006Y417006D01*
X421620Y436620D02*
X430626D01*
X409000Y424000D02*
X421620Y436620D01*
X392000Y410000D02*
X397000Y415000D01*
X392000Y395006D02*
Y410000D01*
X507000Y385000D02*
Y390000D01*
X563000Y440006D02*
X591852D01*
X434006Y360000D02*
X446126D01*
X426520Y203000D02*
X440126D01*
X421126Y208394D02*
X426520Y203000D01*
X409126Y209000D02*
X420520D01*
X421126Y208394D01*
X468000Y224000D02*
X472000Y220000D01*
X487000D01*
X489000Y399006D02*
Y417006D01*
X480000Y386994D02*
Y399006D01*
X453006Y386994D02*
X480000D01*
X401000Y395006D02*
Y402000D01*
X407031Y260031D02*
Y281787D01*
X503000Y256000D02*
Y281141D01*
X478880Y375000D02*
X493880Y360000D01*
X405500Y381500D02*
X406000Y382000D01*
X401000Y385000D02*
Y395006D01*
Y385000D02*
X404500Y381500D01*
X405500D01*
X401000Y402000D02*
X410000Y411000D01*
X473994D01*
X480000Y417006D01*
D24*
X380000Y242000D02*
Y420874D01*
X430626Y471500D01*
X380000Y242000D02*
X394000Y228000D01*
X430626Y436620D02*
X485626D01*
X460189Y472000D02*
X486126D01*
X454724Y466535D02*
X460189Y472000D01*
X430626Y471500D02*
Y476886D01*
X436024Y482283D01*
X532000Y471118D02*
X554000D01*
X608150Y407915D02*
Y439850D01*
X604400Y327000D02*
Y377400D01*
X548000Y266299D02*
Y276000D01*
X668400Y223520D02*
Y327000D01*
X668550Y264150D02*
X681150D01*
X604400Y223520D02*
Y327000D01*
X600880Y220000D02*
X604400Y223520D01*
X668400Y327000D02*
Y377400D01*
X664880Y220000D02*
X668400Y223520D01*
X655000Y327000D02*
Y364000D01*
X668400Y377400D02*
X671880Y380880D01*
Y409000D01*
X591000Y327000D02*
Y364000D01*
X604400Y377400D02*
X607715Y380715D01*
Y407480D01*
X554000Y440006D02*
Y471118D01*
X590141Y471905D02*
X638213D01*
X590141D02*
X590605Y471441D01*
X608150Y439850D02*
Y450150D01*
X614000Y456000D01*
X652000D01*
X658213Y462213D01*
Y471905D01*
Y431787D02*
Y462213D01*
Y431787D02*
X671880Y418120D01*
Y409000D02*
Y418120D01*
X486246Y437000D02*
X500126D01*
X486126Y437120D02*
X486577Y437571D01*
X394000Y228000D02*
X406000D01*
X486126Y472000D02*
X515000Y443126D01*
Y305000D02*
Y443126D01*
Y305000D02*
X522000Y298000D01*
Y228000D02*
Y298000D01*
D25*
X630000Y236394D02*
X648000Y254394D01*
X630000Y220000D02*
Y236394D01*
X548000Y299000D02*
X584000Y263000D01*
X548000Y299000D02*
Y318000D01*
Y328000D01*
X671994Y207000D02*
X680994Y216000D01*
X636000Y207000D02*
X671994D01*
X630000Y213000D02*
X636000Y207000D01*
X630000Y213000D02*
Y220000D01*
X680994Y225000D02*
Y247852D01*
X547994Y229000D02*
Y249852D01*
X566000Y220000D02*
Y236394D01*
X547994Y220000D02*
X566000D01*
Y236394D02*
X584000Y254394D01*
X648000D02*
X661700Y268094D01*
Y327000D01*
X584000Y254394D02*
X597700Y268094D01*
Y327000D01*
X648300Y310000D02*
Y327000D01*
X634000Y310000D02*
X648300D01*
X584300D02*
Y327000D01*
X566000Y310000D02*
X584300D01*
X627000Y384000D02*
X637000Y394000D01*
X627000Y341600D02*
Y384000D01*
Y341600D02*
X641600Y327000D01*
X564000Y340600D02*
X577600Y327000D01*
X564000Y340600D02*
Y387000D01*
X572835Y395835D01*
Y407480D01*
X637000Y394000D02*
Y409000D01*
Y419000D01*
X571000Y409315D02*
Y418000D01*
Y409315D02*
X572835Y407480D01*
X454120Y325000D02*
X469354D01*
X425906D02*
X442120D01*
X398346Y310472D02*
Y325000D01*
Y310472D02*
X407031Y301787D01*
X497047Y307094D02*
X502952Y301189D01*
X497047Y307094D02*
Y324866D01*
X425906Y325000D02*
Y333221D01*
X399126Y360000D02*
X425906Y333221D01*
Y262386D02*
Y325000D01*
X469488Y267244D02*
Y324866D01*
Y267244D02*
X479126Y257606D01*
X454120Y325000D02*
Y349120D01*
X459000Y354000D01*
Y360000D01*
D26*
X524000Y318000D02*
D03*
X548000D02*
D03*
D27*
X524000Y328000D02*
D03*
Y338000D02*
D03*
Y348000D02*
D03*
Y358000D02*
D03*
Y368000D02*
D03*
X548000D02*
D03*
Y358000D02*
D03*
Y348000D02*
D03*
Y338000D02*
D03*
Y328000D02*
D03*
D28*
X611677Y471441D02*
D03*
X589677D02*
D03*
X553677D02*
D03*
X531677D02*
D03*
D29*
X658213Y471905D02*
D03*
D30*
X638213D02*
D03*
X407031Y301787D02*
D03*
X502952Y301189D02*
D03*
D31*
X679134Y482283D02*
D03*
X383858D02*
D03*
D32*
X407031Y281787D02*
D03*
X502952Y281189D02*
D03*
D33*
X401000Y372000D02*
D03*
X501000Y233000D02*
D03*
X408000Y339000D02*
D03*
X392000Y349000D02*
D03*
X433000Y367000D02*
D03*
X435000Y314000D02*
D03*
X439006Y417006D02*
D03*
X403000Y424000D02*
D03*
X508000Y391000D02*
D03*
X454724Y466535D02*
D03*
X436024Y482283D02*
D03*
X548000Y276000D02*
D03*
X665000Y236000D02*
D03*
X602000D02*
D03*
X633000D02*
D03*
X569000D02*
D03*
X634000Y310000D02*
D03*
X566000D02*
D03*
X671000D02*
D03*
X606000Y309000D02*
D03*
X554000Y453000D02*
D03*
X637000Y419000D02*
D03*
X608000Y418000D02*
D03*
X571000D02*
D03*
X442126Y306000D02*
D03*
X463126Y307000D02*
D03*
X500126Y437000D02*
D03*
X446126Y360000D02*
D03*
X440126Y203000D02*
D03*
X409126Y209000D02*
D03*
X406000Y228000D02*
D03*
X487000Y220000D02*
D03*
X468000Y224000D02*
D03*
X520000Y228000D02*
D03*
X492000Y408000D02*
D03*
X453006Y386994D02*
D03*
X407028Y260028D02*
D03*
X503000Y254000D02*
D03*
X478880Y375000D02*
D03*
X438000Y257000D02*
D03*
X456000Y264000D02*
D03*
X481000Y352006D02*
D03*
X469000Y231000D02*
D03*
X480994Y340006D02*
D03*
X469000Y336000D02*
D03*
X407000Y253000D02*
D03*
X396000Y287000D02*
D03*
X480000Y360000D02*
D03*
X444000Y397000D02*
D03*
X487000Y379000D02*
D03*
X408000Y393000D02*
D03*
X405500Y381500D02*
D03*
M02*
