G04 Layer_Color=32896*
%FSLAX25Y25*%
%MOIN*%
G70*
G01*
G75*
%ADD44C,0.01200*%
%ADD45C,0.01000*%
%ADD46C,0.00800*%
%ADD83C,0.00500*%
%ADD84R,0.02000X0.01500*%
%ADD85R,0.02100X0.05400*%
%ADD86R,0.01584X0.08317*%
%ADD87R,0.03514X0.09986*%
%ADD88R,0.02600X0.11800*%
D44*
X389506Y365000D02*
X398506D01*
X389506Y384000D02*
X398506D01*
X389506Y365000D02*
Y372500D01*
X398506Y365000D02*
Y372500D01*
Y376500D02*
Y384000D01*
X389506Y376500D02*
Y384000D01*
X387000Y390500D02*
Y399500D01*
X406000Y390500D02*
Y399500D01*
X387000D02*
X394500D01*
X387000Y390500D02*
X394500D01*
X398500D02*
X406000D01*
X398500Y399500D02*
X406000D01*
X404000Y367494D02*
Y376494D01*
X423000Y367494D02*
Y376494D01*
X404000D02*
X411500D01*
X404000Y367494D02*
X411500D01*
X415500D02*
X423000D01*
X415500Y376494D02*
X423000D01*
X460000Y412506D02*
Y421506D01*
X441000Y412506D02*
Y421506D01*
X452500Y412506D02*
X460000D01*
X452500Y421506D02*
X460000D01*
X441000D02*
X448500D01*
X441000Y412506D02*
X448500D01*
X392506Y410000D02*
X401506D01*
X392506Y429000D02*
X401506D01*
X392506Y410000D02*
Y417500D01*
X401506Y410000D02*
Y417500D01*
Y421500D02*
Y429000D01*
X392506Y421500D02*
Y429000D01*
X427126Y270506D02*
X434626D01*
X427126Y279506D02*
X434626D01*
X438626D02*
X446126D01*
X438626Y270506D02*
X446126D01*
X427126D02*
Y279506D01*
X446126Y270506D02*
Y279506D01*
X426632Y294500D02*
Y302000D01*
X435632Y294500D02*
Y302000D01*
Y283000D02*
Y290500D01*
X426632Y283000D02*
Y290500D01*
Y302000D02*
X435632D01*
X426632Y283000D02*
X435632D01*
X438632Y294500D02*
Y302000D01*
X447632Y294500D02*
Y302000D01*
Y283000D02*
Y290500D01*
X438632Y283000D02*
Y290500D01*
Y302000D02*
X447632D01*
X438632Y283000D02*
X447632D01*
X471626Y279494D02*
X479126D01*
X471626Y270494D02*
X479126D01*
X460126D02*
X467626D01*
X460126Y279494D02*
X467626D01*
X479126Y270494D02*
Y279494D01*
X460126Y270494D02*
Y279494D01*
X470632Y294500D02*
Y302000D01*
X479632Y294500D02*
Y302000D01*
Y283000D02*
Y290500D01*
X470632Y283000D02*
Y290500D01*
Y302000D02*
X479632D01*
X470632Y283000D02*
X479632D01*
X458632Y294500D02*
Y302000D01*
X467632Y294500D02*
Y302000D01*
Y283000D02*
Y290500D01*
X458632Y283000D02*
Y290500D01*
Y302000D02*
X467632D01*
X458632Y283000D02*
X467632D01*
X475126Y398494D02*
Y407494D01*
X494126Y398494D02*
Y407494D01*
X475126D02*
X482626D01*
X475126Y398494D02*
X482626D01*
X486626D02*
X494126D01*
X486626Y407494D02*
X494126D01*
X462620Y418000D02*
X471620D01*
X462620Y399000D02*
X471620D01*
Y410500D02*
Y418000D01*
X462620Y410500D02*
Y418000D01*
Y399000D02*
Y406500D01*
X471620Y399000D02*
Y406500D01*
X497620Y403000D02*
X506620D01*
X497620Y384000D02*
X506620D01*
Y395500D02*
Y403000D01*
X497620Y395500D02*
Y403000D01*
Y384000D02*
Y391500D01*
X506620Y384000D02*
Y391500D01*
X475098Y387276D02*
X479598D01*
X475098Y375776D02*
X479598D01*
Y385276D02*
Y387276D01*
X470598Y381276D02*
Y381775D01*
X479598Y375776D02*
Y377776D01*
X484126Y311506D02*
X491626D01*
X484126Y320506D02*
X491626D01*
X495626D02*
X503126D01*
X495626Y311506D02*
X503126D01*
X484126D02*
Y320506D01*
X503126Y311506D02*
Y320506D01*
X484126Y323506D02*
X491626D01*
X484126Y332506D02*
X491626D01*
X495626D02*
X503126D01*
X495626Y323506D02*
X503126D01*
X484126D02*
Y332506D01*
X503126Y323506D02*
Y332506D01*
X484126Y335506D02*
X491626D01*
X484126Y344506D02*
X491626D01*
X495626D02*
X503126D01*
X495626Y335506D02*
X503126D01*
X484126D02*
Y344506D01*
X503126Y335506D02*
Y344506D01*
X484126Y347506D02*
X491626D01*
X484126Y356506D02*
X491626D01*
X495626D02*
X503126D01*
X495626Y347506D02*
X503126D01*
X484126D02*
Y356506D01*
X503126Y347506D02*
Y356506D01*
X445126Y348506D02*
X452626D01*
X445126Y357506D02*
X452626D01*
X456626D02*
X464126D01*
X456626Y348506D02*
X464126D01*
X445126D02*
Y357506D01*
X464126Y348506D02*
Y357506D01*
X445126Y336506D02*
X452626D01*
X445126Y345506D02*
X452626D01*
X456626D02*
X464126D01*
X456626Y336506D02*
X464126D01*
X445126D02*
Y345506D01*
X464126Y336506D02*
Y345506D01*
X440500Y250494D02*
X448000D01*
X440500Y241494D02*
X448000D01*
X429000D02*
X436500D01*
X429000Y250494D02*
X436500D01*
X448000Y241494D02*
Y250494D01*
X429000Y241494D02*
Y250494D01*
X446126Y324506D02*
X453626D01*
X446126Y333506D02*
X453626D01*
X457626D02*
X465126D01*
X457626Y324506D02*
X465126D01*
X446126D02*
Y333506D01*
X465126Y324506D02*
Y333506D01*
X396901Y208528D02*
X398902D01*
X402401Y217528D02*
X402902D01*
X406401Y208528D02*
X408401D01*
X396901D02*
Y213028D01*
X408401Y208528D02*
Y213028D01*
X501350Y217472D02*
X503350D01*
X497351Y208472D02*
X497851D01*
X491851Y217472D02*
X493851D01*
X503350Y212972D02*
Y217472D01*
X491851Y212972D02*
Y217472D01*
X506000Y216506D02*
X513500D01*
X506000Y225506D02*
X513500D01*
X517500D02*
X525000D01*
X517500Y216506D02*
X525000D01*
X506000D02*
Y225506D01*
X525000Y216506D02*
Y225506D01*
X388494Y211000D02*
Y218500D01*
X379494Y211000D02*
Y218500D01*
Y222500D02*
Y230000D01*
X388494Y222500D02*
Y230000D01*
X379494Y211000D02*
X388494D01*
X379494Y230000D02*
X388494D01*
X409775Y259528D02*
X411775D01*
X415275Y268528D02*
X415775D01*
X419276Y259528D02*
X421276D01*
X409775D02*
Y264028D01*
X421276Y259528D02*
Y264028D01*
X396275Y267472D02*
X398275D01*
X392276Y258472D02*
X392776D01*
X386775Y267472D02*
X388775D01*
X398275Y262972D02*
Y267472D01*
X386775Y262972D02*
Y267472D01*
X413506Y231500D02*
Y239000D01*
X422506Y231500D02*
Y239000D01*
Y220000D02*
Y227500D01*
X413506Y220000D02*
Y227500D01*
Y239000D02*
X422506D01*
X413506Y220000D02*
X422506D01*
X433902Y208528D02*
X435901D01*
X439401Y217528D02*
X439901D01*
X443401Y208528D02*
X445401D01*
X433902D02*
Y213028D01*
X445401Y208528D02*
Y213028D01*
X497225Y246472D02*
X499225D01*
X493224Y237472D02*
X493724D01*
X487724Y246472D02*
X489724D01*
X499225Y241972D02*
Y246472D01*
X487724Y241972D02*
Y246472D01*
X400528Y249224D02*
Y251224D01*
X409528Y245224D02*
Y245725D01*
X400528Y239724D02*
Y241724D01*
Y251224D02*
X405028D01*
X400528Y239724D02*
X405028D01*
X483224Y265472D02*
X485224D01*
X479224Y256472D02*
X479725D01*
X473725Y265472D02*
X475725D01*
X485224Y260972D02*
Y265472D01*
X473725Y260972D02*
Y265472D01*
X495023Y260028D02*
X497023D01*
X500523Y269028D02*
X501023D01*
X504523Y260028D02*
X506523D01*
X495023D02*
Y264528D01*
X506523Y260028D02*
Y264528D01*
X507506Y243500D02*
Y251000D01*
X516506Y243500D02*
Y251000D01*
Y232000D02*
Y239500D01*
X507506Y232000D02*
Y239500D01*
Y251000D02*
X516506D01*
X507506Y232000D02*
X516506D01*
X432775Y228528D02*
X434775D01*
X438275Y237528D02*
X438775D01*
X442275Y228528D02*
X444276D01*
X432775D02*
Y233028D01*
X444276Y228528D02*
Y233028D01*
X464351Y217472D02*
X466351D01*
X460351Y208472D02*
X460850D01*
X454850Y217472D02*
X456850D01*
X466351Y212972D02*
Y217472D01*
X454850Y212972D02*
Y217472D01*
X463225Y239472D02*
X465225D01*
X459225Y230472D02*
X459725D01*
X453724Y239472D02*
X455724D01*
X465225Y234972D02*
Y239472D01*
X453724Y234972D02*
Y239472D01*
X450506Y390000D02*
X459506D01*
X450506Y409000D02*
X459506D01*
X450506Y390000D02*
Y397500D01*
X459506Y390000D02*
Y397500D01*
Y401500D02*
Y409000D01*
X450506Y401500D02*
Y409000D01*
D45*
X423626Y399500D02*
X423816Y398543D01*
X424358Y397732D01*
X425169Y397190D01*
X426126Y397000D01*
X427083Y397190D01*
X427894Y397732D01*
X428436Y398543D01*
X428626Y399500D01*
X431126Y379500D02*
Y399500D01*
X421126Y379500D02*
X431126D01*
X421126D02*
Y399500D01*
X423626D01*
X428626D02*
X431126D01*
X628583Y436084D02*
X630000Y437500D01*
X628320Y436084D02*
X628583D01*
X627652Y436752D02*
X628320Y436084D01*
X627652Y435932D02*
Y436752D01*
Y434652D02*
Y435932D01*
X628900Y442400D02*
Y443300D01*
X629900Y436900D02*
X630000Y437000D01*
Y443000D01*
X627200Y445800D02*
X630000Y443000D01*
X627000Y446000D02*
X627200Y445800D01*
X624600Y446000D02*
X627000D01*
X626900Y433900D02*
X629900Y436900D01*
X626700Y433900D02*
X626900D01*
X624600D02*
X626700D01*
X624600Y434000D02*
Y446000D01*
X597000D02*
X606800D01*
X597000Y434000D02*
Y446000D01*
X615100Y433900D02*
X624600D01*
X615400Y446000D02*
X624600D01*
X597100Y433900D02*
X606800D01*
X637000Y312500D02*
X638416Y313916D01*
X638680D01*
X639348Y313248D01*
Y314068D01*
Y315348D01*
X638100Y306700D02*
Y307600D01*
X637000Y313000D02*
X637100Y313100D01*
X637000Y307000D02*
Y313000D01*
Y307000D02*
X639800Y304200D01*
X640000Y304000D01*
X642400D01*
X637100Y313100D02*
X640100Y316100D01*
X640300D01*
X642400D01*
Y304000D02*
Y316000D01*
X660200Y304000D02*
X670000D01*
Y316000D01*
X642400Y316100D02*
X651900D01*
X642400Y304000D02*
X651600D01*
X660200Y316100D02*
X669900D01*
X571000Y312500D02*
X572416Y313916D01*
X572680D01*
X573348Y313248D01*
Y314068D01*
Y315348D01*
X572100Y306700D02*
Y307600D01*
X571000Y313000D02*
X571100Y313100D01*
X571000Y307000D02*
Y313000D01*
Y307000D02*
X573800Y304200D01*
X574000Y304000D01*
X576400D01*
X571100Y313100D02*
X574100Y316100D01*
X574300D01*
X576400D01*
Y304000D02*
Y316000D01*
X594200Y304000D02*
X604000D01*
Y316000D01*
X576400Y316100D02*
X585900D01*
X576400Y304000D02*
X585600D01*
X594200Y316100D02*
X603900D01*
X553000Y442506D02*
X554417Y443923D01*
X554680D01*
X555348Y443255D01*
Y444075D01*
Y445355D01*
X554100Y436706D02*
Y437606D01*
X553000Y443006D02*
X553100Y443106D01*
X553000Y437006D02*
Y443006D01*
Y437006D02*
X555800Y434206D01*
X556000Y434006D01*
X558400D01*
X553100Y443106D02*
X556100Y446106D01*
X556300D01*
X558400D01*
Y434006D02*
Y446006D01*
X576200Y434006D02*
X586000D01*
Y446006D01*
X558400Y446106D02*
X567900D01*
X558400Y434006D02*
X567600D01*
X576200Y446106D02*
X585900D01*
X479326Y487600D02*
X489026D01*
X461526Y475500D02*
X470726D01*
X461526Y487600D02*
X471026D01*
X489126Y475500D02*
Y487500D01*
X479326Y475500D02*
X489126D01*
X461526D02*
Y487500D01*
X459426Y487600D02*
X461526D01*
X459226D02*
X459426D01*
X456226Y484600D02*
X459226Y487600D01*
X459126Y475500D02*
X461526D01*
X458926Y475700D02*
X459126Y475500D01*
X456126Y478500D02*
X458926Y475700D01*
X456126Y478500D02*
Y484500D01*
X456226Y484600D01*
X457226Y478200D02*
Y479100D01*
X458474Y485568D02*
Y486848D01*
Y484748D02*
Y485568D01*
X457806Y485416D02*
X458474Y484748D01*
X457543Y485416D02*
X457806D01*
X456126Y484000D02*
X457543Y485416D01*
X479326Y472100D02*
X489026D01*
X461526Y460000D02*
X470726D01*
X461526Y472100D02*
X471026D01*
X489126Y460000D02*
Y472000D01*
X479326Y460000D02*
X489126D01*
X461526D02*
Y472000D01*
X459426Y472100D02*
X461526D01*
X459226D02*
X459426D01*
X456226Y469100D02*
X459226Y472100D01*
X459126Y460000D02*
X461526D01*
X458926Y460200D02*
X459126Y460000D01*
X456126Y463000D02*
X458926Y460200D01*
X456126Y463000D02*
Y469000D01*
X456226Y469100D01*
X457226Y462700D02*
Y463600D01*
X458474Y470068D02*
Y471348D01*
Y469248D02*
Y470068D01*
X457806Y469916D02*
X458474Y469248D01*
X457543Y469916D02*
X457806D01*
X456126Y468500D02*
X457543Y469916D01*
X456126Y453500D02*
X457543Y454916D01*
X457806D01*
X458474Y454248D01*
Y455068D01*
Y456348D01*
X457226Y447700D02*
Y448600D01*
X456126Y454000D02*
X456226Y454100D01*
X456126Y448000D02*
Y454000D01*
Y448000D02*
X458926Y445200D01*
X459126Y445000D01*
X461526D01*
X456226Y454100D02*
X459226Y457100D01*
X459426D01*
X461526D01*
Y445000D02*
Y457000D01*
X479326Y445000D02*
X489126D01*
Y457000D01*
X461526Y457100D02*
X471026D01*
X461526Y445000D02*
X470726D01*
X479326Y457100D02*
X489026D01*
X638001Y347000D02*
X642000D01*
X638001Y350999D01*
Y351998D01*
X639001Y352998D01*
X641000D01*
X642000Y351998D01*
X636002D02*
X635002Y352998D01*
X633003D01*
X632003Y351998D01*
Y348000D01*
X633003Y347000D01*
X635002D01*
X636002Y348000D01*
Y351998D01*
X630004Y347000D02*
X628005D01*
X629004D01*
Y352998D01*
X630004Y351998D01*
X621007Y352998D02*
X623006Y351998D01*
X625005Y349999D01*
Y348000D01*
X624006Y347000D01*
X622007D01*
X621007Y348000D01*
Y348999D01*
X622007Y349999D01*
X625005D01*
X619007Y347000D02*
Y348000D01*
X618008D01*
Y347000D01*
X619007D01*
X610010D02*
X614009D01*
X610010Y350999D01*
Y351998D01*
X611010Y352998D01*
X613009D01*
X614009Y351998D01*
X608011Y347000D02*
Y348000D01*
X607011D01*
Y347000D01*
X608011D01*
X603013D02*
X601013D01*
X602013D01*
Y352998D01*
X603013Y351998D01*
X594016Y352998D02*
X596015Y351998D01*
X598014Y349999D01*
Y348000D01*
X597015Y347000D01*
X595015D01*
X594016Y348000D01*
Y348999D01*
X595015Y349999D01*
X598014D01*
X657000Y369998D02*
Y364000D01*
X654001D01*
X653001Y365000D01*
Y368998D01*
X654001Y369998D01*
X657000D01*
X648003Y364000D02*
X650002D01*
X651002Y365000D01*
Y366999D01*
X650002Y367999D01*
X648003D01*
X647003Y366999D01*
Y365999D01*
X651002D01*
X645004Y364000D02*
X642005D01*
X641005Y365000D01*
X642005Y365999D01*
X644004D01*
X645004Y366999D01*
X644004Y367999D01*
X641005D01*
X639006Y364000D02*
X637007D01*
X638006D01*
Y367999D01*
X639006D01*
X632008Y362001D02*
X631008D01*
X630009Y363000D01*
Y367999D01*
X633008D01*
X634007Y366999D01*
Y365000D01*
X633008Y364000D01*
X630009D01*
X628009D02*
Y367999D01*
X625010D01*
X624011Y366999D01*
Y364000D01*
X619012D02*
X621012D01*
X622011Y365000D01*
Y366999D01*
X621012Y367999D01*
X619012D01*
X618013Y366999D01*
Y365999D01*
X622011D01*
X612014Y369998D02*
Y364000D01*
X615014D01*
X616013Y365000D01*
Y366999D01*
X615014Y367999D01*
X612014D01*
X604017Y369998D02*
Y364000D01*
X601018D01*
X600018Y365000D01*
Y365999D01*
Y366999D01*
X601018Y367999D01*
X604017D01*
X598019D02*
Y365000D01*
X597019Y364000D01*
X594020D01*
Y363000D01*
X595020Y362001D01*
X596020D01*
X594020Y364000D02*
Y367999D01*
X586023Y369998D02*
Y364000D01*
X584024Y365999D01*
X582024Y364000D01*
Y369998D01*
X580025D02*
X576026D01*
Y368998D01*
X580025Y365000D01*
Y364000D01*
X576026D01*
X668000Y380000D02*
Y385998D01*
X666001Y383999D01*
X664001Y385998D01*
Y380000D01*
X661002D02*
X659003D01*
X658003Y381000D01*
Y382999D01*
X659003Y383999D01*
X661002D01*
X662002Y382999D01*
Y381000D01*
X661002Y380000D01*
X655004Y384998D02*
Y383999D01*
X656004D01*
X654004D01*
X655004D01*
Y381000D01*
X654004Y380000D01*
X650006D02*
X648006D01*
X647007Y381000D01*
Y382999D01*
X648006Y383999D01*
X650006D01*
X651006Y382999D01*
Y381000D01*
X650006Y380000D01*
X645007Y383999D02*
Y380000D01*
Y381999D01*
X644008Y382999D01*
X643008Y383999D01*
X642008D01*
X633011Y385998D02*
Y380000D01*
X630012D01*
X629013Y381000D01*
Y384998D01*
X630012Y385998D01*
X633011D01*
X627013Y383999D02*
Y380000D01*
Y381999D01*
X626014Y382999D01*
X625014Y383999D01*
X624014D01*
X621015Y380000D02*
X619016D01*
X620015D01*
Y383999D01*
X621015D01*
X616017D02*
X614017Y380000D01*
X612018Y383999D01*
X607020Y380000D02*
X609019D01*
X610019Y381000D01*
Y382999D01*
X609019Y383999D01*
X607020D01*
X606020Y382999D01*
Y381999D01*
X610019D01*
X604021Y383999D02*
Y380000D01*
Y381999D01*
X603021Y382999D01*
X602021Y383999D01*
X601022D01*
X592025Y385998D02*
Y381999D01*
X590025Y380000D01*
X588026Y381999D01*
Y385998D01*
X583028Y380000D02*
X585027D01*
X586026Y381000D01*
Y382999D01*
X585027Y383999D01*
X583028D01*
X582028Y382999D01*
Y381999D01*
X586026D01*
X580028Y383999D02*
Y380000D01*
Y381999D01*
X579029Y382999D01*
X578029Y383999D01*
X577029D01*
X574030Y380000D02*
X572031D01*
X573031D01*
Y385998D01*
X574030Y384998D01*
X569032Y380000D02*
Y381000D01*
X568032D01*
Y380000D01*
X569032D01*
X564034D02*
X562034D01*
X563034D01*
Y385998D01*
X564034Y384998D01*
X485126Y262000D02*
Y267998D01*
X482127D01*
X481127Y266998D01*
Y264999D01*
X482127Y263999D01*
X485126D01*
X483127D02*
X481127Y262000D01*
X475129Y267998D02*
X477129Y266998D01*
X479128Y264999D01*
Y263000D01*
X478128Y262000D01*
X476129D01*
X475129Y263000D01*
Y263999D01*
X476129Y264999D01*
X479128D01*
X473130Y263000D02*
X472130Y262000D01*
X470131D01*
X469131Y263000D01*
Y266998D01*
X470131Y267998D01*
X472130D01*
X473130Y266998D01*
Y265999D01*
X472130Y264999D01*
X469131D01*
X467132Y261000D02*
X463133D01*
X461134Y266998D02*
X460134Y267998D01*
X458135D01*
X457135Y266998D01*
Y265999D01*
X458135Y264999D01*
X459134D01*
X458135D01*
X457135Y263999D01*
Y263000D01*
X458135Y262000D01*
X460134D01*
X461134Y263000D01*
X483139Y281000D02*
X489137D01*
Y283999D01*
X488137Y284999D01*
X486138D01*
X485138Y283999D01*
Y281000D01*
Y282999D02*
X483139Y284999D01*
X489137Y290997D02*
X488137Y288997D01*
X486138Y286998D01*
X484138D01*
X483139Y287998D01*
Y289997D01*
X484138Y290997D01*
X485138D01*
X486138Y289997D01*
Y286998D01*
X484138Y292996D02*
X483139Y293996D01*
Y295995D01*
X484138Y296995D01*
X488137D01*
X489137Y295995D01*
Y293996D01*
X488137Y292996D01*
X487138D01*
X486138Y293996D01*
Y296995D01*
X482139Y298994D02*
Y302993D01*
X483139Y308991D02*
Y304992D01*
X487138Y308991D01*
X488137D01*
X489137Y307991D01*
Y305992D01*
X488137Y304992D01*
X484139Y306000D02*
Y311998D01*
X481140D01*
X480140Y310998D01*
Y308999D01*
X481140Y307999D01*
X484139D01*
X482139D02*
X480140Y306000D01*
X474142Y311998D02*
X476141Y310998D01*
X478141Y308999D01*
Y307000D01*
X477141Y306000D01*
X475142D01*
X474142Y307000D01*
Y307999D01*
X475142Y308999D01*
X478141D01*
X472143Y307000D02*
X471143Y306000D01*
X469144D01*
X468144Y307000D01*
Y310998D01*
X469144Y311998D01*
X471143D01*
X472143Y310998D01*
Y309999D01*
X471143Y308999D01*
X468144D01*
X466145Y305000D02*
X462146D01*
X460147Y306000D02*
X458147D01*
X459147D01*
Y311998D01*
X460147Y310998D01*
X441126Y350000D02*
X439127D01*
X440126D01*
Y355998D01*
X441126Y354998D01*
X436128D02*
X435128Y355998D01*
X433129D01*
X432129Y354998D01*
Y351000D01*
X433129Y350000D01*
X435128D01*
X436128Y351000D01*
Y354998D01*
X430129Y355998D02*
Y350000D01*
Y351999D01*
X426131Y355998D01*
X429130Y352999D01*
X426131Y350000D01*
X480126D02*
X478127D01*
X479126D01*
Y355998D01*
X480126Y354998D01*
X475128D02*
X474128Y355998D01*
X472129D01*
X471129Y354998D01*
Y351000D01*
X472129Y350000D01*
X474128D01*
X475128Y351000D01*
Y354998D01*
X469130Y355998D02*
Y350000D01*
Y351999D01*
X465131Y355998D01*
X468130Y352999D01*
X465131Y350000D01*
X507000Y249000D02*
Y247001D01*
Y248000D01*
X501002D01*
X502002Y249000D01*
Y244002D02*
X501002Y243002D01*
Y241003D01*
X502002Y240003D01*
X506000D01*
X507000Y241003D01*
Y243002D01*
X506000Y244002D01*
X502002D01*
X501002Y238004D02*
X507000D01*
X505001D01*
X501002Y234005D01*
X504001Y237004D01*
X507000Y234005D01*
X524000Y251000D02*
X518002D01*
Y248001D01*
X519002Y247001D01*
X521001D01*
X522001Y248001D01*
Y251000D01*
Y249001D02*
X524000Y247001D01*
X518002Y241003D02*
X519002Y243003D01*
X521001Y245002D01*
X523000D01*
X524000Y244002D01*
Y242003D01*
X523000Y241003D01*
X522001D01*
X521001Y242003D01*
Y245002D01*
X518002Y235005D02*
X519002Y237004D01*
X521001Y239004D01*
X523000D01*
X524000Y238004D01*
Y236005D01*
X523000Y235005D01*
X522001D01*
X521001Y236005D01*
Y239004D01*
X442126Y339000D02*
X440127D01*
X441126D01*
Y344998D01*
X442126Y343998D01*
X437128D02*
X436128Y344998D01*
X434129D01*
X433129Y343998D01*
Y340000D01*
X434129Y339000D01*
X436128D01*
X437128Y340000D01*
Y343998D01*
X431130D02*
X430130Y344998D01*
X428130D01*
X427131Y343998D01*
Y340000D01*
X428130Y339000D01*
X430130D01*
X431130Y340000D01*
Y343998D01*
X425132Y344998D02*
Y339000D01*
Y340999D01*
X421133Y344998D01*
X424132Y341999D01*
X421133Y339000D01*
X520601Y212898D02*
X524600D01*
Y209899D01*
X522601Y210899D01*
X521601D01*
X520601Y209899D01*
Y207900D01*
X521601Y206900D01*
X523600D01*
X524600Y207900D01*
X518602Y206900D02*
Y207900D01*
X517602D01*
Y206900D01*
X518602D01*
X513604D02*
X511604D01*
X512604D01*
Y212898D01*
X513604Y211898D01*
X508605Y212898D02*
Y206900D01*
Y208899D01*
X504606Y212898D01*
X507606Y209899D01*
X504606Y206900D01*
X524600Y229100D02*
Y235098D01*
X521601D01*
X520601Y234098D01*
Y232099D01*
X521601Y231099D01*
X524600D01*
X522601D02*
X520601Y229100D01*
X514603Y235098D02*
X516603Y234098D01*
X518602Y232099D01*
Y230100D01*
X517602Y229100D01*
X515603D01*
X514603Y230100D01*
Y231099D01*
X515603Y232099D01*
X518602D01*
X508605Y229100D02*
X512604D01*
X508605Y233099D01*
Y234098D01*
X509605Y235098D01*
X511604D01*
X512604Y234098D01*
X481126Y338000D02*
X479127D01*
X480126D01*
Y343998D01*
X481126Y342998D01*
X476128D02*
X475128Y343998D01*
X473129D01*
X472129Y342998D01*
Y339000D01*
X473129Y338000D01*
X475128D01*
X476128Y339000D01*
Y342998D01*
X470129D02*
X469130Y343998D01*
X467131D01*
X466131Y342998D01*
Y339000D01*
X467131Y338000D01*
X469130D01*
X470129Y339000D01*
Y342998D01*
X448126Y262000D02*
Y267998D01*
X445127D01*
X444127Y266998D01*
Y264999D01*
X445127Y263999D01*
X448126D01*
X446127D02*
X444127Y262000D01*
X438129Y267998D02*
X442128D01*
Y264999D01*
X440129Y265999D01*
X439129D01*
X438129Y264999D01*
Y263000D01*
X439129Y262000D01*
X441128D01*
X442128Y263000D01*
X436130D02*
X435130Y262000D01*
X433131D01*
X432131Y263000D01*
Y266998D01*
X433131Y267998D01*
X435130D01*
X436130Y266998D01*
Y265999D01*
X435130Y264999D01*
X432131D01*
X430132Y261000D02*
X426133D01*
X424134Y266998D02*
X423134Y267998D01*
X421135D01*
X420135Y266998D01*
Y265999D01*
X421135Y264999D01*
X422134D01*
X421135D01*
X420135Y263999D01*
Y263000D01*
X421135Y262000D01*
X423134D01*
X424134Y263000D01*
X424126Y309000D02*
X418128D01*
Y306001D01*
X419128Y305001D01*
X421127D01*
X422127Y306001D01*
Y309000D01*
Y307001D02*
X424126Y305001D01*
X418128Y299003D02*
Y303002D01*
X421127D01*
X420127Y301003D01*
Y300003D01*
X421127Y299003D01*
X423126D01*
X424126Y300003D01*
Y302002D01*
X423126Y303002D01*
Y297004D02*
X424126Y296004D01*
Y294005D01*
X423126Y293005D01*
X419128D01*
X418128Y294005D01*
Y296004D01*
X419128Y297004D01*
X420127D01*
X421127Y296004D01*
Y293005D01*
X425126Y291006D02*
Y287007D01*
X424126Y281009D02*
Y285008D01*
X420127Y281009D01*
X419128D01*
X418128Y282009D01*
Y284008D01*
X419128Y285008D01*
X447226Y306600D02*
Y312598D01*
X444227D01*
X443227Y311598D01*
Y309599D01*
X444227Y308599D01*
X447226D01*
X445227D02*
X443227Y306600D01*
X437229Y312598D02*
X441228D01*
Y309599D01*
X439229Y310599D01*
X438229D01*
X437229Y309599D01*
Y307600D01*
X438229Y306600D01*
X440228D01*
X441228Y307600D01*
X435230D02*
X434230Y306600D01*
X432231D01*
X431231Y307600D01*
Y311598D01*
X432231Y312598D01*
X434230D01*
X435230Y311598D01*
Y310599D01*
X434230Y309599D01*
X431231D01*
X429232Y305600D02*
X425233D01*
X423234Y306600D02*
X421234D01*
X422234D01*
Y312598D01*
X423234Y311598D01*
X440126Y326000D02*
X438127D01*
X439126D01*
Y331998D01*
X440126Y330998D01*
X435128D02*
X434128Y331998D01*
X432129D01*
X431129Y330998D01*
Y327000D01*
X432129Y326000D01*
X434128D01*
X435128Y327000D01*
Y330998D01*
X429130Y331998D02*
Y326000D01*
Y327999D01*
X425131Y331998D01*
X428130Y328999D01*
X425131Y326000D01*
X481126Y325000D02*
X479127D01*
X480126D01*
Y330998D01*
X481126Y329998D01*
X476128D02*
X475128Y330998D01*
X473129D01*
X472129Y329998D01*
Y326000D01*
X473129Y325000D01*
X475128D01*
X476128Y326000D01*
Y329998D01*
X470129Y330998D02*
Y325000D01*
Y326999D01*
X466131Y330998D01*
X469130Y327999D01*
X466131Y325000D01*
X426000Y212000D02*
X424001D01*
X425000D01*
Y217998D01*
X426000Y216998D01*
X421002D02*
X420002Y217998D01*
X418003D01*
X417003Y216998D01*
Y213000D01*
X418003Y212000D01*
X420002D01*
X421002Y213000D01*
Y216998D01*
X415004Y217998D02*
Y212000D01*
Y213999D01*
X411005Y217998D01*
X414004Y214999D01*
X411005Y212000D01*
X430000Y237000D02*
X424002D01*
Y234001D01*
X425002Y233001D01*
X427001D01*
X428001Y234001D01*
Y237000D01*
Y235001D02*
X430000Y233001D01*
X424002Y227003D02*
Y231002D01*
X427001D01*
X426001Y229003D01*
Y228003D01*
X427001Y227003D01*
X429000D01*
X430000Y228003D01*
Y230002D01*
X429000Y231002D01*
X424002Y221005D02*
X425002Y223005D01*
X427001Y225004D01*
X429000D01*
X430000Y224004D01*
Y222005D01*
X429000Y221005D01*
X428001D01*
X427001Y222005D01*
Y225004D01*
X449000Y252000D02*
X447001D01*
X448000D01*
Y257998D01*
X449000Y256998D01*
X444002D02*
X443002Y257998D01*
X441003D01*
X440003Y256998D01*
Y253000D01*
X441003Y252000D01*
X443002D01*
X444002Y253000D01*
Y256998D01*
X438004D02*
X437004Y257998D01*
X435005D01*
X434005Y256998D01*
Y253000D01*
X435005Y252000D01*
X437004D01*
X438004Y253000D01*
Y256998D01*
X432006Y257998D02*
Y252000D01*
Y253999D01*
X428007Y257998D01*
X431006Y254999D01*
X428007Y252000D01*
X393001Y205998D02*
X397000D01*
Y202999D01*
X395001Y203999D01*
X394001D01*
X393001Y202999D01*
Y201000D01*
X394001Y200000D01*
X396000D01*
X397000Y201000D01*
X391002Y200000D02*
Y201000D01*
X390002D01*
Y200000D01*
X391002D01*
X386004D02*
X384004D01*
X385004D01*
Y205998D01*
X386004Y204998D01*
X381005Y205998D02*
Y200000D01*
Y201999D01*
X377007Y205998D01*
X380006Y202999D01*
X377007Y200000D01*
X393000Y234000D02*
Y239998D01*
X390001D01*
X389001Y238998D01*
Y236999D01*
X390001Y235999D01*
X393000D01*
X391001D02*
X389001Y234000D01*
X383003Y239998D02*
X387002D01*
Y236999D01*
X385003Y237999D01*
X384003D01*
X383003Y236999D01*
Y235000D01*
X384003Y234000D01*
X386002D01*
X387002Y235000D01*
X377005Y234000D02*
X381004D01*
X377005Y237999D01*
Y238998D01*
X378005Y239998D01*
X380004D01*
X381004Y238998D01*
X480126Y314000D02*
X478127D01*
X479126D01*
Y319998D01*
X480126Y318998D01*
X475128D02*
X474128Y319998D01*
X472129D01*
X471129Y318998D01*
Y315000D01*
X472129Y314000D01*
X474128D01*
X475128Y315000D01*
Y318998D01*
X469130D02*
X468130Y319998D01*
X466130D01*
X465131Y318998D01*
Y315000D01*
X466130Y314000D01*
X468130D01*
X469130Y315000D01*
Y318998D01*
X465001Y223000D02*
Y226998D01*
X466001Y227998D01*
X468000D01*
X469000Y226998D01*
Y223000D01*
X468000Y222000D01*
X466001D01*
X467001Y223999D02*
X465001Y222000D01*
X466001D02*
X465001Y223000D01*
X459003Y227998D02*
X461003Y226998D01*
X463002Y224999D01*
Y223000D01*
X462002Y222000D01*
X460003D01*
X459003Y223000D01*
Y223999D01*
X460003Y224999D01*
X463002D01*
X453005Y227998D02*
X457004D01*
Y224999D01*
X455005Y225999D01*
X454005D01*
X453005Y224999D01*
Y223000D01*
X454005Y222000D01*
X456004D01*
X457004Y223000D01*
X464001Y201000D02*
Y204998D01*
X465001Y205998D01*
X467000D01*
X468000Y204998D01*
Y201000D01*
X467000Y200000D01*
X465001D01*
X466001Y201999D02*
X464001Y200000D01*
X465001D02*
X464001Y201000D01*
X458003Y205998D02*
X460003Y204998D01*
X462002Y202999D01*
Y201000D01*
X461002Y200000D01*
X459003D01*
X458003Y201000D01*
Y201999D01*
X459003Y202999D01*
X462002D01*
X453005Y200000D02*
Y205998D01*
X456004Y202999D01*
X452005D01*
X483001Y248000D02*
Y251998D01*
X484001Y252998D01*
X486000D01*
X487000Y251998D01*
Y248000D01*
X486000Y247000D01*
X484001D01*
X485001Y248999D02*
X483001Y247000D01*
X484001D02*
X483001Y248000D01*
X477003Y252998D02*
X479003Y251998D01*
X481002Y249999D01*
Y248000D01*
X480002Y247000D01*
X478003D01*
X477003Y248000D01*
Y248999D01*
X478003Y249999D01*
X481002D01*
X475004Y251998D02*
X474004Y252998D01*
X472005D01*
X471005Y251998D01*
Y250999D01*
X472005Y249999D01*
X473004D01*
X472005D01*
X471005Y248999D01*
Y248000D01*
X472005Y247000D01*
X474004D01*
X475004Y248000D01*
X505249Y273500D02*
Y277498D01*
X506249Y278498D01*
X508248D01*
X509248Y277498D01*
Y273500D01*
X508248Y272500D01*
X506249D01*
X507248Y274499D02*
X505249Y272500D01*
X506249D02*
X505249Y273500D01*
X499251Y278498D02*
X501250Y277498D01*
X503250Y275499D01*
Y273500D01*
X502250Y272500D01*
X500251D01*
X499251Y273500D01*
Y274499D01*
X500251Y275499D01*
X503250D01*
X493253Y272500D02*
X497252D01*
X493253Y276499D01*
Y277498D01*
X494252Y278498D01*
X496252D01*
X497252Y277498D01*
X498927Y223900D02*
Y227898D01*
X499927Y228898D01*
X501926D01*
X502926Y227898D01*
Y223900D01*
X501926Y222900D01*
X499927D01*
X500927Y224899D02*
X498927Y222900D01*
X499927D02*
X498927Y223900D01*
X492929Y228898D02*
X494929Y227898D01*
X496928Y225899D01*
Y223900D01*
X495928Y222900D01*
X493929D01*
X492929Y223900D01*
Y224899D01*
X493929Y225899D01*
X496928D01*
X490930Y222900D02*
X488931D01*
X489930D01*
Y228898D01*
X490930Y227898D01*
X443001Y221000D02*
Y224998D01*
X444001Y225998D01*
X446000D01*
X447000Y224998D01*
Y221000D01*
X446000Y220000D01*
X444001D01*
X445001Y221999D02*
X443001Y220000D01*
X444001D02*
X443001Y221000D01*
X437003Y225998D02*
X441002D01*
Y222999D01*
X439003Y223999D01*
X438003D01*
X437003Y222999D01*
Y221000D01*
X438003Y220000D01*
X440002D01*
X441002Y221000D01*
X431005Y225998D02*
X435004D01*
Y222999D01*
X433005Y223999D01*
X432005D01*
X431005Y222999D01*
Y221000D01*
X432005Y220000D01*
X434004D01*
X435004Y221000D01*
X444001Y201000D02*
Y204998D01*
X445001Y205998D01*
X447000D01*
X448000Y204998D01*
Y201000D01*
X447000Y200000D01*
X445001D01*
X446001Y201999D02*
X444001Y200000D01*
X445001D02*
X444001Y201000D01*
X438003Y205998D02*
X442002D01*
Y202999D01*
X440003Y203999D01*
X439003D01*
X438003Y202999D01*
Y201000D01*
X439003Y200000D01*
X441002D01*
X442002Y201000D01*
X433005Y200000D02*
Y205998D01*
X436004Y202999D01*
X432005D01*
X420001Y273000D02*
Y276998D01*
X421001Y277998D01*
X423000D01*
X424000Y276998D01*
Y273000D01*
X423000Y272000D01*
X421001D01*
X422001Y273999D02*
X420001Y272000D01*
X421001D02*
X420001Y273000D01*
X414003Y277998D02*
X418002D01*
Y274999D01*
X416003Y275999D01*
X415003D01*
X414003Y274999D01*
Y273000D01*
X415003Y272000D01*
X417002D01*
X418002Y273000D01*
X412004Y276998D02*
X411004Y277998D01*
X409005D01*
X408005Y276998D01*
Y275999D01*
X409005Y274999D01*
X410005D01*
X409005D01*
X408005Y273999D01*
Y273000D01*
X409005Y272000D01*
X411004D01*
X412004Y273000D01*
X395001D02*
Y276998D01*
X396001Y277998D01*
X398000D01*
X399000Y276998D01*
Y273000D01*
X398000Y272000D01*
X396001D01*
X397001Y273999D02*
X395001Y272000D01*
X396001D02*
X395001Y273000D01*
X389003Y277998D02*
X393002D01*
Y274999D01*
X391003Y275999D01*
X390003D01*
X389003Y274999D01*
Y273000D01*
X390003Y272000D01*
X392002D01*
X393002Y273000D01*
X383005Y272000D02*
X387004D01*
X383005Y275999D01*
Y276998D01*
X384005Y277998D01*
X386004D01*
X387004Y276998D01*
X404027Y223200D02*
Y227198D01*
X405027Y228198D01*
X407026D01*
X408026Y227198D01*
Y223200D01*
X407026Y222200D01*
X405027D01*
X406027Y224199D02*
X404027Y222200D01*
X405027D02*
X404027Y223200D01*
X398029Y228198D02*
X402028D01*
Y225199D01*
X400029Y226199D01*
X399029D01*
X398029Y225199D01*
Y223200D01*
X399029Y222200D01*
X401028D01*
X402028Y223200D01*
X396030Y222200D02*
X394030D01*
X395030D01*
Y228198D01*
X396030Y227198D01*
X446127Y466998D02*
X447127Y467998D01*
X449126D01*
X450126Y466998D01*
Y465999D01*
X449126Y464999D01*
X447127D01*
X446127Y463999D01*
Y463000D01*
X447127Y462000D01*
X449126D01*
X450126Y463000D01*
X440129Y466998D02*
X441129Y467998D01*
X443128D01*
X444128Y466998D01*
Y465999D01*
X443128Y464999D01*
X441129D01*
X440129Y463999D01*
Y463000D01*
X441129Y462000D01*
X443128D01*
X444128Y463000D01*
X438130Y466998D02*
X437130Y467998D01*
X435131D01*
X434131Y466998D01*
Y465999D01*
X435131Y464999D01*
X436131D01*
X435131D01*
X434131Y463999D01*
Y463000D01*
X435131Y462000D01*
X437130D01*
X438130Y463000D01*
X429133Y462000D02*
Y467998D01*
X432132Y464999D01*
X428133D01*
X503126Y467998D02*
Y462000D01*
X500127D01*
X499127Y463000D01*
Y466998D01*
X500127Y467998D01*
X503126D01*
X493129D02*
X495129Y466998D01*
X497128Y464999D01*
Y463000D01*
X496128Y462000D01*
X494129D01*
X493129Y463000D01*
Y463999D01*
X494129Y464999D01*
X497128D01*
X449127Y477998D02*
X450127Y478998D01*
X452126D01*
X453126Y477998D01*
Y476999D01*
X452126Y475999D01*
X450127D01*
X449127Y474999D01*
Y474000D01*
X450127Y473000D01*
X452126D01*
X453126Y474000D01*
X443129Y477998D02*
X444129Y478998D01*
X446128D01*
X447128Y477998D01*
Y476999D01*
X446128Y475999D01*
X444129D01*
X443129Y474999D01*
Y474000D01*
X444129Y473000D01*
X446128D01*
X447128Y474000D01*
X441130Y477998D02*
X440130Y478998D01*
X438131D01*
X437131Y477998D01*
Y476999D01*
X438131Y475999D01*
X439130D01*
X438131D01*
X437131Y474999D01*
Y474000D01*
X438131Y473000D01*
X440130D01*
X441130Y474000D01*
X432133Y473000D02*
Y478998D01*
X435132Y475999D01*
X431133D01*
X503126Y486998D02*
Y481000D01*
X500127D01*
X499127Y482000D01*
Y485998D01*
X500127Y486998D01*
X503126D01*
X493129D02*
X497128D01*
Y483999D01*
X495129Y484999D01*
X494129D01*
X493129Y483999D01*
Y482000D01*
X494129Y481000D01*
X496128D01*
X497128Y482000D01*
X498849Y257898D02*
Y251900D01*
X495850D01*
X494850Y252900D01*
Y253899D01*
X495850Y254899D01*
X498849D01*
X495850D01*
X494850Y255899D01*
Y256898D01*
X495850Y257898D01*
X498849D01*
X488852Y252900D02*
Y256898D01*
X489852Y257898D01*
X491851D01*
X492851Y256898D01*
Y252900D01*
X491851Y251900D01*
X489852D01*
X490852Y253899D02*
X488852Y251900D01*
X489852D02*
X488852Y252900D01*
X482854Y257898D02*
X484854Y256898D01*
X486853Y254899D01*
Y252900D01*
X485853Y251900D01*
X483854D01*
X482854Y252900D01*
Y253899D01*
X483854Y254899D01*
X486853D01*
X396000Y253998D02*
Y248000D01*
X393001D01*
X392001Y249000D01*
Y249999D01*
X393001Y250999D01*
X396000D01*
X393001D01*
X392001Y251999D01*
Y252998D01*
X393001Y253998D01*
X396000D01*
X386003Y249000D02*
Y252998D01*
X387003Y253998D01*
X389002D01*
X390002Y252998D01*
Y249000D01*
X389002Y248000D01*
X387003D01*
X388003Y249999D02*
X386003Y248000D01*
X387003D02*
X386003Y249000D01*
X380005Y253998D02*
X384004D01*
Y250999D01*
X382004Y251999D01*
X381005D01*
X380005Y250999D01*
Y249000D01*
X381005Y248000D01*
X383004D01*
X384004Y249000D01*
X604000Y409998D02*
X603000Y410998D01*
X601001D01*
X600001Y409998D01*
Y406000D01*
X601001Y405000D01*
X603000D01*
X604000Y406000D01*
Y409998D01*
X598002Y405000D02*
Y406000D01*
X597002D01*
Y405000D01*
X598002D01*
X593004D02*
X591004D01*
X592004D01*
Y410998D01*
X593004Y409998D01*
X588005Y408999D02*
Y406000D01*
X587006Y405000D01*
X584007D01*
Y408999D01*
X578008Y410998D02*
X582007D01*
Y407999D01*
X580008D01*
X582007D01*
Y405000D01*
X596401Y430898D02*
X597401Y431898D01*
X599400D01*
X600400Y430898D01*
Y426900D01*
X599400Y425900D01*
X597401D01*
X596401Y426900D01*
X594402Y425900D02*
X592403D01*
X593402D01*
Y431898D01*
X594402Y430898D01*
X589404D02*
X588404Y431898D01*
X586405D01*
X585405Y430898D01*
Y429899D01*
X586405Y428899D01*
X587404D01*
X586405D01*
X585405Y427899D01*
Y426900D01*
X586405Y425900D01*
X588404D01*
X589404Y426900D01*
X601000Y219998D02*
X600000Y220998D01*
X598001D01*
X597001Y219998D01*
Y216000D01*
X598001Y215000D01*
X600000D01*
X601000Y216000D01*
Y219998D01*
X595002Y215000D02*
Y216000D01*
X594002D01*
Y215000D01*
X595002D01*
X590004D02*
X588004D01*
X589004D01*
Y220998D01*
X590004Y219998D01*
X585005Y218999D02*
Y216000D01*
X584005Y215000D01*
X581006D01*
Y218999D01*
X575008Y220998D02*
X579007D01*
Y217999D01*
X577008D01*
X579007D01*
Y215000D01*
X591001Y239998D02*
X592001Y240998D01*
X594000D01*
X595000Y239998D01*
Y236000D01*
X594000Y235000D01*
X592001D01*
X591001Y236000D01*
X589002Y235000D02*
X587003D01*
X588002D01*
Y240998D01*
X589002Y239998D01*
X581004Y235000D02*
Y240998D01*
X584004Y237999D01*
X580005D01*
X667000Y409998D02*
X666000Y410998D01*
X664001D01*
X663001Y409998D01*
Y406000D01*
X664001Y405000D01*
X666000D01*
X667000Y406000D01*
Y409998D01*
X661002Y405000D02*
Y406000D01*
X660002D01*
Y405000D01*
X661002D01*
X656004D02*
X654004D01*
X655004D01*
Y410998D01*
X656004Y409998D01*
X651005Y408999D02*
Y406000D01*
X650005Y405000D01*
X647007D01*
Y408999D01*
X641008Y410998D02*
X645007D01*
Y407999D01*
X643008D01*
X645007D01*
Y405000D01*
X658401Y431898D02*
X659401Y432898D01*
X661400D01*
X662400Y431898D01*
Y427900D01*
X661400Y426900D01*
X659401D01*
X658401Y427900D01*
X652403Y426900D02*
X656402D01*
X652403Y430899D01*
Y431898D01*
X653403Y432898D01*
X655402D01*
X656402Y431898D01*
X650404D02*
X649404Y432898D01*
X647405D01*
X646405Y431898D01*
Y430899D01*
X647405Y429899D01*
X648405D01*
X647405D01*
X646405Y428899D01*
Y427900D01*
X647405Y426900D01*
X649404D01*
X650404Y427900D01*
X661000Y220998D02*
X660000Y221998D01*
X658001D01*
X657001Y220998D01*
Y217000D01*
X658001Y216000D01*
X660000D01*
X661000Y217000D01*
Y220998D01*
X655002Y216000D02*
Y217000D01*
X654002D01*
Y216000D01*
X655002D01*
X650004D02*
X648004D01*
X649004D01*
Y221998D01*
X650004Y220998D01*
X645005Y219999D02*
Y217000D01*
X644005Y216000D01*
X641007D01*
Y219999D01*
X635008Y221998D02*
X639007D01*
Y218999D01*
X637008D01*
X639007D01*
Y216000D01*
X652001Y240998D02*
X653001Y241998D01*
X655000D01*
X656000Y240998D01*
Y237000D01*
X655000Y236000D01*
X653001D01*
X652001Y237000D01*
X646003Y236000D02*
X650002D01*
X646003Y239999D01*
Y240998D01*
X647003Y241998D01*
X649002D01*
X650002Y240998D01*
X641005Y236000D02*
Y241998D01*
X644004Y238999D01*
X640005D01*
X602000Y203998D02*
X598001D01*
Y202998D01*
X602000Y199000D01*
Y198000D01*
X598001D01*
X592003Y203998D02*
X596002D01*
Y198000D01*
X592003D01*
X596002Y200999D02*
X594003D01*
X590004Y198000D02*
Y203998D01*
X586005Y198000D01*
Y203998D01*
X580007D02*
X584006D01*
Y198000D01*
X580007D01*
X584006Y200999D02*
X582007D01*
X578008Y198000D02*
Y203998D01*
X575009D01*
X574009Y202998D01*
Y200999D01*
X575009Y199999D01*
X578008D01*
X576008D02*
X574009Y198000D01*
X615000Y212998D02*
Y207000D01*
X612001D01*
X611001Y208000D01*
Y211998D01*
X612001Y212998D01*
X615000D01*
X609002Y207000D02*
X607003D01*
X608002D01*
Y212998D01*
X609002Y211998D01*
X604004D02*
X603004Y212998D01*
X601005D01*
X600005Y211998D01*
Y208000D01*
X601005Y207000D01*
X603004D01*
X604004Y208000D01*
Y211998D01*
X565001Y455005D02*
X566001Y456004D01*
X568000D01*
X569000Y455005D01*
Y454005D01*
X568000Y453005D01*
X566001D01*
X565001Y452006D01*
Y451006D01*
X566001Y450006D01*
X568000D01*
X569000Y451006D01*
X559003Y455005D02*
X560003Y456004D01*
X562002D01*
X563002Y455005D01*
Y454005D01*
X562002Y453005D01*
X560003D01*
X559003Y452006D01*
Y451006D01*
X560003Y450006D01*
X562002D01*
X563002Y451006D01*
X557004Y455005D02*
X556004Y456004D01*
X554005D01*
X553005Y455005D01*
Y454005D01*
X554005Y453005D01*
X555005D01*
X554005D01*
X553005Y452006D01*
Y451006D01*
X554005Y450006D01*
X556004D01*
X557004Y451006D01*
X548007Y450006D02*
Y456004D01*
X551006Y453005D01*
X547007D01*
X585500Y455598D02*
Y449600D01*
X582501D01*
X581501Y450600D01*
Y454598D01*
X582501Y455598D01*
X585500D01*
X579502Y449600D02*
X577503D01*
X578502D01*
Y455598D01*
X579502Y454598D01*
X574504Y449600D02*
X572504D01*
X573504D01*
Y455598D01*
X574504Y454598D01*
X599501Y299498D02*
X600501Y300498D01*
X602500D01*
X603500Y299498D01*
Y298499D01*
X602500Y297499D01*
X600501D01*
X599501Y296499D01*
Y295500D01*
X600501Y294500D01*
X602500D01*
X603500Y295500D01*
X593503Y299498D02*
X594503Y300498D01*
X596502D01*
X597502Y299498D01*
Y298499D01*
X596502Y297499D01*
X594503D01*
X593503Y296499D01*
Y295500D01*
X594503Y294500D01*
X596502D01*
X597502Y295500D01*
X591504Y299498D02*
X590504Y300498D01*
X588505D01*
X587505Y299498D01*
Y298499D01*
X588505Y297499D01*
X589504D01*
X588505D01*
X587505Y296499D01*
Y295500D01*
X588505Y294500D01*
X590504D01*
X591504Y295500D01*
X582507Y294500D02*
Y300498D01*
X585506Y297499D01*
X581507D01*
X603500Y325598D02*
Y319600D01*
X600501D01*
X599501Y320600D01*
Y324598D01*
X600501Y325598D01*
X603500D01*
X597502Y319600D02*
X595503D01*
X596502D01*
Y325598D01*
X597502Y324598D01*
X588505Y319600D02*
X592504D01*
X588505Y323599D01*
Y324598D01*
X589504Y325598D01*
X591504D01*
X592504Y324598D01*
X663000Y203998D02*
X659001D01*
Y202998D01*
X663000Y199000D01*
Y198000D01*
X659001D01*
X653003Y203998D02*
X657002D01*
Y198000D01*
X653003D01*
X657002Y200999D02*
X655003D01*
X651004Y198000D02*
Y203998D01*
X647005Y198000D01*
Y203998D01*
X641007D02*
X645006D01*
Y198000D01*
X641007D01*
X645006Y200999D02*
X643007D01*
X639008Y198000D02*
Y203998D01*
X636009D01*
X635009Y202998D01*
Y200999D01*
X636009Y199999D01*
X639008D01*
X637008D02*
X635009Y198000D01*
X677000Y212998D02*
Y207000D01*
X674001D01*
X673001Y208000D01*
Y211998D01*
X674001Y212998D01*
X677000D01*
X667003Y207000D02*
X671002D01*
X667003Y210999D01*
Y211998D01*
X668003Y212998D01*
X670002D01*
X671002Y211998D01*
X665004D02*
X664004Y212998D01*
X662005D01*
X661005Y211998D01*
Y208000D01*
X662005Y207000D01*
X664004D01*
X665004Y208000D01*
Y211998D01*
X613001Y453998D02*
X614001Y454998D01*
X616000D01*
X617000Y453998D01*
Y452999D01*
X616000Y451999D01*
X614001D01*
X613001Y450999D01*
Y450000D01*
X614001Y449000D01*
X616000D01*
X617000Y450000D01*
X607003Y453998D02*
X608003Y454998D01*
X610002D01*
X611002Y453998D01*
Y452999D01*
X610002Y451999D01*
X608003D01*
X607003Y450999D01*
Y450000D01*
X608003Y449000D01*
X610002D01*
X611002Y450000D01*
X605004Y453998D02*
X604004Y454998D01*
X602005D01*
X601005Y453998D01*
Y452999D01*
X602005Y451999D01*
X603005D01*
X602005D01*
X601005Y450999D01*
Y450000D01*
X602005Y449000D01*
X604004D01*
X605004Y450000D01*
X596007Y449000D02*
Y454998D01*
X599006Y451999D01*
X595007D01*
X636000Y454998D02*
Y449000D01*
X633001D01*
X632001Y450000D01*
Y453998D01*
X633001Y454998D01*
X636000D01*
X626003Y449000D02*
X630002D01*
X626003Y452999D01*
Y453998D01*
X627003Y454998D01*
X629002D01*
X630002Y453998D01*
X624004Y449000D02*
X622005D01*
X623004D01*
Y454998D01*
X624004Y453998D01*
X665501Y299498D02*
X666501Y300498D01*
X668500D01*
X669500Y299498D01*
Y298499D01*
X668500Y297499D01*
X666501D01*
X665501Y296499D01*
Y295500D01*
X666501Y294500D01*
X668500D01*
X669500Y295500D01*
X659503Y299498D02*
X660503Y300498D01*
X662502D01*
X663502Y299498D01*
Y298499D01*
X662502Y297499D01*
X660503D01*
X659503Y296499D01*
Y295500D01*
X660503Y294500D01*
X662502D01*
X663502Y295500D01*
X657504Y299498D02*
X656504Y300498D01*
X654505D01*
X653505Y299498D01*
Y298499D01*
X654505Y297499D01*
X655505D01*
X654505D01*
X653505Y296499D01*
Y295500D01*
X654505Y294500D01*
X656504D01*
X657504Y295500D01*
X648507Y294500D02*
Y300498D01*
X651506Y297499D01*
X647507D01*
X669500Y325598D02*
Y319600D01*
X666501D01*
X665501Y320600D01*
Y324598D01*
X666501Y325598D01*
X669500D01*
X659503Y319600D02*
X663502D01*
X659503Y323599D01*
Y324598D01*
X660503Y325598D01*
X662502D01*
X663502Y324598D01*
X653505Y319600D02*
X657504D01*
X653505Y323599D01*
Y324598D01*
X654505Y325598D01*
X656504D01*
X657504Y324598D01*
X398002Y359000D02*
X397002Y358000D01*
Y356001D01*
X398002Y355001D01*
X402000D01*
X403000Y356001D01*
Y358000D01*
X402000Y359000D01*
X398002D01*
X403000Y353002D02*
X402000D01*
Y352002D01*
X403000D01*
Y353002D01*
Y348004D02*
Y346004D01*
Y347004D01*
X397002D01*
X398002Y348004D01*
X399001Y343005D02*
X402000D01*
X403000Y342005D01*
Y339006D01*
X399001D01*
X397002Y333008D02*
Y337007D01*
X400001D01*
Y335008D01*
Y337007D01*
X403000D01*
X390001Y351998D02*
X391001Y352998D01*
X393000D01*
X394000Y351998D01*
Y348000D01*
X393000Y347000D01*
X391001D01*
X390001Y348000D01*
X388002Y351998D02*
X387002Y352998D01*
X385003D01*
X384003Y351998D01*
Y350999D01*
X385003Y349999D01*
X386003D01*
X385003D01*
X384003Y348999D01*
Y348000D01*
X385003Y347000D01*
X387002D01*
X388002Y348000D01*
X382004Y351998D02*
X381004Y352998D01*
X379005D01*
X378005Y351998D01*
Y350999D01*
X379005Y349999D01*
X380005D01*
X379005D01*
X378005Y348999D01*
Y348000D01*
X379005Y347000D01*
X381004D01*
X382004Y348000D01*
X389001Y333998D02*
X390001Y334998D01*
X392000D01*
X393000Y333998D01*
Y330000D01*
X392000Y329000D01*
X390001D01*
X389001Y330000D01*
X387002Y333998D02*
X386002Y334998D01*
X384003D01*
X383003Y333998D01*
Y332999D01*
X384003Y331999D01*
X385003D01*
X384003D01*
X383003Y330999D01*
Y330000D01*
X384003Y329000D01*
X386002D01*
X387002Y330000D01*
X378005Y329000D02*
Y334998D01*
X381004Y331999D01*
X377005D01*
X487000Y424998D02*
X486000Y425998D01*
X484001D01*
X483001Y424998D01*
Y421000D01*
X484001Y420000D01*
X486000D01*
X487000Y421000D01*
Y424998D01*
X481002Y420000D02*
Y421000D01*
X480002D01*
Y420000D01*
X481002D01*
X476004D02*
X474004D01*
X475004D01*
Y425998D01*
X476004Y424998D01*
X471005Y423999D02*
Y421000D01*
X470006Y420000D01*
X467006D01*
Y423999D01*
X461008Y425998D02*
X465007D01*
Y422999D01*
X463008D01*
X465007D01*
Y420000D01*
X489024Y426599D02*
X490024Y425599D01*
Y423600D01*
X489024Y422600D01*
X485026D01*
X484026Y423600D01*
Y425599D01*
X485026Y426599D01*
X489024Y428598D02*
X490024Y429598D01*
Y431597D01*
X489024Y432597D01*
X488025D01*
X487025Y431597D01*
Y430597D01*
Y431597D01*
X486025Y432597D01*
X485026D01*
X484026Y431597D01*
Y429598D01*
X485026Y428598D01*
X490024Y438595D02*
Y434596D01*
X487025D01*
X488025Y436595D01*
Y437595D01*
X487025Y438595D01*
X485026D01*
X484026Y437595D01*
Y435596D01*
X485026Y434596D01*
X461000Y435000D02*
X459001D01*
X460000D01*
Y440998D01*
X461000Y439998D01*
X456002D02*
X455002Y440998D01*
X453003D01*
X452003Y439998D01*
Y436000D01*
X453003Y435000D01*
X455002D01*
X456002Y436000D01*
Y439998D01*
X450004Y438999D02*
Y436000D01*
X449004Y435000D01*
X446005D01*
Y438999D01*
X440007Y440998D02*
X444005D01*
Y437999D01*
X442006D01*
X444005D01*
Y435000D01*
X494001Y439998D02*
X495001Y440998D01*
X497000D01*
X498000Y439998D01*
Y436000D01*
X497000Y435000D01*
X495001D01*
X494001Y436000D01*
X492002Y439998D02*
X491002Y440998D01*
X489003D01*
X488003Y439998D01*
Y438999D01*
X489003Y437999D01*
X490003D01*
X489003D01*
X488003Y436999D01*
Y436000D01*
X489003Y435000D01*
X491002D01*
X492002Y436000D01*
X482005Y440998D02*
X484004Y439998D01*
X486004Y437999D01*
Y436000D01*
X485004Y435000D01*
X483005D01*
X482005Y436000D01*
Y436999D01*
X483005Y437999D01*
X486004D01*
X513126Y429000D02*
Y427001D01*
Y428000D01*
X507128D01*
X508128Y429000D01*
Y424002D02*
X507128Y423002D01*
Y421003D01*
X508128Y420003D01*
X512126D01*
X513126Y421003D01*
Y423002D01*
X512126Y424002D01*
X508128D01*
X509127Y418004D02*
X512126D01*
X513126Y417004D01*
Y414005D01*
X509127D01*
X507128Y408007D02*
Y412006D01*
X510127D01*
Y410006D01*
Y412006D01*
X513126D01*
X516128Y424001D02*
X515128Y425001D01*
Y427000D01*
X516128Y428000D01*
X520126D01*
X521126Y427000D01*
Y425001D01*
X520126Y424001D01*
X521126Y419003D02*
X515128D01*
X518127Y422002D01*
Y418003D01*
X521126Y413005D02*
X515128D01*
X518127Y416004D01*
Y412005D01*
X448127Y452998D02*
X449127Y453998D01*
X451126D01*
X452126Y452998D01*
Y451999D01*
X451126Y450999D01*
X449127D01*
X448127Y449999D01*
Y449000D01*
X449127Y448000D01*
X451126D01*
X452126Y449000D01*
X442129Y452998D02*
X443129Y453998D01*
X445128D01*
X446128Y452998D01*
Y451999D01*
X445128Y450999D01*
X443129D01*
X442129Y449999D01*
Y449000D01*
X443129Y448000D01*
X445128D01*
X446128Y449000D01*
X440130Y448000D02*
X438131D01*
X439130D01*
Y453998D01*
X440130Y452998D01*
X432132Y448000D02*
Y453998D01*
X435132Y450999D01*
X431133D01*
X503126Y453998D02*
Y448000D01*
X500127D01*
X499127Y449000D01*
Y452998D01*
X500127Y453998D01*
X503126D01*
X494129Y448000D02*
Y453998D01*
X497128Y450999D01*
X493129D01*
X376002Y384000D02*
X375002Y383000D01*
Y381001D01*
X376002Y380001D01*
X377001D01*
X378001Y381001D01*
Y382001D01*
Y381001D01*
X379001Y380001D01*
X380000D01*
X381000Y381001D01*
Y383000D01*
X380000Y384000D01*
Y378002D02*
X381000Y377002D01*
Y375003D01*
X380000Y374003D01*
X376002D01*
X375002Y375003D01*
Y377002D01*
X376002Y378002D01*
X377001D01*
X378001Y377002D01*
Y374003D01*
X375002Y372004D02*
X381000D01*
X379001D01*
X375002Y368005D01*
X378001Y371004D01*
X381000Y368005D01*
X388000Y384000D02*
X382002D01*
Y381001D01*
X383002Y380001D01*
X385001D01*
X386001Y381001D01*
Y384000D01*
Y382001D02*
X388000Y380001D01*
X383002Y378002D02*
X382002Y377002D01*
Y375003D01*
X383002Y374003D01*
X384001D01*
X385001Y375003D01*
Y376003D01*
Y375003D01*
X386001Y374003D01*
X387000D01*
X388000Y375003D01*
Y377002D01*
X387000Y378002D01*
X388000Y368005D02*
Y372004D01*
X384001Y368005D01*
X383002D01*
X382002Y369005D01*
Y371004D01*
X383002Y372004D01*
X422600Y362898D02*
X421600Y363898D01*
X419601D01*
X418601Y362898D01*
Y361899D01*
X419601Y360899D01*
X420601D01*
X419601D01*
X418601Y359899D01*
Y358900D01*
X419601Y357900D01*
X421600D01*
X422600Y358900D01*
X416602D02*
X415602Y357900D01*
X413603D01*
X412603Y358900D01*
Y362898D01*
X413603Y363898D01*
X415602D01*
X416602Y362898D01*
Y361899D01*
X415602Y360899D01*
X412603D01*
X410604Y363898D02*
Y357900D01*
Y359899D01*
X406605Y363898D01*
X409604Y360899D01*
X406605Y357900D01*
X422600Y380100D02*
Y386098D01*
X419601D01*
X418601Y385098D01*
Y383099D01*
X419601Y382099D01*
X422600D01*
X420601D02*
X418601Y380100D01*
X416602Y385098D02*
X415602Y386098D01*
X413603D01*
X412603Y385098D01*
Y384099D01*
X413603Y383099D01*
X414603D01*
X413603D01*
X412603Y382099D01*
Y381100D01*
X413603Y380100D01*
X415602D01*
X416602Y381100D01*
X407605Y380100D02*
Y386098D01*
X410604Y383099D01*
X406605D01*
X405000Y387998D02*
X404000Y388998D01*
X402001D01*
X401001Y387998D01*
Y386999D01*
X402001Y385999D01*
X403001D01*
X402001D01*
X401001Y384999D01*
Y384000D01*
X402001Y383000D01*
X404000D01*
X405000Y384000D01*
X399002Y387998D02*
X398002Y388998D01*
X396003D01*
X395003Y387998D01*
Y384000D01*
X396003Y383000D01*
X398002D01*
X399002Y384000D01*
Y387998D01*
X393004Y388998D02*
Y383000D01*
Y384999D01*
X389005Y388998D01*
X392004Y385999D01*
X389005Y383000D01*
X404000Y401000D02*
Y406998D01*
X401001D01*
X400001Y405998D01*
Y403999D01*
X401001Y402999D01*
X404000D01*
X402001D02*
X400001Y401000D01*
X398002Y405998D02*
X397002Y406998D01*
X395003D01*
X394003Y405998D01*
Y404999D01*
X395003Y403999D01*
X396003D01*
X395003D01*
X394003Y402999D01*
Y402000D01*
X395003Y401000D01*
X397002D01*
X398002Y402000D01*
X388005Y406998D02*
X390004Y405998D01*
X392004Y403999D01*
Y402000D01*
X391004Y401000D01*
X389005D01*
X388005Y402000D01*
Y402999D01*
X389005Y403999D01*
X392004D01*
X459100Y385398D02*
X458100Y386398D01*
X456101D01*
X455101Y385398D01*
Y384399D01*
X456101Y383399D01*
X457101D01*
X456101D01*
X455101Y382399D01*
Y381400D01*
X456101Y380400D01*
X458100D01*
X459100Y381400D01*
X453102Y385398D02*
X452102Y386398D01*
X450103D01*
X449103Y385398D01*
Y381400D01*
X450103Y380400D01*
X452102D01*
X453102Y381400D01*
Y385398D01*
X447104Y386398D02*
Y380400D01*
Y382399D01*
X443105Y386398D01*
X446104Y383399D01*
X443105Y380400D01*
X449000Y407000D02*
X443002D01*
Y404001D01*
X444002Y403001D01*
X446001D01*
X447001Y404001D01*
Y407000D01*
Y405001D02*
X449000Y403001D01*
X444002Y401002D02*
X443002Y400002D01*
Y398003D01*
X444002Y397003D01*
X445001D01*
X446001Y398003D01*
Y399003D01*
Y398003D01*
X447001Y397003D01*
X448000D01*
X449000Y398003D01*
Y400002D01*
X448000Y401002D01*
X444002Y395004D02*
X443002Y394004D01*
Y392005D01*
X444002Y391005D01*
X445001D01*
X446001Y392005D01*
X447001Y391005D01*
X448000D01*
X449000Y392005D01*
Y394004D01*
X448000Y395004D01*
X447001D01*
X446001Y394004D01*
X445001Y395004D01*
X444002D01*
X446001Y394004D02*
Y392005D01*
X405002Y424001D02*
Y428000D01*
X408001D01*
X407001Y426001D01*
Y425001D01*
X408001Y424001D01*
X410000D01*
X411000Y425001D01*
Y427000D01*
X410000Y428000D01*
X411000Y422002D02*
Y420003D01*
Y421002D01*
X405002D01*
X406002Y422002D01*
Y417004D02*
X405002Y416004D01*
Y414005D01*
X406002Y413005D01*
X410000D01*
X411000Y414005D01*
Y416004D01*
X410000Y417004D01*
X406002D01*
X390000Y428000D02*
X384002D01*
Y425001D01*
X385002Y424001D01*
X387001D01*
X388001Y425001D01*
Y428000D01*
Y426001D02*
X390000Y424001D01*
X385002Y422002D02*
X384002Y421002D01*
Y419003D01*
X385002Y418003D01*
X386001D01*
X387001Y419003D01*
Y420003D01*
Y419003D01*
X388001Y418003D01*
X389000D01*
X390000Y419003D01*
Y421002D01*
X389000Y422002D01*
Y416004D02*
X390000Y415004D01*
Y413005D01*
X389000Y412005D01*
X385002D01*
X384002Y413005D01*
Y415004D01*
X385002Y416004D01*
X386001D01*
X387001Y415004D01*
Y412005D01*
X436001Y430998D02*
X440000D01*
Y427999D01*
X438001Y428999D01*
X437001D01*
X436001Y427999D01*
Y426000D01*
X437001Y425000D01*
X439000D01*
X440000Y426000D01*
X434002Y425000D02*
X432003D01*
X433002D01*
Y430998D01*
X434002Y429998D01*
X429004D02*
X428004Y430998D01*
X426005D01*
X425005Y429998D01*
Y426000D01*
X426005Y425000D01*
X428004D01*
X429004Y426000D01*
Y429998D01*
X459600Y425100D02*
Y431098D01*
X456601D01*
X455601Y430098D01*
Y428099D01*
X456601Y427099D01*
X459600D01*
X457601D02*
X455601Y425100D01*
X450603D02*
Y431098D01*
X453602Y428099D01*
X449603D01*
X447604Y430098D02*
X446604Y431098D01*
X444605D01*
X443605Y430098D01*
Y426100D01*
X444605Y425100D01*
X446604D01*
X447604Y426100D01*
Y430098D01*
X471226Y389400D02*
X469227D01*
X470226D01*
Y395398D01*
X471226Y394398D01*
X466228Y395398D02*
Y389400D01*
Y391399D01*
X462229Y395398D01*
X465228Y392399D01*
X462229Y389400D01*
X460126Y416000D02*
X454128D01*
Y413001D01*
X455128Y412001D01*
X457127D01*
X458127Y413001D01*
Y416000D01*
Y414001D02*
X460126Y412001D01*
Y407003D02*
X454128D01*
X457127Y410002D01*
Y406003D01*
X460126Y404004D02*
Y402004D01*
Y403004D01*
X454128D01*
X455128Y404004D01*
X489727Y388900D02*
X493726D01*
X489727Y392899D01*
Y393898D01*
X490727Y394898D01*
X492726D01*
X493726Y393898D01*
X487728D02*
X486728Y394898D01*
X484729D01*
X483729Y393898D01*
Y389900D01*
X484729Y388900D01*
X486728D01*
X487728Y389900D01*
Y393898D01*
X481730D02*
X480730Y394898D01*
X478731D01*
X477731Y393898D01*
Y389900D01*
X478731Y388900D01*
X480730D01*
X481730Y389900D01*
Y393898D01*
X493726Y411100D02*
Y417098D01*
X490727D01*
X489727Y416098D01*
Y414099D01*
X490727Y413099D01*
X493726D01*
X491727D02*
X489727Y411100D01*
X484729D02*
Y417098D01*
X487728Y414099D01*
X483729D01*
X477731Y411100D02*
X481730D01*
X477731Y415099D01*
Y416098D01*
X478731Y417098D01*
X480730D01*
X481730Y416098D01*
X516128Y402000D02*
X515128Y401000D01*
Y399001D01*
X516128Y398001D01*
X517127D01*
X518127Y399001D01*
Y400001D01*
Y399001D01*
X519127Y398001D01*
X520126D01*
X521126Y399001D01*
Y401000D01*
X520126Y402000D01*
X516128Y396002D02*
X515128Y395002D01*
Y393003D01*
X516128Y392003D01*
X520126D01*
X521126Y393003D01*
Y395002D01*
X520126Y396002D01*
X516128D01*
Y390004D02*
X515128Y389004D01*
Y387005D01*
X516128Y386005D01*
X520126D01*
X521126Y387005D01*
Y389004D01*
X520126Y390004D01*
X516128D01*
X514126Y402000D02*
X508128D01*
Y399001D01*
X509128Y398001D01*
X511127D01*
X512127Y399001D01*
Y402000D01*
Y400001D02*
X514126Y398001D01*
Y393003D02*
X508128D01*
X511127Y396002D01*
Y392003D01*
X509128Y390004D02*
X508128Y389004D01*
Y387005D01*
X509128Y386005D01*
X510127D01*
X511127Y387005D01*
Y388004D01*
Y387005D01*
X512127Y386005D01*
X513126D01*
X514126Y387005D01*
Y389004D01*
X513126Y390004D01*
X423002Y407000D02*
X429000D01*
Y403001D01*
Y401002D02*
X423002D01*
X425001Y399003D01*
X423002Y397003D01*
X429000D01*
X424002Y395004D02*
X423002Y394004D01*
Y392005D01*
X424002Y391005D01*
X425001D01*
X426001Y392005D01*
Y393004D01*
Y392005D01*
X427001Y391005D01*
X428000D01*
X429000Y392005D01*
Y394004D01*
X428000Y395004D01*
X423002Y385007D02*
Y389006D01*
X426001D01*
X425001Y387006D01*
Y386007D01*
X426001Y385007D01*
X428000D01*
X429000Y386007D01*
Y388006D01*
X428000Y389006D01*
X424002Y383008D02*
X423002Y382008D01*
Y380009D01*
X424002Y379009D01*
X425001D01*
X426001Y380009D01*
X427001Y379009D01*
X428000D01*
X429000Y380009D01*
Y382008D01*
X428000Y383008D01*
X427001D01*
X426001Y382008D01*
X425001Y383008D01*
X424002D01*
X426001Y382008D02*
Y380009D01*
X440500Y408998D02*
Y404000D01*
X439500Y403000D01*
X437501D01*
X436501Y404000D01*
Y408998D01*
X434502Y407998D02*
X433502Y408998D01*
X431503D01*
X430503Y407998D01*
Y406999D01*
X431503Y405999D01*
X432503D01*
X431503D01*
X430503Y404999D01*
Y404000D01*
X431503Y403000D01*
X433502D01*
X434502Y404000D01*
X495126Y385998D02*
Y381000D01*
X494126Y380000D01*
X492127D01*
X491127Y381000D01*
Y385998D01*
X486129Y380000D02*
Y385998D01*
X489128Y382999D01*
X485129D01*
D46*
X387500Y345000D02*
X394500D01*
Y337000D02*
Y345000D01*
X387500Y337000D02*
X394500D01*
X376500D02*
X383500D01*
X376500D02*
Y345000D01*
X383500D01*
X388500Y360000D02*
X395500D01*
Y352000D02*
Y360000D01*
X388500Y352000D02*
X395500D01*
X377500D02*
X384500D01*
X377500D02*
Y360000D01*
X384500D01*
X598000Y223500D02*
Y232500D01*
X579000Y223500D02*
Y232500D01*
X590500Y223500D02*
X598000D01*
X590500Y232500D02*
X598000D01*
X579000D02*
X586500D01*
X579000Y223500D02*
X586500D01*
X601000Y413500D02*
Y422500D01*
X582000Y413500D02*
Y422500D01*
X593500Y413500D02*
X601000D01*
X593500Y422500D02*
X601000D01*
X582000D02*
X589500D01*
X582000Y413500D02*
X589500D01*
X649900Y208300D02*
Y211700D01*
X648200Y210000D02*
X649900Y211700D01*
X648200Y210000D02*
X649900Y208300D01*
X648100Y208100D02*
Y211900D01*
X651500Y215100D02*
X659300D01*
Y204900D02*
Y215100D01*
X651500Y204900D02*
X659300D01*
X638700Y215100D02*
X646500D01*
X638700Y204900D02*
Y215100D01*
Y204900D02*
X646500D01*
X646900Y210000D02*
X648100D01*
X649900D02*
X651100D01*
X658000Y224500D02*
Y233500D01*
X639000Y224500D02*
Y233500D01*
X650500Y224500D02*
X658000D01*
X650500Y233500D02*
X658000D01*
X639000D02*
X646500D01*
X639000Y224500D02*
X646500D01*
X588900Y208300D02*
Y211700D01*
X587200Y210000D02*
X588900Y211700D01*
X587200Y210000D02*
X588900Y208300D01*
X587100Y208100D02*
Y211900D01*
X590500Y215100D02*
X598300D01*
Y204900D02*
Y215100D01*
X590500Y204900D02*
X598300D01*
X577700Y215100D02*
X585500D01*
X577700Y204900D02*
Y215100D01*
Y204900D02*
X585500D01*
X585900Y210000D02*
X587100D01*
X588900D02*
X590100D01*
X663000Y414500D02*
Y423500D01*
X644000Y414500D02*
Y423500D01*
X655500Y414500D02*
X663000D01*
X655500Y423500D02*
X663000D01*
X644000D02*
X651500D01*
X644000Y414500D02*
X651500D01*
X462626Y433000D02*
X469626D01*
X462626D02*
Y441000D01*
X469626D01*
X473626D02*
X480626D01*
Y433000D02*
Y441000D01*
X473626Y433000D02*
X480626D01*
X462626Y422000D02*
X469626D01*
X462626D02*
Y430000D01*
X469626D01*
X473626D02*
X480626D01*
Y422000D02*
Y430000D01*
X473626Y422000D02*
X480626D01*
X504126Y411500D02*
Y418500D01*
X496126Y411500D02*
X504126D01*
X496126D02*
Y418500D01*
Y422500D02*
Y429500D01*
X504126D01*
Y422500D02*
Y429500D01*
D83*
X589000Y228000D02*
X590000D01*
X587000D02*
X588000D01*
Y226000D02*
Y230000D01*
X589000Y226000D02*
Y230000D01*
X592000Y418000D02*
X593000D01*
X590000D02*
X591000D01*
Y416000D02*
Y420000D01*
X592000Y416000D02*
Y420000D01*
X649000Y229000D02*
X650000D01*
X647000D02*
X648000D01*
Y227000D02*
Y231000D01*
X649000Y227000D02*
Y231000D01*
X654000Y419000D02*
X655000D01*
X652000D02*
X653000D01*
Y417000D02*
Y421000D01*
X654000Y417000D02*
Y421000D01*
D84*
X629000Y442250D02*
D03*
X638000Y307750D02*
D03*
X572000D02*
D03*
X554000Y437756D02*
D03*
X457126Y479250D02*
D03*
Y463750D02*
D03*
Y448750D02*
D03*
D85*
X628950Y439700D02*
D03*
X638050Y310300D02*
D03*
X572050D02*
D03*
X554050Y440306D02*
D03*
X457176Y481800D02*
D03*
Y466300D02*
D03*
Y451300D02*
D03*
D86*
X628293Y440236D02*
D03*
X638708Y309760D02*
D03*
X572708Y309762D02*
D03*
X554703Y439768D02*
D03*
X457834Y481263D02*
D03*
Y465765D02*
D03*
Y450763D02*
D03*
D87*
X626357Y440107D02*
D03*
X640643Y309893D02*
D03*
X574643D02*
D03*
X556643Y439899D02*
D03*
X459769Y481393D02*
D03*
Y465893D02*
D03*
Y450893D02*
D03*
D88*
X625900Y439900D02*
D03*
X641100Y310100D02*
D03*
X575100D02*
D03*
X557100Y440106D02*
D03*
X460226Y481600D02*
D03*
Y466100D02*
D03*
Y451100D02*
D03*
M02*
