G04 Layer_Color=16711935*
%FSLAX25Y25*%
%MOIN*%
G70*
G01*
G75*
%ADD51R,0.05800X0.04400*%
%ADD52R,0.04400X0.04400*%
%ADD53R,0.04400X0.03800*%
%ADD54R,0.05800X0.06800*%
%ADD55R,0.06800X0.05800*%
%ADD70C,0.16548*%
%ADD71C,0.12611*%
%ADD72R,0.12611X0.12611*%
%ADD73C,0.14800*%
%ADD74R,0.12611X0.12611*%
%ADD75R,0.08674X0.08674*%
%ADD76C,0.08674*%
%ADD77C,0.05800*%
%ADD78R,0.08674X0.08674*%
%ADD79R,0.07000X0.07800*%
D51*
X430028Y420425D02*
D03*
X483524Y418425D02*
D03*
X409028Y420425D02*
D03*
X507028Y418425D02*
D03*
D52*
X438028Y424225D02*
D03*
X491524Y422225D02*
D03*
X417028Y424225D02*
D03*
X515028Y422225D02*
D03*
D53*
X438028Y416724D02*
D03*
X491524Y414724D02*
D03*
X417028Y416724D02*
D03*
X515028Y414724D02*
D03*
D54*
X483000Y237000D02*
D03*
Y228000D02*
D03*
X462000Y238000D02*
D03*
Y229000D02*
D03*
X409994Y227000D02*
D03*
Y218000D02*
D03*
X493994Y237000D02*
D03*
Y228000D02*
D03*
X452994Y238000D02*
D03*
Y229000D02*
D03*
X443000Y394000D02*
D03*
Y385000D02*
D03*
X485000Y393000D02*
D03*
Y384000D02*
D03*
D55*
X439000Y206994D02*
D03*
X448000D02*
D03*
X524000Y207006D02*
D03*
X515000D02*
D03*
X506000Y229994D02*
D03*
X515000D02*
D03*
X502000Y207006D02*
D03*
X493000D02*
D03*
X524000Y217000D02*
D03*
X515000D02*
D03*
X410000Y240000D02*
D03*
X401000D02*
D03*
X441000Y228006D02*
D03*
X432000D02*
D03*
X433000Y250994D02*
D03*
X442000D02*
D03*
X516000Y249994D02*
D03*
X525000D02*
D03*
X649000Y419000D02*
D03*
X658000D02*
D03*
X644000Y229000D02*
D03*
X653000D02*
D03*
X587000Y418000D02*
D03*
X596000D02*
D03*
X584000Y228000D02*
D03*
X593000D02*
D03*
X507000Y348006D02*
D03*
X498000D02*
D03*
X486000Y328006D02*
D03*
X477000D02*
D03*
X485000Y348006D02*
D03*
X476000D02*
D03*
X508000Y328006D02*
D03*
X499000D02*
D03*
D70*
X403543Y482283D02*
D03*
X679134D02*
D03*
D71*
X638213Y471905D02*
D03*
X421905Y398787D02*
D03*
X504905D02*
D03*
D72*
X658213Y471905D02*
D03*
D73*
X531677Y471441D02*
D03*
X553677D02*
D03*
X589677D02*
D03*
X611677D02*
D03*
D74*
X421905Y378787D02*
D03*
X504905D02*
D03*
D75*
X520000Y318000D02*
D03*
X548000D02*
D03*
D76*
X520000Y328000D02*
D03*
Y338000D02*
D03*
Y348000D02*
D03*
X548000Y328000D02*
D03*
Y338000D02*
D03*
Y348000D02*
D03*
D77*
X464000Y431000D02*
D03*
X469000Y213000D02*
D03*
X476000Y231000D02*
D03*
X509000Y259000D02*
D03*
X499500Y251000D02*
D03*
X503000Y277000D02*
D03*
X518000Y284000D02*
D03*
X456000Y264000D02*
D03*
X465000Y266000D02*
D03*
X474000Y271000D02*
D03*
X527000Y281000D02*
D03*
X402000Y247000D02*
D03*
X398000Y334000D02*
D03*
X415000Y262000D02*
D03*
X441000Y277000D02*
D03*
X519000Y241000D02*
D03*
X517000Y224000D02*
D03*
X509000Y209000D02*
D03*
X506000Y224000D02*
D03*
X493000Y217000D02*
D03*
X401000Y216000D02*
D03*
X424000Y246000D02*
D03*
X437000Y243000D02*
D03*
X428000Y208000D02*
D03*
X425000Y231000D02*
D03*
Y224000D02*
D03*
X571000Y418000D02*
D03*
X608000D02*
D03*
X637000Y419000D02*
D03*
X554000Y453000D02*
D03*
X606000Y309000D02*
D03*
X671000Y310000D02*
D03*
X566000D02*
D03*
X634000D02*
D03*
X569000Y236000D02*
D03*
X633000D02*
D03*
X602000D02*
D03*
X665000D02*
D03*
X571000Y272000D02*
D03*
X522000Y449000D02*
D03*
X405000Y451000D02*
D03*
X423000Y423000D02*
D03*
X447000D02*
D03*
X427000Y416000D02*
D03*
X409000Y414000D02*
D03*
X481496D02*
D03*
X505000D02*
D03*
X521000Y418000D02*
D03*
X497496Y419000D02*
D03*
X491000Y358000D02*
D03*
X407000Y309000D02*
D03*
X424000Y332000D02*
D03*
X484000Y335000D02*
D03*
X445000Y308000D02*
D03*
X472000D02*
D03*
X410000Y365000D02*
D03*
X521000Y362000D02*
D03*
X495000Y369000D02*
D03*
X506000Y340000D02*
D03*
X509000Y357000D02*
D03*
X474120Y426120D02*
D03*
X466000Y358000D02*
D03*
X480500Y403500D02*
D03*
X443000Y337000D02*
D03*
X433000Y327000D02*
D03*
X410006Y331000D02*
D03*
X420000Y309000D02*
D03*
X425000Y302000D02*
D03*
X441028Y298000D02*
D03*
X465000Y334000D02*
D03*
X484000Y292000D02*
D03*
X458000Y301000D02*
D03*
X476000D02*
D03*
X497000D02*
D03*
X527000Y382000D02*
D03*
X512000Y309000D02*
D03*
X403000Y437000D02*
D03*
Y368000D02*
D03*
Y354000D02*
D03*
D78*
X580000Y440006D02*
D03*
X564252D02*
D03*
X598000Y310000D02*
D03*
X582252D02*
D03*
X664000D02*
D03*
X648252D02*
D03*
X603000Y440000D02*
D03*
X618748D02*
D03*
X467252Y476000D02*
D03*
X483000D02*
D03*
X498748Y458000D02*
D03*
X483000D02*
D03*
X445252D02*
D03*
X461000D02*
D03*
D79*
X582400Y210000D02*
D03*
X593600D02*
D03*
X643400D02*
D03*
X654600D02*
D03*
M02*
