M48
;Layer_Color=9474304
;FILE_FORMAT=2:5
INCH,LZ
;TYPE=PLATED
T1F00S00C0.02800
T2F00S00C0.03543
T3F00S00C0.04724
T4F00S00C0.05906
T5F00S00C0.11811
%
T01
X0633Y0236
X0665
X0671Y031
X0634
X0606Y0309
X0566Y031
X0548Y0276
X0569Y0236
X0602
X052Y0228
X0501Y0233
X0503Y0254
X0487Y022
X0469Y0231
X0468Y0224
X0440126Y0203
X0409126Y0209
X0406Y0228
X0407Y0253
X0407028Y0260028
X0438Y0257
X0456Y0264
X0463126Y0307
X0442126Y0306
X0396Y0287
X0408Y0339
X0392Y0349
X0401Y0372
X04055Y03815
X0408Y0393
X0403Y0424
X0439006Y0417006
X0444Y0397
X0453006Y0386994
X0446126Y036
X0433Y0367
X0435Y0314
X0454724Y0466535
X0500126Y0437
X0492Y0408
X0508Y0391
X0487Y0379
X047888Y0375
X048Y036
X0481Y0352006
X0480994Y0340006
X0469Y0336
X0571Y0418
X0608
X0554Y0453
X0637Y0419
X0436024Y0482283
T02
X0524Y0318
Y0328
Y0338
Y0348
Y0358
Y0368
X0548
Y0358
Y0348
Y0338
Y0328
Y0318
T03
X0502952Y0281189
Y0301189
X0407031Y0301787
Y0281787
X0638213Y0471905
X0658213
T04
X0531677Y0471441
X0553677
X0589677
X0611677
T05
X0679134Y0482283
X0383858
M30
