G04 Layer_Color=128*
%FSLAX25Y25*%
%MOIN*%
G70*
G01*
G75*
%ADD10R,0.05000X0.06000*%
%ADD18R,0.06000X0.05000*%
%ADD34O,0.08000X0.02400*%
%ADD35R,0.08000X0.02400*%
%ADD36R,0.07874X0.07874*%
%ADD37R,0.06200X0.07000*%
%ADD38R,0.05000X0.03600*%
%ADD39R,0.03600X0.03600*%
%ADD40R,0.03600X0.03000*%
%ADD41R,0.03000X0.03600*%
%ADD42R,0.03600X0.03600*%
%ADD43R,0.03600X0.05000*%
D10*
X394006Y370000D02*
D03*
Y379000D02*
D03*
X397006Y415000D02*
D03*
Y424000D02*
D03*
X431132Y297000D02*
D03*
Y288000D02*
D03*
X443132Y297000D02*
D03*
Y288000D02*
D03*
X475132Y297000D02*
D03*
Y288000D02*
D03*
X463132Y297000D02*
D03*
Y288000D02*
D03*
X500126Y416000D02*
D03*
Y425000D02*
D03*
X467120Y413000D02*
D03*
Y404000D02*
D03*
X502120Y398000D02*
D03*
Y389000D02*
D03*
X383994Y216000D02*
D03*
Y225000D02*
D03*
X418006Y234000D02*
D03*
Y225000D02*
D03*
X512006Y246000D02*
D03*
Y237000D02*
D03*
X455006Y395000D02*
D03*
Y404000D02*
D03*
D18*
X390000Y341000D02*
D03*
X381000D02*
D03*
X391000Y356000D02*
D03*
X382000D02*
D03*
X392000Y395000D02*
D03*
X401000D02*
D03*
X409000Y371994D02*
D03*
X418000D02*
D03*
X455000Y417006D02*
D03*
X446000D02*
D03*
X432126Y275006D02*
D03*
X441126D02*
D03*
X474126Y274994D02*
D03*
X465126D02*
D03*
X593000Y228000D02*
D03*
X584000D02*
D03*
X596000Y418000D02*
D03*
X587000D02*
D03*
X653000Y229000D02*
D03*
X644000D02*
D03*
X658000Y419000D02*
D03*
X649000D02*
D03*
X467126Y437000D02*
D03*
X476126D02*
D03*
X467126Y426000D02*
D03*
X476126D02*
D03*
X480126Y402994D02*
D03*
X489126D02*
D03*
Y316006D02*
D03*
X498126D02*
D03*
X489126Y328006D02*
D03*
X498126D02*
D03*
X489126Y340006D02*
D03*
X498126D02*
D03*
X489126Y352006D02*
D03*
X498126D02*
D03*
X450126Y353006D02*
D03*
X459126D02*
D03*
X450126Y341006D02*
D03*
X459126D02*
D03*
X443000Y245994D02*
D03*
X434000D02*
D03*
X451126Y329006D02*
D03*
X460126D02*
D03*
X511000Y221006D02*
D03*
X520000D02*
D03*
D34*
X415126Y397000D02*
D03*
Y392000D02*
D03*
Y387000D02*
D03*
Y382000D02*
D03*
X437126D02*
D03*
Y387000D02*
D03*
Y392000D02*
D03*
D35*
Y397000D02*
D03*
D36*
X618748Y440000D02*
D03*
X603000D02*
D03*
X648252Y310000D02*
D03*
X664000D02*
D03*
X582252D02*
D03*
X598000D02*
D03*
X564252Y440006D02*
D03*
X580000D02*
D03*
X483126Y481500D02*
D03*
X467378D02*
D03*
X483126Y466000D02*
D03*
X467378D02*
D03*
Y451000D02*
D03*
X483126D02*
D03*
D37*
X654600Y210000D02*
D03*
X643400D02*
D03*
X593600D02*
D03*
X582400D02*
D03*
D38*
X479098Y381575D02*
D03*
X401028Y245425D02*
D03*
D39*
X471098Y377776D02*
D03*
X409028Y249224D02*
D03*
D40*
X471098Y385276D02*
D03*
X409028Y241724D02*
D03*
D41*
X406401Y217028D02*
D03*
X493851Y208972D02*
D03*
X419276Y268028D02*
D03*
X388775Y258972D02*
D03*
X443401Y217028D02*
D03*
X489724Y237972D02*
D03*
X475725Y256972D02*
D03*
X504523Y268528D02*
D03*
X442275Y237028D02*
D03*
X456850Y208972D02*
D03*
X455724Y230972D02*
D03*
D42*
X398902Y217028D02*
D03*
X501350Y208972D02*
D03*
X411775Y268028D02*
D03*
X396275Y258972D02*
D03*
X435901Y217028D02*
D03*
X497225Y237972D02*
D03*
X483224Y256972D02*
D03*
X497023Y268528D02*
D03*
X434775Y237028D02*
D03*
X464351Y208972D02*
D03*
X463225Y230972D02*
D03*
D43*
X402702Y209028D02*
D03*
X497550Y216972D02*
D03*
X415576Y260028D02*
D03*
X392476Y266972D02*
D03*
X439702Y209028D02*
D03*
X493425Y245972D02*
D03*
X479424Y264972D02*
D03*
X500823Y260528D02*
D03*
X438576Y229028D02*
D03*
X460550Y216972D02*
D03*
X459424Y238972D02*
D03*
M02*
