G04 Layer_Color=32896*
%FSLAX25Y25*%
%MOIN*%
G70*
G01*
G75*
%ADD43C,0.01000*%
%ADD44C,0.01200*%
%ADD45C,0.00800*%
%ADD80C,0.00500*%
%ADD81R,0.02600X0.11800*%
%ADD82R,0.03514X0.09986*%
%ADD83R,0.01584X0.08317*%
%ADD84R,0.02100X0.05400*%
%ADD85R,0.02000X0.01500*%
D43*
X576200Y446106D02*
X585900D01*
X558400Y434006D02*
X567600D01*
X558400Y446106D02*
X567900D01*
X586000Y434006D02*
Y446006D01*
X576200Y434006D02*
X586000D01*
X558400D02*
Y446006D01*
X556300Y446106D02*
X558400D01*
X556100D02*
X556300D01*
X553100Y443106D02*
X556100Y446106D01*
X556000Y434006D02*
X558400D01*
X555800Y434206D02*
X556000Y434006D01*
X553000Y437006D02*
X555800Y434206D01*
X553000Y437006D02*
Y443006D01*
X553100Y443106D01*
X554100Y436706D02*
Y437606D01*
X555348Y444075D02*
Y445355D01*
Y443255D02*
Y444075D01*
X554680Y443923D02*
X555348Y443255D01*
X554417Y443923D02*
X554680D01*
X553000Y442506D02*
X554417Y443923D01*
X594200Y316100D02*
X603900D01*
X576400Y304000D02*
X585600D01*
X576400Y316100D02*
X585900D01*
X604000Y304000D02*
Y316000D01*
X594200Y304000D02*
X604000D01*
X576400D02*
Y316000D01*
X574300Y316100D02*
X576400D01*
X574100D02*
X574300D01*
X571100Y313100D02*
X574100Y316100D01*
X574000Y304000D02*
X576400D01*
X573800Y304200D02*
X574000Y304000D01*
X571000Y307000D02*
X573800Y304200D01*
X571000Y307000D02*
Y313000D01*
X571100Y313100D01*
X572100Y306700D02*
Y307600D01*
X573348Y314068D02*
Y315348D01*
Y313248D02*
Y314068D01*
X572680Y313916D02*
X573348Y313248D01*
X572416Y313916D02*
X572680D01*
X571000Y312500D02*
X572416Y313916D01*
X660200Y316100D02*
X669900D01*
X642400Y304000D02*
X651600D01*
X642400Y316100D02*
X651900D01*
X670000Y304000D02*
Y316000D01*
X660200Y304000D02*
X670000D01*
X642400D02*
Y316000D01*
X640300Y316100D02*
X642400D01*
X640100D02*
X640300D01*
X637100Y313100D02*
X640100Y316100D01*
X640000Y304000D02*
X642400D01*
X639800Y304200D02*
X640000Y304000D01*
X637000Y307000D02*
X639800Y304200D01*
X637000Y307000D02*
Y313000D01*
X637100Y313100D01*
X638100Y306700D02*
Y307600D01*
X639348Y314068D02*
Y315348D01*
Y313248D02*
Y314068D01*
X638680Y313916D02*
X639348Y313248D01*
X638416Y313916D02*
X638680D01*
X637000Y312500D02*
X638416Y313916D01*
X597100Y433900D02*
X606800D01*
X615400Y446000D02*
X624600D01*
X615100Y433900D02*
X624600D01*
X597000Y434000D02*
Y446000D01*
X606800D01*
X624600Y434000D02*
Y446000D01*
Y433900D02*
X626700D01*
X626900D01*
X629900Y436900D01*
X624600Y446000D02*
X627000D01*
X627200Y445800D01*
X630000Y443000D01*
Y437000D02*
Y443000D01*
X629900Y436900D02*
X630000Y437000D01*
X628900Y442400D02*
Y443300D01*
X627652Y434652D02*
Y435932D01*
Y436752D01*
X628320Y436084D01*
X628583D01*
X630000Y437500D01*
X456000Y478500D02*
X457416Y479916D01*
X457680D01*
X458348Y479248D01*
Y480068D01*
Y481348D01*
X457100Y472700D02*
Y473600D01*
X456000Y479000D02*
X456100Y479100D01*
X456000Y473000D02*
Y479000D01*
Y473000D02*
X458800Y470200D01*
X459000Y470000D01*
X461400D01*
X456100Y479100D02*
X459100Y482100D01*
X459300D01*
X461400D01*
Y470000D02*
Y482000D01*
X479200Y470000D02*
X489000D01*
Y482000D01*
X461400Y482100D02*
X470900D01*
X461400Y470000D02*
X470600D01*
X479200Y482100D02*
X488900D01*
X508583Y454084D02*
X510000Y455500D01*
X508320Y454084D02*
X508583D01*
X507652Y454752D02*
X508320Y454084D01*
X507652Y453932D02*
Y454752D01*
Y452652D02*
Y453932D01*
X508900Y460400D02*
Y461300D01*
X509900Y454900D02*
X510000Y455000D01*
Y461000D01*
X507200Y463800D02*
X510000Y461000D01*
X507000Y464000D02*
X507200Y463800D01*
X504600Y464000D02*
X507000D01*
X506900Y451900D02*
X509900Y454900D01*
X506700Y451900D02*
X506900D01*
X504600D02*
X506700D01*
X504600Y452000D02*
Y464000D01*
X477000D02*
X486800D01*
X477000Y452000D02*
Y464000D01*
X495100Y451900D02*
X504600D01*
X495400Y464000D02*
X504600D01*
X477100Y451900D02*
X486800D01*
X434000Y460500D02*
X435417Y461916D01*
X435680D01*
X436348Y461248D01*
Y462068D01*
Y463348D01*
X435100Y454700D02*
Y455600D01*
X434000Y461000D02*
X434100Y461100D01*
X434000Y455000D02*
Y461000D01*
Y455000D02*
X436800Y452200D01*
X437000Y452000D01*
X439400D01*
X434100Y461100D02*
X437100Y464100D01*
X437300D01*
X439400D01*
Y452000D02*
Y464000D01*
X457200Y452000D02*
X467000D01*
Y464000D01*
X439400Y464100D02*
X448900D01*
X439400Y452000D02*
X448600D01*
X457200Y464100D02*
X466900D01*
X665501Y299498D02*
X666501Y300498D01*
X668500D01*
X669500Y299498D01*
Y298499D01*
X668500Y297499D01*
X666501D01*
X665501Y296499D01*
Y295500D01*
X666501Y294500D01*
X668500D01*
X669500Y295500D01*
X659503Y299498D02*
X660503Y300498D01*
X662502D01*
X663502Y299498D01*
Y298499D01*
X662502Y297499D01*
X660503D01*
X659503Y296499D01*
Y295500D01*
X660503Y294500D01*
X662502D01*
X663502Y295500D01*
X657504Y299498D02*
X656504Y300498D01*
X654505D01*
X653505Y299498D01*
Y298499D01*
X654505Y297499D01*
X655505D01*
X654505D01*
X653505Y296499D01*
Y295500D01*
X654505Y294500D01*
X656504D01*
X657504Y295500D01*
X648507Y294500D02*
Y300498D01*
X651506Y297499D01*
X647507D01*
X669500Y325598D02*
Y319600D01*
X666501D01*
X665501Y320600D01*
Y324598D01*
X666501Y325598D01*
X669500D01*
X659503Y319600D02*
X663502D01*
X659503Y323599D01*
Y324598D01*
X660503Y325598D01*
X662502D01*
X663502Y324598D01*
X653505Y319600D02*
X657504D01*
X653505Y323599D01*
Y324598D01*
X654505Y325598D01*
X656504D01*
X657504Y324598D01*
X613001Y453998D02*
X614001Y454998D01*
X616000D01*
X617000Y453998D01*
Y452999D01*
X616000Y451999D01*
X614001D01*
X613001Y450999D01*
Y450000D01*
X614001Y449000D01*
X616000D01*
X617000Y450000D01*
X607003Y453998D02*
X608003Y454998D01*
X610002D01*
X611002Y453998D01*
Y452999D01*
X610002Y451999D01*
X608003D01*
X607003Y450999D01*
Y450000D01*
X608003Y449000D01*
X610002D01*
X611002Y450000D01*
X605004Y453998D02*
X604004Y454998D01*
X602005D01*
X601005Y453998D01*
Y452999D01*
X602005Y451999D01*
X603005D01*
X602005D01*
X601005Y450999D01*
Y450000D01*
X602005Y449000D01*
X604004D01*
X605004Y450000D01*
X596007Y449000D02*
Y454998D01*
X599006Y451999D01*
X595007D01*
X636000Y454998D02*
Y449000D01*
X633001D01*
X632001Y450000D01*
Y453998D01*
X633001Y454998D01*
X636000D01*
X626003Y449000D02*
X630002D01*
X626003Y452999D01*
Y453998D01*
X627003Y454998D01*
X629002D01*
X630002Y453998D01*
X624004Y449000D02*
X622005D01*
X623004D01*
Y454998D01*
X624004Y453998D01*
X663000Y203998D02*
X659001D01*
Y202998D01*
X663000Y199000D01*
Y198000D01*
X659001D01*
X653003Y203998D02*
X657002D01*
Y198000D01*
X653003D01*
X657002Y200999D02*
X655003D01*
X651004Y198000D02*
Y203998D01*
X647005Y198000D01*
Y203998D01*
X641007D02*
X645006D01*
Y198000D01*
X641007D01*
X645006Y200999D02*
X643007D01*
X639008Y198000D02*
Y203998D01*
X636009D01*
X635009Y202998D01*
Y200999D01*
X636009Y199999D01*
X639008D01*
X637008D02*
X635009Y198000D01*
X677000Y212998D02*
Y207000D01*
X674001D01*
X673001Y208000D01*
Y211998D01*
X674001Y212998D01*
X677000D01*
X667003Y207000D02*
X671002D01*
X667003Y210999D01*
Y211998D01*
X668003Y212998D01*
X670002D01*
X671002Y211998D01*
X665004D02*
X664004Y212998D01*
X662005D01*
X661005Y211998D01*
Y208000D01*
X662005Y207000D01*
X664004D01*
X665004Y208000D01*
Y211998D01*
X599501Y299498D02*
X600501Y300498D01*
X602500D01*
X603500Y299498D01*
Y298499D01*
X602500Y297499D01*
X600501D01*
X599501Y296499D01*
Y295500D01*
X600501Y294500D01*
X602500D01*
X603500Y295500D01*
X593503Y299498D02*
X594503Y300498D01*
X596502D01*
X597502Y299498D01*
Y298499D01*
X596502Y297499D01*
X594503D01*
X593503Y296499D01*
Y295500D01*
X594503Y294500D01*
X596502D01*
X597502Y295500D01*
X591504Y299498D02*
X590504Y300498D01*
X588505D01*
X587505Y299498D01*
Y298499D01*
X588505Y297499D01*
X589504D01*
X588505D01*
X587505Y296499D01*
Y295500D01*
X588505Y294500D01*
X590504D01*
X591504Y295500D01*
X582507Y294500D02*
Y300498D01*
X585506Y297499D01*
X581507D01*
X603500Y325598D02*
Y319600D01*
X600501D01*
X599501Y320600D01*
Y324598D01*
X600501Y325598D01*
X603500D01*
X597502Y319600D02*
X595503D01*
X596502D01*
Y325598D01*
X597502Y324598D01*
X588505Y319600D02*
X592504D01*
X588505Y323599D01*
Y324598D01*
X589504Y325598D01*
X591504D01*
X592504Y324598D01*
X565001Y455005D02*
X566001Y456004D01*
X568000D01*
X569000Y455005D01*
Y454005D01*
X568000Y453005D01*
X566001D01*
X565001Y452006D01*
Y451006D01*
X566001Y450006D01*
X568000D01*
X569000Y451006D01*
X559003Y455005D02*
X560003Y456004D01*
X562002D01*
X563002Y455005D01*
Y454005D01*
X562002Y453005D01*
X560003D01*
X559003Y452006D01*
Y451006D01*
X560003Y450006D01*
X562002D01*
X563002Y451006D01*
X557004Y455005D02*
X556004Y456004D01*
X554005D01*
X553005Y455005D01*
Y454005D01*
X554005Y453005D01*
X555005D01*
X554005D01*
X553005Y452006D01*
Y451006D01*
X554005Y450006D01*
X556004D01*
X557004Y451006D01*
X548007Y450006D02*
Y456004D01*
X551006Y453005D01*
X547007D01*
X585500Y455598D02*
Y449600D01*
X582501D01*
X581501Y450600D01*
Y454598D01*
X582501Y455598D01*
X585500D01*
X579502Y449600D02*
X577503D01*
X578502D01*
Y455598D01*
X579502Y454598D01*
X574504Y449600D02*
X572504D01*
X573504D01*
Y455598D01*
X574504Y454598D01*
X602000Y203998D02*
X598001D01*
Y202998D01*
X602000Y199000D01*
Y198000D01*
X598001D01*
X592003Y203998D02*
X596002D01*
Y198000D01*
X592003D01*
X596002Y200999D02*
X594003D01*
X590004Y198000D02*
Y203998D01*
X586005Y198000D01*
Y203998D01*
X580007D02*
X584006D01*
Y198000D01*
X580007D01*
X584006Y200999D02*
X582007D01*
X578008Y198000D02*
Y203998D01*
X575009D01*
X574009Y202998D01*
Y200999D01*
X575009Y199999D01*
X578008D01*
X576008D02*
X574009Y198000D01*
X615000Y212998D02*
Y207000D01*
X612001D01*
X611001Y208000D01*
Y211998D01*
X612001Y212998D01*
X615000D01*
X609002Y207000D02*
X607003D01*
X608002D01*
Y212998D01*
X609002Y211998D01*
X604004D02*
X603004Y212998D01*
X601005D01*
X600005Y211998D01*
Y208000D01*
X601005Y207000D01*
X603004D01*
X604004Y208000D01*
Y211998D01*
X661000Y220998D02*
X660000Y221998D01*
X658001D01*
X657001Y220998D01*
Y217000D01*
X658001Y216000D01*
X660000D01*
X661000Y217000D01*
Y220998D01*
X655002Y216000D02*
Y217000D01*
X654002D01*
Y216000D01*
X655002D01*
X650004D02*
X648004D01*
X649004D01*
Y221998D01*
X650004Y220998D01*
X645005Y219999D02*
Y217000D01*
X644005Y216000D01*
X641007D01*
Y219999D01*
X635008Y221998D02*
X639007D01*
Y218999D01*
X637008D01*
X639007D01*
Y216000D01*
X652001Y240998D02*
X653001Y241998D01*
X655000D01*
X656000Y240998D01*
Y237000D01*
X655000Y236000D01*
X653001D01*
X652001Y237000D01*
X646003Y236000D02*
X650002D01*
X646003Y239999D01*
Y240998D01*
X647003Y241998D01*
X649002D01*
X650002Y240998D01*
X641005Y236000D02*
Y241998D01*
X644004Y238999D01*
X640005D01*
X667000Y409998D02*
X666000Y410998D01*
X664001D01*
X663001Y409998D01*
Y406000D01*
X664001Y405000D01*
X666000D01*
X667000Y406000D01*
Y409998D01*
X661002Y405000D02*
Y406000D01*
X660002D01*
Y405000D01*
X661002D01*
X656004D02*
X654004D01*
X655004D01*
Y410998D01*
X656004Y409998D01*
X651005Y408999D02*
Y406000D01*
X650005Y405000D01*
X647007D01*
Y408999D01*
X641008Y410998D02*
X645007D01*
Y407999D01*
X643008D01*
X645007D01*
Y405000D01*
X658401Y431898D02*
X659401Y432898D01*
X661400D01*
X662400Y431898D01*
Y427900D01*
X661400Y426900D01*
X659401D01*
X658401Y427900D01*
X652403Y426900D02*
X656402D01*
X652403Y430899D01*
Y431898D01*
X653403Y432898D01*
X655402D01*
X656402Y431898D01*
X650404D02*
X649404Y432898D01*
X647405D01*
X646405Y431898D01*
Y430899D01*
X647405Y429899D01*
X648405D01*
X647405D01*
X646405Y428899D01*
Y427900D01*
X647405Y426900D01*
X649404D01*
X650404Y427900D01*
X601000Y219998D02*
X600000Y220998D01*
X598001D01*
X597001Y219998D01*
Y216000D01*
X598001Y215000D01*
X600000D01*
X601000Y216000D01*
Y219998D01*
X595002Y215000D02*
Y216000D01*
X594002D01*
Y215000D01*
X595002D01*
X590004D02*
X588004D01*
X589004D01*
Y220998D01*
X590004Y219998D01*
X585005Y218999D02*
Y216000D01*
X584005Y215000D01*
X581006D01*
Y218999D01*
X575008Y220998D02*
X579007D01*
Y217999D01*
X577008D01*
X579007D01*
Y215000D01*
X591001Y239998D02*
X592001Y240998D01*
X594000D01*
X595000Y239998D01*
Y236000D01*
X594000Y235000D01*
X592001D01*
X591001Y236000D01*
X589002Y235000D02*
X587003D01*
X588002D01*
Y240998D01*
X589002Y239998D01*
X581004Y235000D02*
Y240998D01*
X584004Y237999D01*
X580005D01*
X604000Y409998D02*
X603000Y410998D01*
X601001D01*
X600001Y409998D01*
Y406000D01*
X601001Y405000D01*
X603000D01*
X604000Y406000D01*
Y409998D01*
X598002Y405000D02*
Y406000D01*
X597002D01*
Y405000D01*
X598002D01*
X593004D02*
X591004D01*
X592004D01*
Y410998D01*
X593004Y409998D01*
X588005Y408999D02*
Y406000D01*
X587006Y405000D01*
X584007D01*
Y408999D01*
X578008Y410998D02*
X582007D01*
Y407999D01*
X580008D01*
X582007D01*
Y405000D01*
X596401Y430898D02*
X597401Y431898D01*
X599400D01*
X600400Y430898D01*
Y426900D01*
X599400Y425900D01*
X597401D01*
X596401Y426900D01*
X594402Y425900D02*
X592403D01*
X593402D01*
Y431898D01*
X594402Y430898D01*
X589404D02*
X588404Y431898D01*
X586405D01*
X585405Y430898D01*
Y429899D01*
X586405Y428899D01*
X587404D01*
X586405D01*
X585405Y427899D01*
Y426900D01*
X586405Y425900D01*
X588404D01*
X589404Y426900D01*
X437000Y387000D02*
Y385001D01*
Y386000D01*
X431002D01*
X432002Y387000D01*
Y382002D02*
X431002Y381002D01*
Y379003D01*
X432002Y378003D01*
X436000D01*
X437000Y379003D01*
Y381002D01*
X436000Y382002D01*
X432002D01*
X433001Y376004D02*
X436000D01*
X437000Y375004D01*
Y372005D01*
X433001D01*
X431002Y366007D02*
Y370005D01*
X434001D01*
Y368006D01*
Y370005D01*
X437000D01*
X432002Y404001D02*
X431002Y405001D01*
Y407000D01*
X432002Y408000D01*
X436000D01*
X437000Y407000D01*
Y405001D01*
X436000Y404001D01*
X431002Y398003D02*
Y402002D01*
X434001D01*
X433001Y400003D01*
Y399003D01*
X434001Y398003D01*
X436000D01*
X437000Y399003D01*
Y401002D01*
X436000Y402002D01*
X437000Y392005D02*
Y396004D01*
X433001Y392005D01*
X432002D01*
X431002Y393005D01*
Y395004D01*
X432002Y396004D01*
X479000Y396000D02*
Y394001D01*
Y395000D01*
X473002D01*
X474002Y396000D01*
Y391002D02*
X473002Y390002D01*
Y388003D01*
X474002Y387003D01*
X478000D01*
X479000Y388003D01*
Y390002D01*
X478000Y391002D01*
X474002D01*
X475001Y385004D02*
X478000D01*
X479000Y384004D01*
Y381005D01*
X475001D01*
X473002Y375007D02*
Y379006D01*
X476001D01*
Y377006D01*
Y379006D01*
X479000D01*
X493002Y392001D02*
X492002Y393001D01*
Y395000D01*
X493002Y396000D01*
X497000D01*
X498000Y395000D01*
Y393001D01*
X497000Y392001D01*
X492002Y386003D02*
X493002Y388003D01*
X495001Y390002D01*
X497000D01*
X498000Y389002D01*
Y387003D01*
X497000Y386003D01*
X496001D01*
X495001Y387003D01*
Y390002D01*
X498000Y380005D02*
Y384004D01*
X494001Y380005D01*
X493002D01*
X492002Y381005D01*
Y383004D01*
X493002Y384004D01*
X469001Y489998D02*
X470001Y490998D01*
X472000D01*
X473000Y489998D01*
Y488999D01*
X472000Y487999D01*
X470001D01*
X469001Y486999D01*
Y486000D01*
X470001Y485000D01*
X472000D01*
X473000Y486000D01*
X463003Y489998D02*
X464003Y490998D01*
X466002D01*
X467002Y489998D01*
Y488999D01*
X466002Y487999D01*
X464003D01*
X463003Y486999D01*
Y486000D01*
X464003Y485000D01*
X466002D01*
X467002Y486000D01*
X461004Y489998D02*
X460004Y490998D01*
X458005D01*
X457005Y489998D01*
Y488999D01*
X458005Y487999D01*
X459004D01*
X458005D01*
X457005Y486999D01*
Y486000D01*
X458005Y485000D01*
X460004D01*
X461004Y486000D01*
X452007Y485000D02*
Y490998D01*
X455006Y487999D01*
X451007D01*
X488500Y491598D02*
Y485600D01*
X485501D01*
X484501Y486600D01*
Y490598D01*
X485501Y491598D01*
X488500D01*
X478503D02*
X482502D01*
Y488599D01*
X480503Y489599D01*
X479503D01*
X478503Y488599D01*
Y486600D01*
X479503Y485600D01*
X481502D01*
X482502Y486600D01*
X496999Y443002D02*
X495999Y442002D01*
X494000D01*
X493000Y443002D01*
Y444001D01*
X494000Y445001D01*
X495999D01*
X496999Y446001D01*
Y447000D01*
X495999Y448000D01*
X494000D01*
X493000Y447000D01*
X502997Y443002D02*
X501997Y442002D01*
X499998D01*
X498998Y443002D01*
Y444001D01*
X499998Y445001D01*
X501997D01*
X502997Y446001D01*
Y447000D01*
X501997Y448000D01*
X499998D01*
X498998Y447000D01*
X504996Y443002D02*
X505996Y442002D01*
X507995D01*
X508995Y443002D01*
Y444001D01*
X507995Y445001D01*
X506995D01*
X507995D01*
X508995Y446001D01*
Y447000D01*
X507995Y448000D01*
X505996D01*
X504996Y447000D01*
X513993Y448000D02*
Y442002D01*
X510994Y445001D01*
X514993D01*
X509500Y473498D02*
Y467500D01*
X506501D01*
X505501Y468500D01*
Y472498D01*
X506501Y473498D01*
X509500D01*
X499503D02*
X501503Y472498D01*
X503502Y470499D01*
Y468500D01*
X502502Y467500D01*
X500503D01*
X499503Y468500D01*
Y469499D01*
X500503Y470499D01*
X503502D01*
X435201Y430800D02*
Y434798D01*
X436201Y435798D01*
X438200D01*
X439200Y434798D01*
Y430800D01*
X438200Y429800D01*
X436201D01*
X437201Y431799D02*
X435201Y429800D01*
X436201D02*
X435201Y430800D01*
X429203Y435798D02*
X433202D01*
Y432799D01*
X431203Y433799D01*
X430203D01*
X429203Y432799D01*
Y430800D01*
X430203Y429800D01*
X432202D01*
X433202Y430800D01*
X427204Y434798D02*
X426204Y435798D01*
X424205D01*
X423205Y434798D01*
Y433799D01*
X424205Y432799D01*
X425205D01*
X424205D01*
X423205Y431799D01*
Y430800D01*
X424205Y429800D01*
X426204D01*
X427204Y430800D01*
X442000Y408000D02*
Y411999D01*
X440001Y413998D01*
X438001Y411999D01*
Y408000D01*
Y410999D01*
X442000D01*
X433003Y413998D02*
X435002D01*
X436002Y412998D01*
Y409000D01*
X435002Y408000D01*
X433003D01*
X432003Y409000D01*
Y412998D01*
X433003Y413998D01*
X430004Y412998D02*
X429004Y413998D01*
X427005D01*
X426005Y412998D01*
Y411999D01*
X427005Y410999D01*
X428005D01*
X427005D01*
X426005Y409999D01*
Y409000D01*
X427005Y408000D01*
X429004D01*
X430004Y409000D01*
X421007Y408000D02*
Y413998D01*
X424006Y410999D01*
X420007D01*
X418008Y412998D02*
X417008Y413998D01*
X415009D01*
X414009Y412998D01*
Y409000D01*
X415009Y408000D01*
X417008D01*
X418008Y409000D01*
Y412998D01*
X408011Y413998D02*
X410010Y412998D01*
X412010Y410999D01*
Y409000D01*
X411010Y408000D01*
X409011D01*
X408011Y409000D01*
Y409999D01*
X409011Y410999D01*
X412010D01*
X414201Y430800D02*
Y434798D01*
X415201Y435798D01*
X417200D01*
X418200Y434798D01*
Y430800D01*
X417200Y429800D01*
X415201D01*
X416201Y431799D02*
X414201Y429800D01*
X415201D02*
X414201Y430800D01*
X408203Y435798D02*
X412202D01*
Y432799D01*
X410203Y433799D01*
X409203D01*
X408203Y432799D01*
Y430800D01*
X409203Y429800D01*
X411202D01*
X412202Y430800D01*
X403205Y429800D02*
Y435798D01*
X406204Y432799D01*
X402205D01*
X488697Y428800D02*
Y432798D01*
X489697Y433798D01*
X491696D01*
X492696Y432798D01*
Y428800D01*
X491696Y427800D01*
X489697D01*
X490697Y429799D02*
X488697Y427800D01*
X489697D02*
X488697Y428800D01*
X482699Y433798D02*
X484699Y432798D01*
X486698Y430799D01*
Y428800D01*
X485698Y427800D01*
X483699D01*
X482699Y428800D01*
Y429799D01*
X483699Y430799D01*
X486698D01*
X480700Y432798D02*
X479700Y433798D01*
X477701D01*
X476701Y432798D01*
Y431799D01*
X477701Y430799D01*
X478701D01*
X477701D01*
X476701Y429799D01*
Y428800D01*
X477701Y427800D01*
X479700D01*
X480700Y428800D01*
X521000Y405000D02*
Y408999D01*
X519001Y410998D01*
X517001Y408999D01*
Y405000D01*
Y407999D01*
X521000D01*
X512003Y410998D02*
X514002D01*
X515002Y409998D01*
Y406000D01*
X514002Y405000D01*
X512003D01*
X511003Y406000D01*
Y409998D01*
X512003Y410998D01*
X509004Y409998D02*
X508004Y410998D01*
X506005D01*
X505005Y409998D01*
Y408999D01*
X506005Y407999D01*
X507004D01*
X506005D01*
X505005Y406999D01*
Y406000D01*
X506005Y405000D01*
X508004D01*
X509004Y406000D01*
X500007Y405000D02*
Y410998D01*
X503006Y407999D01*
X499007D01*
X497008Y409998D02*
X496008Y410998D01*
X494009D01*
X493009Y409998D01*
Y406000D01*
X494009Y405000D01*
X496008D01*
X497008Y406000D01*
Y409998D01*
X487011Y410998D02*
X489010Y409998D01*
X491010Y407999D01*
Y406000D01*
X490010Y405000D01*
X488011D01*
X487011Y406000D01*
Y406999D01*
X488011Y407999D01*
X491010D01*
X512201Y428800D02*
Y432798D01*
X513201Y433798D01*
X515200D01*
X516200Y432798D01*
Y428800D01*
X515200Y427800D01*
X513201D01*
X514201Y429799D02*
X512201Y427800D01*
X513201D02*
X512201Y428800D01*
X506203Y433798D02*
X508203Y432798D01*
X510202Y430799D01*
Y428800D01*
X509202Y427800D01*
X507203D01*
X506203Y428800D01*
Y429799D01*
X507203Y430799D01*
X510202D01*
X501205Y427800D02*
Y433798D01*
X504204Y430799D01*
X500205D01*
X500000Y315000D02*
X498001D01*
X499000D01*
Y320998D01*
X500000Y319998D01*
X495002D02*
X494002Y320998D01*
X492003D01*
X491003Y319998D01*
Y316000D01*
X492003Y315000D01*
X494002D01*
X495002Y316000D01*
Y319998D01*
X489004Y320998D02*
Y315000D01*
Y316999D01*
X485005Y320998D01*
X488004Y317999D01*
X485005Y315000D01*
X511000Y335000D02*
Y340998D01*
X508001D01*
X507001Y339998D01*
Y337999D01*
X508001Y336999D01*
X511000D01*
X509001D02*
X507001Y335000D01*
X501003Y340998D02*
X505002D01*
Y337999D01*
X503003Y338999D01*
X502003D01*
X501003Y337999D01*
Y336000D01*
X502003Y335000D01*
X504002D01*
X505002Y336000D01*
X499004Y340998D02*
X495005D01*
Y339998D01*
X499004Y336000D01*
Y335000D01*
X490600Y336100D02*
Y342098D01*
X487601D01*
X486601Y341098D01*
Y339099D01*
X487601Y338099D01*
X490600D01*
X488601D02*
X486601Y336100D01*
X480603Y342098D02*
X484602D01*
Y339099D01*
X482603Y340099D01*
X481603D01*
X480603Y339099D01*
Y337100D01*
X481603Y336100D01*
X483602D01*
X484602Y337100D01*
X478604Y341098D02*
X477604Y342098D01*
X475605D01*
X474605Y341098D01*
Y340099D01*
X475605Y339099D01*
X474605Y338099D01*
Y337100D01*
X475605Y336100D01*
X477604D01*
X478604Y337100D01*
Y338099D01*
X477604Y339099D01*
X478604Y340099D01*
Y341098D01*
X477604Y339099D02*
X475605D01*
X498000Y363000D02*
X496001D01*
X497000D01*
Y368998D01*
X498000Y367998D01*
X493002D02*
X492002Y368998D01*
X490003D01*
X489003Y367998D01*
Y364000D01*
X490003Y363000D01*
X492002D01*
X493002Y364000D01*
Y367998D01*
X487004Y368998D02*
Y363000D01*
Y364999D01*
X483005Y368998D01*
X486004Y365999D01*
X483005Y363000D01*
X511600Y356100D02*
Y362098D01*
X508601D01*
X507601Y361098D01*
Y359099D01*
X508601Y358099D01*
X511600D01*
X509601D02*
X507601Y356100D01*
X501603Y362098D02*
X503603Y361098D01*
X505602Y359099D01*
Y357100D01*
X504602Y356100D01*
X502603D01*
X501603Y357100D01*
Y358099D01*
X502603Y359099D01*
X505602D01*
X499604Y362098D02*
X495605D01*
Y361098D01*
X499604Y357100D01*
Y356100D01*
X489600D02*
Y362098D01*
X486601D01*
X485601Y361098D01*
Y359099D01*
X486601Y358099D01*
X489600D01*
X487601D02*
X485601Y356100D01*
X479603Y362098D02*
X481603Y361098D01*
X483602Y359099D01*
Y357100D01*
X482602Y356100D01*
X480603D01*
X479603Y357100D01*
Y358099D01*
X480603Y359099D01*
X483602D01*
X477604Y361098D02*
X476604Y362098D01*
X474605D01*
X473605Y361098D01*
Y360099D01*
X474605Y359099D01*
X473605Y358099D01*
Y357100D01*
X474605Y356100D01*
X476604D01*
X477604Y357100D01*
Y358099D01*
X476604Y359099D01*
X477604Y360099D01*
Y361098D01*
X476604Y359099D02*
X474605D01*
X418000Y259998D02*
X417000Y260998D01*
X415001D01*
X414001Y259998D01*
Y256000D01*
X415001Y255000D01*
X417000D01*
X418000Y256000D01*
Y259998D01*
X412002Y255000D02*
Y256000D01*
X411002D01*
Y255000D01*
X412002D01*
X407004D02*
X405004D01*
X406004D01*
Y260998D01*
X407004Y259998D01*
X402005Y258999D02*
Y256000D01*
X401006Y255000D01*
X398007D01*
Y258999D01*
X392008Y260998D02*
X396007D01*
Y257999D01*
X394008D01*
X396007D01*
Y255000D01*
X409901Y252398D02*
X410901Y253398D01*
X412900D01*
X413900Y252398D01*
Y248400D01*
X412900Y247400D01*
X410901D01*
X409901Y248400D01*
X407902Y252398D02*
X406902Y253398D01*
X404903D01*
X403903Y252398D01*
Y251399D01*
X404903Y250399D01*
X405903D01*
X404903D01*
X403903Y249399D01*
Y248400D01*
X404903Y247400D01*
X406902D01*
X407902Y248400D01*
X401904Y247400D02*
X399904D01*
X400904D01*
Y253398D01*
X401904Y252398D01*
X491000Y218998D02*
X490000Y219998D01*
X488001D01*
X487001Y218998D01*
Y215000D01*
X488001Y214000D01*
X490000D01*
X491000Y215000D01*
Y218998D01*
X485002Y214000D02*
Y215000D01*
X484002D01*
Y214000D01*
X485002D01*
X480004D02*
X478004D01*
X479004D01*
Y219998D01*
X480004Y218998D01*
X475005Y217999D02*
Y215000D01*
X474006Y214000D01*
X471006D01*
Y217999D01*
X465008Y219998D02*
X469007D01*
Y216999D01*
X467008D01*
X469007D01*
Y214000D01*
X505001Y218998D02*
X506001Y219998D01*
X508000D01*
X509000Y218998D01*
Y215000D01*
X508000Y214000D01*
X506001D01*
X505001Y215000D01*
X503002Y218998D02*
X502002Y219998D01*
X500003D01*
X499003Y218998D01*
Y217999D01*
X500003Y216999D01*
X501003D01*
X500003D01*
X499003Y215999D01*
Y215000D01*
X500003Y214000D01*
X502002D01*
X503002Y215000D01*
X493005Y214000D02*
X497004D01*
X493005Y217999D01*
Y218998D01*
X494005Y219998D01*
X496004D01*
X497004Y218998D01*
X469002Y244000D02*
X468002Y243000D01*
Y241001D01*
X469002Y240001D01*
X473000D01*
X474000Y241001D01*
Y243000D01*
X473000Y244000D01*
X469002D01*
X474000Y238002D02*
X473000D01*
Y237002D01*
X474000D01*
Y238002D01*
Y233004D02*
Y231004D01*
Y232004D01*
X468002D01*
X469002Y233004D01*
X470001Y228005D02*
X473000D01*
X474000Y227006D01*
Y224007D01*
X470001D01*
X468002Y218008D02*
Y222007D01*
X471001D01*
Y220008D01*
Y222007D01*
X474000D01*
X462002Y257001D02*
X461002Y258001D01*
Y260000D01*
X462002Y261000D01*
X466000D01*
X467000Y260000D01*
Y258001D01*
X466000Y257001D01*
X462002Y255002D02*
X461002Y254002D01*
Y252003D01*
X462002Y251003D01*
X463001D01*
X464001Y252003D01*
Y253003D01*
Y252003D01*
X465001Y251003D01*
X466000D01*
X467000Y252003D01*
Y254002D01*
X466000Y255002D01*
X462002Y249004D02*
X461002Y248004D01*
Y246005D01*
X462002Y245005D01*
X463001D01*
X464001Y246005D01*
Y247005D01*
Y246005D01*
X465001Y245005D01*
X466000D01*
X467000Y246005D01*
Y248004D01*
X466000Y249004D01*
X482002Y255001D02*
X481002Y256001D01*
Y258000D01*
X482002Y259000D01*
X486000D01*
X487000Y258000D01*
Y256001D01*
X486000Y255001D01*
X482002Y253002D02*
X481002Y252002D01*
Y250003D01*
X482002Y249003D01*
X483001D01*
X484001Y250003D01*
Y251003D01*
Y250003D01*
X485001Y249003D01*
X486000D01*
X487000Y250003D01*
Y252002D01*
X486000Y253002D01*
X487000Y244005D02*
X481002D01*
X484001Y247004D01*
Y243005D01*
X445001Y447998D02*
X446001Y448998D01*
X448000D01*
X449000Y447998D01*
Y446999D01*
X448000Y445999D01*
X446001D01*
X445001Y444999D01*
Y444000D01*
X446001Y443000D01*
X448000D01*
X449000Y444000D01*
X439003Y447998D02*
X440003Y448998D01*
X442002D01*
X443002Y447998D01*
Y446999D01*
X442002Y445999D01*
X440003D01*
X439003Y444999D01*
Y444000D01*
X440003Y443000D01*
X442002D01*
X443002Y444000D01*
X437004Y443000D02*
X435005D01*
X436004D01*
Y448998D01*
X437004Y447998D01*
X429006Y443000D02*
Y448998D01*
X432006Y445999D01*
X428007D01*
X464000Y448998D02*
Y443000D01*
X461001D01*
X460001Y444000D01*
Y447998D01*
X461001Y448998D01*
X464000D01*
X455003Y443000D02*
Y448998D01*
X458002Y445999D01*
X454003D01*
X396002Y221000D02*
X395002Y220000D01*
Y218001D01*
X396002Y217001D01*
X397001D01*
X398001Y218001D01*
Y219001D01*
Y218001D01*
X399001Y217001D01*
X400000D01*
X401000Y218001D01*
Y220000D01*
X400000Y221000D01*
X396002Y215002D02*
X395002Y214002D01*
Y212003D01*
X396002Y211003D01*
X400000D01*
X401000Y212003D01*
Y214002D01*
X400000Y215002D01*
X396002D01*
X395002Y209004D02*
X401000D01*
X399001D01*
X395002Y205005D01*
X398001Y208004D01*
X401000Y205005D01*
X402000Y239000D02*
X396002D01*
Y236001D01*
X397002Y235001D01*
X399001D01*
X400001Y236001D01*
Y239000D01*
Y237001D02*
X402000Y235001D01*
X397002Y233002D02*
X396002Y232002D01*
Y230003D01*
X397002Y229003D01*
X398001D01*
X399001Y230003D01*
Y231003D01*
Y230003D01*
X400001Y229003D01*
X401000D01*
X402000Y230003D01*
Y232002D01*
X401000Y233002D01*
X402000Y227004D02*
Y225005D01*
Y226004D01*
X396002D01*
X397002Y227004D01*
X456000Y220998D02*
X455000Y221998D01*
X453001D01*
X452001Y220998D01*
Y219999D01*
X453001Y218999D01*
X454001D01*
X453001D01*
X452001Y217999D01*
Y217000D01*
X453001Y216000D01*
X455000D01*
X456000Y217000D01*
X450002Y220998D02*
X449002Y221998D01*
X447003D01*
X446003Y220998D01*
Y217000D01*
X447003Y216000D01*
X449002D01*
X450002Y217000D01*
Y220998D01*
X444004Y221998D02*
Y216000D01*
Y217999D01*
X440005Y221998D01*
X443004Y218999D01*
X440005Y216000D01*
X455000Y261000D02*
X449002D01*
Y258001D01*
X450002Y257001D01*
X452001D01*
X453001Y258001D01*
Y261000D01*
Y259001D02*
X455000Y257001D01*
X450002Y255002D02*
X449002Y254002D01*
Y252003D01*
X450002Y251003D01*
X451001D01*
X452001Y252003D01*
Y253003D01*
Y252003D01*
X453001Y251003D01*
X454000D01*
X455000Y252003D01*
Y254002D01*
X454000Y255002D01*
X455000Y245005D02*
Y249004D01*
X451001Y245005D01*
X450002D01*
X449002Y246005D01*
Y248004D01*
X450002Y249004D01*
X512000Y201849D02*
X511000Y202849D01*
X509001D01*
X508001Y201849D01*
Y200849D01*
X509001Y199849D01*
X510001D01*
X509001D01*
X508001Y198850D01*
Y197850D01*
X509001Y196850D01*
X511000D01*
X512000Y197850D01*
X506002Y201849D02*
X505002Y202849D01*
X503003D01*
X502003Y201849D01*
Y197850D01*
X503003Y196850D01*
X505002D01*
X506002Y197850D01*
Y201849D01*
X500004Y202849D02*
Y196850D01*
Y198850D01*
X496005Y202849D01*
X499004Y199849D01*
X496005Y196850D01*
X529000Y197000D02*
Y202998D01*
X526001D01*
X525001Y201998D01*
Y199999D01*
X526001Y198999D01*
X529000D01*
X527001D02*
X525001Y197000D01*
X523002Y201998D02*
X522002Y202998D01*
X520003D01*
X519003Y201998D01*
Y200999D01*
X520003Y199999D01*
X521003D01*
X520003D01*
X519003Y198999D01*
Y198000D01*
X520003Y197000D01*
X522002D01*
X523002Y198000D01*
X517004Y201998D02*
X516004Y202998D01*
X514005D01*
X513005Y201998D01*
Y200999D01*
X514005Y199999D01*
X515004D01*
X514005D01*
X513005Y198999D01*
Y198000D01*
X514005Y197000D01*
X516004D01*
X517004Y198000D01*
X499002Y256000D02*
X498002Y255000D01*
Y253001D01*
X499002Y252001D01*
X500001D01*
X501001Y253001D01*
Y254001D01*
Y253001D01*
X502001Y252001D01*
X503000D01*
X504000Y253001D01*
Y255000D01*
X503000Y256000D01*
X499002Y250002D02*
X498002Y249002D01*
Y247003D01*
X499002Y246003D01*
X503000D01*
X504000Y247003D01*
Y249002D01*
X503000Y250002D01*
X499002D01*
X498002Y244004D02*
X504000D01*
X502001D01*
X498002Y240005D01*
X501001Y243004D01*
X504000Y240005D01*
X496000Y257000D02*
X490002D01*
Y254001D01*
X491002Y253001D01*
X493001D01*
X494001Y254001D01*
Y257000D01*
Y255001D02*
X496000Y253001D01*
X491002Y251002D02*
X490002Y250002D01*
Y248003D01*
X491002Y247003D01*
X492001D01*
X493001Y248003D01*
Y249003D01*
Y248003D01*
X494001Y247003D01*
X495000D01*
X496000Y248003D01*
Y250002D01*
X495000Y251002D01*
X496000Y242005D02*
X490002D01*
X493001Y245004D01*
Y241005D01*
X436001Y203998D02*
X440000D01*
Y200999D01*
X438001Y201999D01*
X437001D01*
X436001Y200999D01*
Y199000D01*
X437001Y198000D01*
X439000D01*
X440000Y199000D01*
X434002Y198000D02*
X432003D01*
X433002D01*
Y203998D01*
X434002Y202998D01*
X429004Y203998D02*
Y198000D01*
Y199999D01*
X425005Y203998D01*
X428004Y200999D01*
X425005Y198000D01*
X457000D02*
Y203998D01*
X454001D01*
X453001Y202998D01*
Y200999D01*
X454001Y199999D01*
X457000D01*
X455001D02*
X453001Y198000D01*
X451002Y202998D02*
X450002Y203998D01*
X448003D01*
X447003Y202998D01*
Y201999D01*
X448003Y200999D01*
X449003D01*
X448003D01*
X447003Y199999D01*
Y199000D01*
X448003Y198000D01*
X450002D01*
X451002Y199000D01*
X441005Y203998D02*
X445004D01*
Y200999D01*
X443005Y201999D01*
X442005D01*
X441005Y200999D01*
Y199000D01*
X442005Y198000D01*
X444004D01*
X445004Y199000D01*
X421001Y241998D02*
X425000D01*
Y238999D01*
X423001Y239999D01*
X422001D01*
X421001Y238999D01*
Y237000D01*
X422001Y236000D01*
X424000D01*
X425000Y237000D01*
X419002Y236000D02*
X417003D01*
X418002D01*
Y241998D01*
X419002Y240998D01*
X414004Y241998D02*
Y236000D01*
Y237999D01*
X410005Y241998D01*
X413004Y238999D01*
X410005Y236000D01*
X443400Y236100D02*
Y242098D01*
X440401D01*
X439401Y241098D01*
Y239099D01*
X440401Y238099D01*
X443400D01*
X441401D02*
X439401Y236100D01*
X437402Y241098D02*
X436402Y242098D01*
X434403D01*
X433403Y241098D01*
Y240099D01*
X434403Y239099D01*
X435403D01*
X434403D01*
X433403Y238099D01*
Y237100D01*
X434403Y236100D01*
X436402D01*
X437402Y237100D01*
X427405Y242098D02*
X429404Y241098D01*
X431404Y239099D01*
Y237100D01*
X430404Y236100D01*
X428405D01*
X427405Y237100D01*
Y238099D01*
X428405Y239099D01*
X431404D01*
X481001Y203998D02*
X485000D01*
Y200999D01*
X483001Y201999D01*
X482001D01*
X481001Y200999D01*
Y199000D01*
X482001Y198000D01*
X484000D01*
X485000Y199000D01*
X479002Y198000D02*
X477003D01*
X478002D01*
Y203998D01*
X479002Y202998D01*
X474004Y203998D02*
Y198000D01*
Y199999D01*
X470005Y203998D01*
X473004Y200999D01*
X470005Y198000D01*
X484000Y207000D02*
Y212998D01*
X481001D01*
X480001Y211998D01*
Y209999D01*
X481001Y208999D01*
X484000D01*
X482001D02*
X480001Y207000D01*
X478002Y211998D02*
X477002Y212998D01*
X475003D01*
X474003Y211998D01*
Y210999D01*
X475003Y209999D01*
X476003D01*
X475003D01*
X474003Y208999D01*
Y208000D01*
X475003Y207000D01*
X477002D01*
X478002Y208000D01*
X472004Y212998D02*
X468005D01*
Y211998D01*
X472004Y208000D01*
Y207000D01*
X522002Y239001D02*
Y243000D01*
X525001D01*
X524001Y241001D01*
Y240001D01*
X525001Y239001D01*
X527000D01*
X528000Y240001D01*
Y242000D01*
X527000Y243000D01*
X528000Y237002D02*
Y235003D01*
Y236002D01*
X522002D01*
X523002Y237002D01*
X522002Y232004D02*
X528000D01*
X526001D01*
X522002Y228005D01*
X525001Y231004D01*
X528000Y228005D01*
X519600Y238100D02*
Y244098D01*
X516601D01*
X515601Y243098D01*
Y241099D01*
X516601Y240099D01*
X519600D01*
X517601D02*
X515601Y238100D01*
X513602Y243098D02*
X512602Y244098D01*
X510603D01*
X509603Y243098D01*
Y242099D01*
X510603Y241099D01*
X511603D01*
X510603D01*
X509603Y240099D01*
Y239100D01*
X510603Y238100D01*
X512602D01*
X513602Y239100D01*
X507604Y243098D02*
X506604Y244098D01*
X504605D01*
X503605Y243098D01*
Y242099D01*
X504605Y241099D01*
X503605Y240099D01*
Y239100D01*
X504605Y238100D01*
X506604D01*
X507604Y239100D01*
Y240099D01*
X506604Y241099D01*
X507604Y242099D01*
Y243098D01*
X506604Y241099D02*
X504605D01*
X445001Y272998D02*
X449000D01*
Y269999D01*
X447001Y270999D01*
X446001D01*
X445001Y269999D01*
Y268000D01*
X446001Y267000D01*
X448000D01*
X449000Y268000D01*
X443002Y267000D02*
Y268000D01*
X442002D01*
Y267000D01*
X443002D01*
X438004D02*
X436004D01*
X437004D01*
Y272998D01*
X438004Y271998D01*
X433005Y272998D02*
Y267000D01*
Y268999D01*
X429006Y272998D01*
X432006Y269999D01*
X429006Y267000D01*
X446600Y259100D02*
Y265098D01*
X443601D01*
X442601Y264098D01*
Y262099D01*
X443601Y261099D01*
X446600D01*
X444601D02*
X442601Y259100D01*
X437603D02*
Y265098D01*
X440602Y262099D01*
X436603D01*
X430605Y265098D02*
X434604D01*
Y262099D01*
X432605Y263099D01*
X431605D01*
X430605Y262099D01*
Y260100D01*
X431605Y259100D01*
X433604D01*
X434604Y260100D01*
X526001Y270998D02*
X530000D01*
Y267999D01*
X528001Y268999D01*
X527001D01*
X526001Y267999D01*
Y266000D01*
X527001Y265000D01*
X529000D01*
X530000Y266000D01*
X524002Y265000D02*
Y266000D01*
X523002D01*
Y265000D01*
X524002D01*
X519004D02*
X517004D01*
X518004D01*
Y270998D01*
X519004Y269998D01*
X514005Y270998D02*
Y265000D01*
Y266999D01*
X510007Y270998D01*
X513005Y267999D01*
X510007Y265000D01*
X529000Y257000D02*
Y262998D01*
X526001D01*
X525001Y261998D01*
Y259999D01*
X526001Y258999D01*
X529000D01*
X527001D02*
X525001Y257000D01*
X520003D02*
Y262998D01*
X523002Y259999D01*
X519003D01*
X513005Y262998D02*
X515004Y261998D01*
X517004Y259999D01*
Y258000D01*
X516004Y257000D01*
X514005D01*
X513005Y258000D01*
Y258999D01*
X514005Y259999D01*
X517004D01*
X657000Y370998D02*
Y365000D01*
X654001D01*
X653001Y366000D01*
Y369998D01*
X654001Y370998D01*
X657000D01*
X648003Y365000D02*
X650002D01*
X651002Y366000D01*
Y367999D01*
X650002Y368999D01*
X648003D01*
X647003Y367999D01*
Y366999D01*
X651002D01*
X645004Y365000D02*
X642005D01*
X641005Y366000D01*
X642005Y366999D01*
X644004D01*
X645004Y367999D01*
X644004Y368999D01*
X641005D01*
X639006Y365000D02*
X637007D01*
X638006D01*
Y368999D01*
X639006D01*
X632008Y363001D02*
X631008D01*
X630009Y364000D01*
Y368999D01*
X633008D01*
X634007Y367999D01*
Y366000D01*
X633008Y365000D01*
X630009D01*
X628009D02*
Y368999D01*
X625010D01*
X624011Y367999D01*
Y365000D01*
X619012D02*
X621012D01*
X622011Y366000D01*
Y367999D01*
X621012Y368999D01*
X619012D01*
X618013Y367999D01*
Y366999D01*
X622011D01*
X612014Y370998D02*
Y365000D01*
X615014D01*
X616013Y366000D01*
Y367999D01*
X615014Y368999D01*
X612014D01*
X604017Y370998D02*
Y365000D01*
X601018D01*
X600018Y366000D01*
Y366999D01*
Y367999D01*
X601018Y368999D01*
X604017D01*
X598019D02*
Y366000D01*
X597019Y365000D01*
X594020D01*
Y364000D01*
X595020Y363001D01*
X596020D01*
X594020Y365000D02*
Y368999D01*
X586023Y370998D02*
Y365000D01*
X584024Y366999D01*
X582024Y365000D01*
Y370998D01*
X580025D02*
X576026D01*
Y369998D01*
X580025Y366000D01*
Y365000D01*
X576026D01*
X636001Y349000D02*
X640000D01*
X636001Y352999D01*
Y353998D01*
X637001Y354998D01*
X639000D01*
X640000Y353998D01*
X634002D02*
X633002Y354998D01*
X631003D01*
X630003Y353998D01*
Y350000D01*
X631003Y349000D01*
X633002D01*
X634002Y350000D01*
Y353998D01*
X628004Y349000D02*
X626005D01*
X627004D01*
Y354998D01*
X628004Y353998D01*
X619007Y354998D02*
X621006Y353998D01*
X623005Y351999D01*
Y350000D01*
X622006Y349000D01*
X620007D01*
X619007Y350000D01*
Y350999D01*
X620007Y351999D01*
X623005D01*
X617007Y349000D02*
Y350000D01*
X616008D01*
Y349000D01*
X617007D01*
X608010D02*
X612009D01*
X608010Y352999D01*
Y353998D01*
X609010Y354998D01*
X611009D01*
X612009Y353998D01*
X606011Y349000D02*
Y350000D01*
X605011D01*
Y349000D01*
X606011D01*
X601013D02*
X599013D01*
X600013D01*
Y354998D01*
X601013Y353998D01*
X592016Y354998D02*
X594015Y353998D01*
X596014Y351999D01*
Y350000D01*
X595015Y349000D01*
X593015D01*
X592016Y350000D01*
Y350999D01*
X593015Y351999D01*
X596014D01*
X671000Y382000D02*
Y387998D01*
X669001Y385999D01*
X667001Y387998D01*
Y382000D01*
X664002D02*
X662003D01*
X661003Y383000D01*
Y384999D01*
X662003Y385999D01*
X664002D01*
X665002Y384999D01*
Y383000D01*
X664002Y382000D01*
X658004Y386998D02*
Y385999D01*
X659004D01*
X657004D01*
X658004D01*
Y383000D01*
X657004Y382000D01*
X653006D02*
X651007D01*
X650007Y383000D01*
Y384999D01*
X651007Y385999D01*
X653006D01*
X654005Y384999D01*
Y383000D01*
X653006Y382000D01*
X648007Y385999D02*
Y382000D01*
Y383999D01*
X647008Y384999D01*
X646008Y385999D01*
X645008D01*
X636011Y387998D02*
Y382000D01*
X633012D01*
X632013Y383000D01*
Y386998D01*
X633012Y387998D01*
X636011D01*
X630013Y385999D02*
Y382000D01*
Y383999D01*
X629014Y384999D01*
X628014Y385999D01*
X627014D01*
X624015Y382000D02*
X622016D01*
X623015D01*
Y385999D01*
X624015D01*
X619017D02*
X617018Y382000D01*
X615018Y385999D01*
X610020Y382000D02*
X612019D01*
X613019Y383000D01*
Y384999D01*
X612019Y385999D01*
X610020D01*
X609020Y384999D01*
Y383999D01*
X613019D01*
X607021Y385999D02*
Y382000D01*
Y383999D01*
X606021Y384999D01*
X605021Y385999D01*
X604022D01*
X595025Y387998D02*
Y383999D01*
X593025Y382000D01*
X591026Y383999D01*
Y387998D01*
X586027Y382000D02*
X588027D01*
X589026Y383000D01*
Y384999D01*
X588027Y385999D01*
X586027D01*
X585028Y384999D01*
Y383999D01*
X589026D01*
X583029Y385999D02*
Y382000D01*
Y383999D01*
X582029Y384999D01*
X581029Y385999D01*
X580029D01*
X573032Y382000D02*
X577030D01*
X573032Y385999D01*
Y386998D01*
X574031Y387998D01*
X576031D01*
X577030Y386998D01*
X571032Y382000D02*
Y383000D01*
X570033D01*
Y382000D01*
X571032D01*
X566034Y386998D02*
X565034Y387998D01*
X563035D01*
X562035Y386998D01*
Y383000D01*
X563035Y382000D01*
X565034D01*
X566034Y383000D01*
Y386998D01*
D44*
X434000Y202494D02*
Y211494D01*
X453000Y202494D02*
Y211494D01*
X434000D02*
X441500D01*
X434000Y202494D02*
X441500D01*
X445500D02*
X453000D01*
X445500Y211494D02*
X453000D01*
X529000Y202506D02*
Y211506D01*
X510000Y202506D02*
Y211506D01*
X521500Y202506D02*
X529000D01*
X521500Y211506D02*
X529000D01*
X510000D02*
X517500D01*
X510000Y202506D02*
X517500D01*
X501000Y225494D02*
Y234494D01*
X520000Y225494D02*
Y234494D01*
X501000D02*
X508500D01*
X501000Y225494D02*
X508500D01*
X512500D02*
X520000D01*
X512500Y234494D02*
X520000D01*
X507000Y202506D02*
Y211506D01*
X488000Y202506D02*
Y211506D01*
X499500Y202506D02*
X507000D01*
X499500Y211506D02*
X507000D01*
X488000D02*
X495500D01*
X488000Y202506D02*
X495500D01*
X405494Y232000D02*
X414494D01*
X405494Y213000D02*
X414494D01*
Y224500D02*
Y232000D01*
X405494Y224500D02*
Y232000D01*
Y213000D02*
Y220500D01*
X414494Y213000D02*
Y220500D01*
X489494Y242000D02*
X498494D01*
X489494Y223000D02*
X498494D01*
Y234500D02*
Y242000D01*
X489494Y234500D02*
Y242000D01*
Y223000D02*
Y230500D01*
X498494Y223000D02*
Y230500D01*
X446000Y223506D02*
Y232506D01*
X427000Y223506D02*
Y232506D01*
X438500Y223506D02*
X446000D01*
X438500Y232506D02*
X446000D01*
X427000D02*
X434500D01*
X427000Y223506D02*
X434500D01*
X448494Y243000D02*
X457494D01*
X448494Y224000D02*
X457494D01*
Y235500D02*
Y243000D01*
X448494Y235500D02*
Y243000D01*
Y224000D02*
Y231500D01*
X457494Y224000D02*
Y231500D01*
X428000Y246494D02*
Y255494D01*
X447000Y246494D02*
Y255494D01*
X428000D02*
X435500D01*
X428000Y246494D02*
X435500D01*
X439500D02*
X447000D01*
X439500Y255494D02*
X447000D01*
X511000Y245494D02*
Y254494D01*
X530000Y245494D02*
Y254494D01*
X511000D02*
X518500D01*
X511000Y245494D02*
X518500D01*
X522500D02*
X530000D01*
X522500Y254494D02*
X530000D01*
X429528Y414724D02*
X434028D01*
X429528Y426225D02*
X434028D01*
X429528Y414724D02*
Y416724D01*
X438528Y420225D02*
Y420724D01*
X429528Y424225D02*
Y426225D01*
X483024Y412724D02*
X487524D01*
X483024Y424225D02*
X487524D01*
X483024Y412724D02*
Y414724D01*
X492024Y418224D02*
Y418724D01*
X483024Y422225D02*
Y424225D01*
X408528Y414724D02*
X413028D01*
X408528Y426225D02*
X413028D01*
X408528Y414724D02*
Y416724D01*
X417528Y420225D02*
Y420724D01*
X408528Y424225D02*
Y426225D01*
X506528Y412724D02*
X511028D01*
X506528Y424225D02*
X511028D01*
X506528Y412724D02*
Y414724D01*
X515528Y418224D02*
Y418724D01*
X506528Y422225D02*
Y424225D01*
X512000Y343506D02*
Y352506D01*
X493000Y343506D02*
Y352506D01*
X504500Y343506D02*
X512000D01*
X504500Y352506D02*
X512000D01*
X493000D02*
X500500D01*
X493000Y343506D02*
X500500D01*
X491000Y323506D02*
Y332506D01*
X472000Y323506D02*
Y332506D01*
X483500Y323506D02*
X491000D01*
X483500Y332506D02*
X491000D01*
X472000D02*
X479500D01*
X472000Y323506D02*
X479500D01*
X490000Y343506D02*
Y352506D01*
X471000Y343506D02*
Y352506D01*
X482500Y343506D02*
X490000D01*
X482500Y352506D02*
X490000D01*
X471000D02*
X478500D01*
X471000Y343506D02*
X478500D01*
X513000Y323506D02*
Y332506D01*
X494000Y323506D02*
Y332506D01*
X505500Y323506D02*
X513000D01*
X505500Y332506D02*
X513000D01*
X494000D02*
X501500D01*
X494000Y323506D02*
X501500D01*
D45*
X479000Y234500D02*
Y241500D01*
X487000D01*
Y234500D02*
Y241500D01*
Y223500D02*
Y230500D01*
X479000Y223500D02*
X487000D01*
X479000D02*
Y230500D01*
X458000Y235500D02*
Y242500D01*
X466000D01*
Y235500D02*
Y242500D01*
Y224500D02*
Y231500D01*
X458000Y224500D02*
X466000D01*
X458000D02*
Y231500D01*
X521500Y221000D02*
X528500D01*
Y213000D02*
Y221000D01*
X521500Y213000D02*
X528500D01*
X510500D02*
X517500D01*
X510500D02*
Y221000D01*
X517500D01*
X407500Y244000D02*
X414500D01*
Y236000D02*
Y244000D01*
X407500Y236000D02*
X414500D01*
X396500D02*
X403500D01*
X396500D02*
Y244000D01*
X403500D01*
X644000Y414500D02*
X651500D01*
X644000Y423500D02*
X651500D01*
X655500D02*
X663000D01*
X655500Y414500D02*
X663000D01*
X644000D02*
Y423500D01*
X663000Y414500D02*
Y423500D01*
X588900Y210000D02*
X590100D01*
X585900D02*
X587100D01*
X577700Y204900D02*
X585500D01*
X577700D02*
Y215100D01*
X585500D01*
X590500Y204900D02*
X598300D01*
Y215100D01*
X590500D02*
X598300D01*
X587100Y208100D02*
Y211900D01*
X587200Y210000D02*
X588900Y208300D01*
X587200Y210000D02*
X588900Y211700D01*
Y208300D02*
Y211700D01*
X639000Y224500D02*
X646500D01*
X639000Y233500D02*
X646500D01*
X650500D02*
X658000D01*
X650500Y224500D02*
X658000D01*
X639000D02*
Y233500D01*
X658000Y224500D02*
Y233500D01*
X649900Y210000D02*
X651100D01*
X646900D02*
X648100D01*
X638700Y204900D02*
X646500D01*
X638700D02*
Y215100D01*
X646500D01*
X651500Y204900D02*
X659300D01*
Y215100D01*
X651500D02*
X659300D01*
X648100Y208100D02*
Y211900D01*
X648200Y210000D02*
X649900Y208300D01*
X648200Y210000D02*
X649900Y211700D01*
Y208300D02*
Y211700D01*
X582000Y413500D02*
X589500D01*
X582000Y422500D02*
X589500D01*
X593500D02*
X601000D01*
X593500Y413500D02*
X601000D01*
X582000D02*
Y422500D01*
X601000Y413500D02*
Y422500D01*
X579000Y223500D02*
X586500D01*
X579000Y232500D02*
X586500D01*
X590500D02*
X598000D01*
X590500Y223500D02*
X598000D01*
X579000D02*
Y232500D01*
X598000Y223500D02*
Y232500D01*
X439000Y391500D02*
Y398500D01*
X447000D01*
Y391500D02*
Y398500D01*
Y380500D02*
Y387500D01*
X439000Y380500D02*
X447000D01*
X439000D02*
Y387500D01*
X481000Y390500D02*
Y397500D01*
X489000D01*
Y390500D02*
Y397500D01*
Y379500D02*
Y386500D01*
X481000Y379500D02*
X489000D01*
X481000D02*
Y386500D01*
D80*
X654000Y417000D02*
Y421000D01*
X653000Y417000D02*
Y421000D01*
X652000Y419000D02*
X653000D01*
X654000D02*
X655000D01*
X649000Y227000D02*
Y231000D01*
X648000Y227000D02*
Y231000D01*
X647000Y229000D02*
X648000D01*
X649000D02*
X650000D01*
X592000Y416000D02*
Y420000D01*
X591000Y416000D02*
Y420000D01*
X590000Y418000D02*
X591000D01*
X592000D02*
X593000D01*
X589000Y226000D02*
Y230000D01*
X588000Y226000D02*
Y230000D01*
X587000Y228000D02*
X588000D01*
X589000D02*
X590000D01*
D81*
X557100Y440106D02*
D03*
X575100Y310100D02*
D03*
X641100D02*
D03*
X625900Y439900D02*
D03*
X460100Y476100D02*
D03*
X505900Y457900D02*
D03*
X438100Y458100D02*
D03*
D82*
X556643Y439899D02*
D03*
X574643Y309893D02*
D03*
X640643D02*
D03*
X626357Y440107D02*
D03*
X459643Y475893D02*
D03*
X506357Y458107D02*
D03*
X437643Y457893D02*
D03*
D83*
X554703Y439768D02*
D03*
X572708Y309762D02*
D03*
X638708Y309760D02*
D03*
X628293Y440236D02*
D03*
X457708Y475766D02*
D03*
X508292Y458239D02*
D03*
X435701Y457759D02*
D03*
D84*
X554050Y440306D02*
D03*
X572050Y310300D02*
D03*
X638050D02*
D03*
X628950Y439700D02*
D03*
X457050Y476300D02*
D03*
X508950Y457700D02*
D03*
X435050Y458300D02*
D03*
D85*
X554000Y437756D02*
D03*
X572000Y307750D02*
D03*
X638000D02*
D03*
X629000Y442250D02*
D03*
X457000Y473750D02*
D03*
X509000Y460250D02*
D03*
X435000Y455750D02*
D03*
M02*
