G04 Layer_Physical_Order=1*
G04 Layer_Color=255*
%FSLAX25Y25*%
%MOIN*%
G70*
G01*
G75*
%ADD10R,0.09646X0.03937*%
%ADD11R,0.03937X0.09646*%
%ADD12R,0.04331X0.03937*%
%ADD13R,0.04724X0.00984*%
%ADD14R,0.11811X0.11811*%
%ADD15C,0.04000*%
%ADD16C,0.03000*%
%ADD17C,0.01000*%
%ADD18C,0.01500*%
%ADD19C,0.02000*%
%ADD20C,0.01969*%
%ADD21C,0.03937*%
%ADD22C,0.01575*%
%ADD23C,0.05906*%
%ADD24R,0.05906X0.05906*%
%ADD25R,0.05906X0.05906*%
%ADD26C,0.07874*%
%ADD27P,0.08523X8X202.5*%
%ADD28C,0.05512*%
%ADD29C,0.03937*%
%ADD30C,0.02756*%
%ADD31C,0.03543*%
%ADD32C,0.03150*%
D10*
X26378Y56854D02*
D03*
Y62366D02*
D03*
Y67878D02*
D03*
Y73390D02*
D03*
Y78902D02*
D03*
Y84414D02*
D03*
Y89925D02*
D03*
Y95437D02*
D03*
X76772D02*
D03*
Y89925D02*
D03*
Y84414D02*
D03*
Y78902D02*
D03*
Y73390D02*
D03*
Y67878D02*
D03*
Y62366D02*
D03*
Y56854D02*
D03*
D11*
X32284Y47406D02*
D03*
X37795D02*
D03*
X43307D02*
D03*
X48819D02*
D03*
X54331D02*
D03*
X59843D02*
D03*
X65355D02*
D03*
X70866D02*
D03*
D12*
X111221Y20472D02*
D03*
X117913D02*
D03*
X133661D02*
D03*
X126969D02*
D03*
X143504Y70866D02*
D03*
X136811D02*
D03*
X143504Y20472D02*
D03*
X150197D02*
D03*
X166732D02*
D03*
X160039D02*
D03*
D13*
X175591Y45965D02*
D03*
Y48524D02*
D03*
Y51083D02*
D03*
Y53642D02*
D03*
Y56201D02*
D03*
Y43406D02*
D03*
Y40846D02*
D03*
Y38287D02*
D03*
X152756D02*
D03*
Y40846D02*
D03*
Y43406D02*
D03*
Y56201D02*
D03*
Y53642D02*
D03*
Y51083D02*
D03*
Y48524D02*
D03*
Y45965D02*
D03*
D14*
X164173Y47244D02*
D03*
D15*
X68799Y79429D02*
X69327Y78902D01*
X76772D01*
X18701Y68012D02*
X18834Y67878D01*
X26378D01*
X33233D02*
X33465Y68110D01*
X26378Y67878D02*
X33233D01*
X70866Y47406D02*
X74075Y50614D01*
Y50788D01*
X26378Y62366D02*
Y67878D01*
X76772Y89925D02*
Y95437D01*
X68933D02*
X76772D01*
X68898Y95472D02*
X68933Y95437D01*
D16*
X32839Y73390D02*
X33465Y74016D01*
X26378Y73390D02*
X32839D01*
D17*
X81075Y14788D02*
X94075Y27788D01*
X54548Y14788D02*
X81075D01*
X87075Y17788D02*
X94075D01*
X81575Y12288D02*
X87075Y17788D01*
X35075Y12288D02*
X81575D01*
X45075Y29788D02*
X51075Y23788D01*
Y18261D02*
Y23788D01*
Y18261D02*
X54548Y14788D01*
X30575Y16788D02*
X35075Y12288D01*
X30575Y16788D02*
Y25805D01*
X33075Y28305D01*
Y33788D01*
X145374Y51083D02*
X152756D01*
X143370Y53087D02*
X145374Y51083D01*
X143996Y48524D02*
X152756D01*
X155512Y30315D02*
X189764D01*
X152756Y33071D02*
X155512Y30315D01*
X152756Y33071D02*
Y38287D01*
X166732Y20472D02*
Y23425D01*
X163386Y26772D02*
X166732Y23425D01*
X148819Y26772D02*
X163386D01*
X146850Y28740D02*
X148819Y26772D01*
X146850Y28740D02*
Y39370D01*
X148327Y40846D01*
X152756D01*
X189764Y30315D02*
X192520Y27559D01*
X175591Y53642D02*
X186713D01*
X175591Y56201D02*
X183760D01*
X186614Y59055D01*
Y77638D01*
X200236Y26929D02*
X201969D01*
X188878Y38287D02*
X200236Y26929D01*
X175591Y38287D02*
X188878D01*
X175591Y43406D02*
X192027D01*
X193465Y41969D01*
X194567Y36929D02*
X201969D01*
X190650Y40846D02*
X194567Y36929D01*
X175591Y40846D02*
X190650D01*
X165453Y45965D02*
X175591D01*
X201969Y55118D02*
Y56929D01*
X195374Y48524D02*
X201969Y55118D01*
X175591Y48524D02*
X195374D01*
X143370Y53087D02*
Y71984D01*
X140551Y51968D02*
Y63779D01*
X136811Y67520D02*
X140551Y63779D01*
X136811Y67520D02*
Y71063D01*
X140551Y51968D02*
X143996Y48524D01*
X147539Y53642D02*
X152756D01*
X146850Y54331D02*
X147539Y53642D01*
X200787Y79528D02*
Y82284D01*
X194095Y72835D02*
X200787Y79528D01*
X194095Y53839D02*
Y72835D01*
X191339Y51083D02*
X194095Y53839D01*
X175591Y51083D02*
X191339D01*
X193465Y41969D02*
X206299D01*
X133661Y33661D02*
X143405Y43406D01*
X133661Y20472D02*
Y33661D01*
X143405Y43406D02*
X152756D01*
Y45965D02*
X159744D01*
D18*
X28075Y19788D02*
Y29788D01*
X25575Y17288D02*
X28075Y19788D01*
X86575Y30288D02*
X94075Y37788D01*
X78075Y30288D02*
X86575D01*
X67575Y19788D02*
X78075Y30288D01*
X37795Y41567D02*
Y47406D01*
X37061Y40833D02*
X37795Y41567D01*
X8575Y27288D02*
Y29788D01*
X19620Y40833D01*
X37061D01*
X8575Y17288D02*
X25575D01*
X28075Y37288D02*
X40075D01*
X43307Y40520D01*
Y47406D01*
D19*
X33075Y33788D02*
X42575D01*
X23575D02*
X33075D01*
X35075Y21288D02*
X54331Y40543D01*
X82075Y35288D02*
Y35788D01*
X94075Y47788D01*
X9225Y95437D02*
X26378D01*
X13713Y89925D02*
X26378D01*
X8575Y84788D02*
X13713Y89925D01*
X18201Y84414D02*
X26378D01*
X8575Y74788D02*
X18201Y84414D01*
X67575Y86788D02*
X69949Y84414D01*
X76772D01*
X48819Y40032D02*
Y47406D01*
X65355Y38508D02*
Y47406D01*
Y38508D02*
X68575Y35288D01*
X82075D01*
X59843Y27520D02*
Y47406D01*
Y27520D02*
X67575Y19788D01*
X35075D02*
Y21288D01*
X76772Y56854D02*
X85642D01*
X93575Y64788D01*
X76772Y62366D02*
X82154D01*
X93575Y73788D01*
Y74788D01*
X67973Y73390D02*
X76772D01*
X67575Y73788D02*
X67973Y73390D01*
X67666Y67878D02*
X76772D01*
X67575Y67788D02*
X67666Y67878D01*
X18189Y78902D02*
X26378D01*
X13575Y74288D02*
X18189Y78902D01*
X13575Y52288D02*
Y74288D01*
X8575Y47288D02*
X13575Y52288D01*
X18693Y47406D02*
X32284D01*
X8575Y37288D02*
X18693Y47406D01*
X22075Y35288D02*
X23575Y33788D01*
X42575D02*
X48819Y40032D01*
X54331Y40543D02*
Y47406D01*
D20*
X150197Y20472D02*
X160039D01*
X167480Y82677D02*
X170236Y85433D01*
X189764D02*
X192520Y82677D01*
X170236Y85433D02*
X189764D01*
X190157Y57087D02*
Y74803D01*
X192520Y77165D01*
X186713Y53642D02*
X190157Y57087D01*
X192520Y77165D02*
Y82677D01*
X210787Y78110D02*
Y82284D01*
X209842Y77165D02*
X210787Y78110D01*
X209842Y44331D02*
Y77165D01*
X206299Y41969D02*
X207480D01*
X209842Y44331D01*
X160039Y15551D02*
Y20472D01*
X161395Y14195D02*
X211046D01*
X214961Y18110D01*
Y66535D01*
X160039Y15551D02*
X161395Y14195D01*
D21*
X111024Y82677D02*
X121024D01*
X131024D02*
X141024D01*
X111024Y20669D02*
Y82677D01*
X117913Y20472D02*
X125984D01*
X131024Y76693D02*
Y82677D01*
X126378Y72047D02*
X131024Y76693D01*
X126772Y47638D02*
X133071D01*
X126378Y19685D02*
Y72047D01*
X157874Y64567D02*
Y64961D01*
X153150Y59842D02*
X157874Y64567D01*
X153150Y57480D02*
Y59842D01*
X143504Y20472D02*
Y21457D01*
X140551Y24409D02*
X143504Y21457D01*
X140551Y24409D02*
Y29134D01*
D22*
X146850Y54331D02*
Y61811D01*
X150787Y65748D01*
Y81102D01*
X152362Y82677D01*
X157480D01*
D23*
X93575Y94788D02*
D03*
Y84788D02*
D03*
Y74788D02*
D03*
X94075Y47788D02*
D03*
Y37788D02*
D03*
Y27788D02*
D03*
X82075Y35288D02*
D03*
X67575Y19788D02*
D03*
X35075D02*
D03*
X52575Y7788D02*
D03*
X62575D02*
D03*
X8575Y94788D02*
D03*
Y84788D02*
D03*
Y74788D02*
D03*
Y47288D02*
D03*
Y37288D02*
D03*
Y27288D02*
D03*
X22075Y35288D02*
D03*
X201969Y26929D02*
D03*
Y36929D02*
D03*
Y46929D02*
D03*
Y56929D02*
D03*
X167480Y82677D02*
D03*
X141024D02*
D03*
X131024D02*
D03*
X121024D02*
D03*
X210787Y82284D02*
D03*
D24*
X93575Y64788D02*
D03*
X94075Y17788D02*
D03*
X82075Y25288D02*
D03*
X8575Y64788D02*
D03*
Y17288D02*
D03*
X22075Y25288D02*
D03*
X201969Y66929D02*
D03*
D25*
X57575Y19788D02*
D03*
X45075D02*
D03*
X42575Y7788D02*
D03*
X157480Y82677D02*
D03*
X111024D02*
D03*
X200787Y82284D02*
D03*
D26*
X113386Y47638D02*
D03*
D27*
X133071D02*
D03*
D28*
X186614Y20000D02*
D03*
Y80000D02*
D03*
D29*
X68799Y79429D02*
D03*
X18701Y68012D02*
D03*
X33465Y68110D02*
D03*
Y74016D02*
D03*
X74075Y50788D02*
D03*
X32575Y56788D02*
D03*
X68898Y95472D02*
D03*
X157874Y64961D02*
D03*
D30*
X67575Y86788D02*
D03*
Y67788D02*
D03*
Y73788D02*
D03*
X28075Y37288D02*
D03*
Y29788D02*
D03*
D31*
X192520Y27559D02*
D03*
D32*
X214961Y66535D02*
D03*
X140551Y29134D02*
D03*
X164567Y50000D02*
D03*
X164961Y45276D02*
D03*
M02*
